STARTFONT 2.1
COMMENT
COMMENT Shinonome 16dot font for JISX 0208, 1983/1990, Mincho Style
COMMENT
COMMENT The original is designed by
COMMENT   Yasuyuki Furukawa <Furukawa.Yasuyuki@fujixerox.co.jp>, 2000.
COMMENT   (Public Domain)
COMMENT
COMMENT Modified and Maintained by /efont/.
COMMENT
COMMENT (c) /efont/ -- Efont Open Laboratory 2001
COMMENT http://openlab.ring.gr.jp/efont/
COMMENT
FONT -Shinonome-Mincho-Bold-I-Normal--16-150-75-75-C-160-JISX0208.1990-0
SIZE 16 75 75
FONTBOUNDINGBOX 21 16 -2 -2
STARTPROPERTIES 20
FONT_ASCENT 14
FONT_DESCENT 2
DEFAULT_CHAR 8481
COPYRIGHT "Public Domain"
FONTNAME_REGISTRY ""
FOUNDRY "Shinonome"
FAMILY_NAME "Mincho"
WEIGHT_NAME "Bold"
SLANT "I"
SETWIDTH_NAME "Normal"
ADD_STYLE_NAME ""
PIXEL_SIZE 16
POINT_SIZE 150
RESOLUTION_X 75
RESOLUTION_Y 75
SPACING "C"
AVERAGE_WIDTH 160
CHARSET_REGISTRY "JISX0208.1983"
CHARSET_ENCODING "0"
_XMBDFED_INFO "Edited with xmbdfed 4.4."
ENDPROPERTIES
CHARS 6879
STARTCHAR 2121
ENCODING 8481
SWIDTH 960 0
DWIDTH 16 0
BBX 21 16 -2 -2
BITMAP
000000
000000
000000
000000
000000
000000
000000
000000
000000
000000
000000
000000
000000
000000
000000
000000
ENDCHAR
STARTCHAR 2122
ENCODING 8482
SWIDTH 960 0
DWIDTH 16 0
BBX 21 16 -2 -2
BITMAP
000000
000000
000000
000000
000000
000000
000000
000000
000000
000000
000000
000000
300000
180000
180000
180000
ENDCHAR
STARTCHAR 2123
ENCODING 8483
SWIDTH 960 0
DWIDTH 16 0
BBX 21 16 -2 -2
BITMAP
000000
000000
000000
000000
000000
000000
000000
000000
000000
000000
000000
1c0000
340000
6c0000
380000
000000
ENDCHAR
STARTCHAR 2124
ENCODING 8484
SWIDTH 960 0
DWIDTH 16 0
BBX 21 16 -2 -2
BITMAP
000000
000000
000000
000000
000000
000000
000000
000000
000000
000000
000000
000000
700000
700000
600000
c00000
ENDCHAR
STARTCHAR 2125
ENCODING 8485
SWIDTH 960 0
DWIDTH 16 0
BBX 21 16 -2 -2
BITMAP
000000
000000
000000
000000
000000
000000
000000
000000
000000
000000
000000
000000
700000
700000
000000
000000
ENDCHAR
STARTCHAR 2126
ENCODING 8486
SWIDTH 960 0
DWIDTH 16 0
BBX 21 16 -2 -2
BITMAP
000000
000000
000000
000000
000000
000000
000000
007000
007000
000000
000000
000000
000000
000000
000000
000000
ENDCHAR
STARTCHAR 2127
ENCODING 8487
SWIDTH 960 0
DWIDTH 16 0
BBX 21 16 -2 -2
BITMAP
000000
000000
000000
000000
000000
003800
007000
000000
000000
000000
000000
00e000
01c000
000000
000000
000000
ENDCHAR
STARTCHAR 2128
ENCODING 8488
SWIDTH 960 0
DWIDTH 16 0
BBX 21 16 -2 -2
BITMAP
000000
000000
000000
000000
000000
003800
007000
000000
000000
000000
000000
00e000
01c000
00c000
018000
000000
ENDCHAR
STARTCHAR 2129
ENCODING 8489
SWIDTH 960 0
DWIDTH 16 0
BBX 21 16 -2 -2
BITMAP
000000
003e00
006300
00c300
018300
018600
018c00
001800
003000
006000
00c000
000000
000000
018000
018000
000000
ENDCHAR
STARTCHAR 212a
ENCODING 8490
SWIDTH 960 0
DWIDTH 16 0
BBX 21 16 -2 -2
BITMAP
000000
001c00
001c00
003800
003800
003000
006000
006000
006000
00c000
00c000
000000
000000
018000
018000
000000
ENDCHAR
STARTCHAR 212b
ENCODING 8491
SWIDTH 960 0
DWIDTH 16 0
BBX 21 16 -2 -2
BITMAP
018000
06c000
06c000
060000
000000
000000
000000
000000
000000
000000
000000
000000
000000
000000
000000
000000
ENDCHAR
STARTCHAR 212c
ENCODING 8492
SWIDTH 960 0
DWIDTH 16 0
BBX 21 16 -2 -2
BITMAP
000000
060000
0d0000
0d0000
060000
000000
000000
000000
000000
000000
000000
000000
000000
000000
000000
000000
ENDCHAR
STARTCHAR 212d
ENCODING 8493
SWIDTH 960 0
DWIDTH 16 0
BBX 21 16 -2 -2
BITMAP
000c00
000c00
001800
007000
000000
000000
000000
000000
000000
000000
000000
000000
000000
000000
000000
000000
ENDCHAR
STARTCHAR 212e
ENCODING 8494
SWIDTH 960 0
DWIDTH 16 0
BBX 21 16 -2 -2
BITMAP
003000
003000
001800
001800
000000
000000
000000
000000
000000
000000
000000
000000
000000
000000
000000
000000
ENDCHAR
STARTCHAR 212f
ENCODING 8495
SWIDTH 960 0
DWIDTH 16 0
BBX 21 16 -2 -2
BITMAP
007700
007700
000000
000000
000000
000000
000000
000000
000000
000000
000000
000000
000000
000000
000000
000000
ENDCHAR
STARTCHAR 2130
ENCODING 8496
SWIDTH 960 0
DWIDTH 16 0
BBX 21 16 -2 -2
BITMAP
001800
003400
00e600
018600
000000
000000
000000
000000
000000
000000
000000
000000
000000
000000
000000
000000
ENDCHAR
STARTCHAR 2131
ENCODING 8497
SWIDTH 960 0
DWIDTH 16 0
BBX 21 16 -2 -2
BITMAP
0ffff8
000000
000000
000000
000000
000000
000000
000000
000000
000000
000000
000000
000000
000000
000000
000000
ENDCHAR
STARTCHAR 2132
ENCODING 8498
SWIDTH 960 0
DWIDTH 16 0
BBX 21 16 -2 -2
BITMAP
000000
000000
000000
000000
000000
000000
000000
000000
000000
000000
000000
000000
000000
000000
000000
ffff00
ENDCHAR
STARTCHAR 2133
ENCODING 8499
SWIDTH 960 0
DWIDTH 16 0
BBX 21 16 -2 -2
BITMAP
000000
000000
000000
000000
000000
01c000
006000
003000
001800
001800
000c00
000000
000000
000000
000000
000000
ENDCHAR
STARTCHAR 2134
ENCODING 8500
SWIDTH 960 0
DWIDTH 16 0
BBX 21 16 -2 -2
BITMAP
000000
000000
000300
001b00
000d00
01cc00
006000
003000
001800
001800
000c00
000000
000000
000000
000000
000000
ENDCHAR
STARTCHAR 2135
ENCODING 8501
SWIDTH 960 0
DWIDTH 16 0
BBX 21 16 -2 -2
BITMAP
000000
000000
000000
000000
01c000
006000
003000
001800
000c00
003c00
006000
00c000
000000
000000
000000
000000
ENDCHAR
STARTCHAR 2136
ENCODING 8502
SWIDTH 960 0
DWIDTH 16 0
BBX 21 16 -2 -2
BITMAP
000000
000000
000180
000d80
01c680
006600
003000
001800
000c00
003c00
006000
00c000
000000
000000
000000
000000
ENDCHAR
STARTCHAR 2137
ENCODING 8503
SWIDTH 960 0
DWIDTH 16 0
BBX 21 16 -2 -2
BITMAP
000000
000000
000000
000000
003300
006300
006600
00cc00
019c00
033000
066000
000000
000000
000000
000000
000000
ENDCHAR
STARTCHAR 2138
ENCODING 8504
SWIDTH 960 0
DWIDTH 16 0
BBX 21 16 -2 -2
BITMAP
000c00
000c00
001a00
007600
00c300
0381c0
1e0060
000000
03ff80
006000
006000
006000
00c000
00c000
3fff00
000000
ENDCHAR
STARTCHAR 2139
ENCODING 8505
SWIDTH 960 0
DWIDTH 16 0
BBX 21 16 -2 -2
BITMAP
000000
001800
001800
003000
003f80
006300
006300
00c600
038c00
06ec00
0c3800
000c00
000c00
000c00
000000
000000
ENDCHAR
STARTCHAR 213a
ENCODING 8506
SWIDTH 960 0
DWIDTH 16 0
BBX 21 16 -2 -2
BITMAP
000000
000030
000060
0000c0
000180
007300
00dc00
019800
033400
036000
068000
0d0000
0c0000
180000
180000
000000
ENDCHAR
STARTCHAR 213b
ENCODING 8507
SWIDTH 960 0
DWIDTH 16 0
BBX 21 16 -2 -2
BITMAP
000000
003e00
01e300
030180
0600c0
0c00c0
0c00c0
1800c0
180180
180180
180300
180600
180c00
0e3800
03e000
000000
ENDCHAR
STARTCHAR 213c
ENCODING 8508
SWIDTH 960 0
DWIDTH 16 0
BBX 21 16 -2 -2
BITMAP
000000
000000
000000
000000
000000
000000
000000
183f80
0fe000
000000
000000
000000
000000
000000
000000
000000
ENDCHAR
STARTCHAR 213d
ENCODING 8509
SWIDTH 960 0
DWIDTH 16 0
BBX 21 16 -2 -2
BITMAP
000000
000000
000000
000000
000000
000000
000000
3fffe0
000000
000000
000000
000000
000000
000000
000000
000000
ENDCHAR
STARTCHAR 213e
ENCODING 8510
SWIDTH 960 0
DWIDTH 16 0
BBX 21 16 -2 -2
BITMAP
000000
000000
000000
000000
000000
000000
000000
01fc00
000000
000000
000000
000000
000000
000000
000000
000000
ENDCHAR
STARTCHAR 213f
ENCODING 8511
SWIDTH 960 0
DWIDTH 16 0
BBX 21 16 -2 -2
BITMAP
000018
000030
0000e0
000180
000300
000e00
001800
003000
00e000
018000
030000
0e0000
180000
300000
e00000
800000
ENDCHAR
STARTCHAR 2140
ENCODING 8512
SWIDTH 960 0
DWIDTH 16 0
BBX 21 16 -2 -2
BITMAP
0c0000
060000
030000
030000
018000
00c000
00c000
006000
003000
003000
001800
000c00
000c00
000600
000300
000300
ENDCHAR
STARTCHAR 2141
ENCODING 8513
SWIDTH 960 0
DWIDTH 16 0
BBX 21 16 -2 -2
BITMAP
000000
000000
000000
000000
000000
000000
03c000
0670c0
0c1b80
000e00
000000
000000
000000
000000
000000
000000
ENDCHAR
STARTCHAR 2142
ENCODING 8514
SWIDTH 960 0
DWIDTH 16 0
BBX 21 16 -2 -2
BITMAP
006600
006600
006600
00cc00
00cc00
00cc00
019800
019800
019800
033000
033000
033000
066000
066000
066000
0cc000
ENDCHAR
STARTCHAR 2143
ENCODING 8515
SWIDTH 960 0
DWIDTH 16 0
BBX 21 16 -2 -2
BITMAP
001800
001800
001800
003000
003000
003000
006000
006000
006000
00c000
00c000
00c000
018000
018000
018000
030000
ENDCHAR
STARTCHAR 2144
ENCODING 8516
SWIDTH 960 0
DWIDTH 16 0
BBX 21 16 -2 -2
BITMAP
000000
000000
000000
000000
000000
000000
000000
1c71c0
1c71c0
000000
000000
000000
000000
000000
000000
000000
ENDCHAR
STARTCHAR 2145
ENCODING 8517
SWIDTH 960 0
DWIDTH 16 0
BBX 21 16 -2 -2
BITMAP
000000
000000
000000
000000
000000
000000
000000
070700
070700
000000
000000
000000
000000
000000
000000
000000
ENDCHAR
STARTCHAR 2146
ENCODING 8518
SWIDTH 960 0
DWIDTH 16 0
BBX 21 16 -2 -2
BITMAP
0000c0
000180
0001c0
000380
000000
000000
000000
000000
000000
000000
000000
000000
000000
000000
000000
000000
ENDCHAR
STARTCHAR 2147
ENCODING 8519
SWIDTH 960 0
DWIDTH 16 0
BBX 21 16 -2 -2
BITMAP
01c000
01c000
018000
030000
000000
000000
000000
000000
000000
000000
000000
000000
000000
000000
000000
000000
ENDCHAR
STARTCHAR 2148
ENCODING 8520
SWIDTH 960 0
DWIDTH 16 0
BBX 21 16 -2 -2
BITMAP
000360
0006c0
000760
000ec0
000000
000000
000000
000000
000000
000000
000000
000000
000000
000000
000000
000000
ENDCHAR
STARTCHAR 2149
ENCODING 8521
SWIDTH 960 0
DWIDTH 16 0
BBX 21 16 -2 -2
BITMAP
03b000
03b000
037000
06c000
000000
000000
000000
000000
000000
000000
000000
000000
000000
000000
000000
000000
ENDCHAR
STARTCHAR 214a
ENCODING 8522
SWIDTH 960 0
DWIDTH 16 0
BBX 21 16 -2 -2
BITMAP
000000
0000c0
000380
000600
000c00
001800
001800
003000
003000
006000
006000
006000
006000
003000
001800
001800
ENDCHAR
STARTCHAR 214b
ENCODING 8523
SWIDTH 960 0
DWIDTH 16 0
BBX 21 16 -2 -2
BITMAP
000000
018000
00c000
00c000
006000
006000
006000
006000
006000
00c000
00c000
018000
030000
060000
1c0000
300000
ENDCHAR
STARTCHAR 214c
ENCODING 8524
SWIDTH 960 0
DWIDTH 16 0
BBX 21 16 -2 -2
BITMAP
0000c0
000380
000e00
001800
001800
001800
003000
003000
003000
006000
006000
006000
00c000
00e000
003000
001800
ENDCHAR
STARTCHAR 214d
ENCODING 8525
SWIDTH 960 0
DWIDTH 16 0
BBX 21 16 -2 -2
BITMAP
018000
00e000
003800
003000
003000
003000
006000
006000
006000
00c000
00c000
00c000
018000
038000
1e0000
300000
ENDCHAR
STARTCHAR 214e
ENCODING 8526
SWIDTH 960 0
DWIDTH 16 0
BBX 21 16 -2 -2
BITMAP
000fc0
000c00
000c00
001800
001800
001800
003000
003000
003000
006000
006000
006000
00c000
00c000
00c000
01f800
ENDCHAR
STARTCHAR 214f
ENCODING 8527
SWIDTH 960 0
DWIDTH 16 0
BBX 21 16 -2 -2
BITMAP
01f800
001800
001800
003000
003000
003000
006000
006000
006000
00c000
00c000
00c000
018000
018000
018000
3f0000
ENDCHAR
STARTCHAR 2150
ENCODING 8528
SWIDTH 960 0
DWIDTH 16 0
BBX 21 16 -2 -2
BITMAP
0000c0
000180
000300
000600
000600
000600
000c00
003000
001800
001800
001800
001800
003000
003000
001800
001800
ENDCHAR
STARTCHAR 2151
ENCODING 8529
SWIDTH 960 0
DWIDTH 16 0
BBX 21 16 -2 -2
BITMAP
018000
00c000
00c000
00c000
00c000
00c000
00c000
00e000
018000
030000
030000
030000
060000
060000
0c0000
380000
ENDCHAR
STARTCHAR 2152
ENCODING 8530
SWIDTH 960 0
DWIDTH 16 0
BBX 21 16 -2 -2
BITMAP
0000c0
0000c0
000180
000300
000600
000c00
001800
003000
003000
003000
001800
001800
001800
001800
001800
001800
ENDCHAR
STARTCHAR 2153
ENCODING 8531
SWIDTH 960 0
DWIDTH 16 0
BBX 21 16 -2 -2
BITMAP
018000
018000
018000
018000
00c000
00c000
00c000
006000
00c000
018000
030000
060000
060000
0c0000
180000
300000
ENDCHAR
STARTCHAR 2154
ENCODING 8532
SWIDTH 960 0
DWIDTH 16 0
BBX 21 16 -2 -2
BITMAP
000360
000360
000680
000d80
001b00
003700
006c00
00d800
00d800
00d800
006c00
006c00
006c00
006c00
006600
006c00
ENDCHAR
STARTCHAR 2155
ENCODING 8533
SWIDTH 960 0
DWIDTH 16 0
BBX 21 16 -2 -2
BITMAP
036000
036000
033000
033000
01b000
01b000
01b000
00d800
01b800
036000
06c000
0cc000
0d8000
1b0000
360000
6c0000
ENDCHAR
STARTCHAR 2156
ENCODING 8534
SWIDTH 960 0
DWIDTH 16 0
BBX 21 16 -2 -2
BITMAP
000fc0
000c00
000c00
001800
001800
001800
003000
003000
003000
006000
006000
000000
000000
000000
000000
000000
ENDCHAR
STARTCHAR 2157
ENCODING 8535
SWIDTH 960 0
DWIDTH 16 0
BBX 21 16 -2 -2
BITMAP
000000
000000
000000
000000
000000
003000
006000
006000
006000
00c000
00c000
00c000
018000
018000
018000
3f0000
ENDCHAR
STARTCHAR 2158
ENCODING 8536
SWIDTH 960 0
DWIDTH 16 0
BBX 21 16 -2 -2
BITMAP
001fc0
0018c0
001bc0
003400
003400
003400
006800
006800
006800
00d000
00f000
000000
000000
000000
000000
000000
ENDCHAR
STARTCHAR 2159
ENCODING 8537
SWIDTH 960 0
DWIDTH 16 0
BBX 21 16 -2 -2
BITMAP
000000
000000
000000
000000
000000
007800
00d000
00d000
00d000
01a000
01a000
01a000
034000
1f4000
18c000
3f8000
ENDCHAR
STARTCHAR 215a
ENCODING 8538
SWIDTH 960 0
DWIDTH 16 0
BBX 21 16 -2 -2
BITMAP
000fc0
000f80
000f00
001c00
001c00
001800
003000
003000
003000
006000
006000
007000
00e000
00f000
00f800
01f800
ENDCHAR
STARTCHAR 215b
ENCODING 8539
SWIDTH 960 0
DWIDTH 16 0
BBX 21 16 -2 -2
BITMAP
01f800
00f800
007800
007000
007000
003000
006000
006000
006000
00c000
00c000
01c000
038000
078000
1f8000
370000
ENDCHAR
STARTCHAR 215c
ENCODING 8540
SWIDTH 960 0
DWIDTH 16 0
BBX 21 16 -2 -2
BITMAP
000000
000000
000c00
001800
001800
001800
003000
07ff80
003000
006000
006000
006000
00c000
00c000
000000
000000
ENDCHAR
STARTCHAR 215d
ENCODING 8541
SWIDTH 960 0
DWIDTH 16 0
BBX 21 16 -2 -2
BITMAP
000000
000000
000000
000000
000000
000000
000000
0fff80
000000
000000
000000
000000
000000
000000
000000
000000
ENDCHAR
STARTCHAR 215e
ENCODING 8542
SWIDTH 960 0
DWIDTH 16 0
BBX 21 16 -2 -2
BITMAP
000000
000000
000c00
001800
001800
001800
07ff80
003000
003000
006000
006000
000000
000000
1fff00
000000
000000
ENDCHAR
STARTCHAR 215f
ENCODING 8543
SWIDTH 960 0
DWIDTH 16 0
BBX 21 16 -2 -2
BITMAP
000000
000000
000000
030180
018300
00ce00
00d800
007000
00f000
01b000
031800
0e0c00
180c00
000000
000000
000000
ENDCHAR
STARTCHAR 2160
ENCODING 8544
SWIDTH 960 0
DWIDTH 16 0
BBX 21 16 -2 -2
BITMAP
000000
000000
000000
003800
003800
000000
000000
0fff80
000000
000000
00e000
00e000
000000
000000
000000
000000
ENDCHAR
STARTCHAR 2161
ENCODING 8545
SWIDTH 960 0
DWIDTH 16 0
BBX 21 16 -2 -2
BITMAP
000000
000000
000000
000000
000000
07ffc0
000000
000000
000000
1fff00
000000
000000
000000
000000
000000
000000
ENDCHAR
STARTCHAR 2162
ENCODING 8546
SWIDTH 960 0
DWIDTH 16 0
BBX 21 16 -2 -2
BITMAP
000000
000000
000600
000c00
001800
07ffc0
003000
006000
006000
1fff00
00c000
018000
030000
000000
000000
000000
ENDCHAR
STARTCHAR 2163
ENCODING 8547
SWIDTH 960 0
DWIDTH 16 0
BBX 21 16 -2 -2
BITMAP
000000
000000
0003c0
000e00
003800
00e000
038000
0e0000
030000
018000
00e000
003800
000c00
000000
000000
000000
ENDCHAR
STARTCHAR 2164
ENCODING 8548
SWIDTH 960 0
DWIDTH 16 0
BBX 21 16 -2 -2
BITMAP
000000
000000
01c000
006000
003800
000c00
000600
000380
001e00
003000
00e000
078000
1c0000
000000
000000
000000
ENDCHAR
STARTCHAR 2165
ENCODING 8549
SWIDTH 960 0
DWIDTH 16 0
BBX 21 16 -2 -2
BITMAP
000000
000000
0003e0
001e00
00f000
078000
00e000
003c00
000780
000000
1fff00
000000
000000
3ffe00
000000
000000
ENDCHAR
STARTCHAR 2166
ENCODING 8550
SWIDTH 960 0
DWIDTH 16 0
BBX 21 16 -2 -2
BITMAP
000000
000000
03c000
007000
001e00
0007c0
003c00
01e000
0f0000
000000
1fff00
000000
000000
3ffe00
000000
000000
ENDCHAR
STARTCHAR 2167
ENCODING 8551
SWIDTH 960 0
DWIDTH 16 0
BBX 21 16 -2 -2
BITMAP
000000
000000
000000
000000
03c380
06dac0
0cd8c0
1870c0
18f0c0
19b180
1bbb00
0e1e00
000000
000000
000000
000000
ENDCHAR
STARTCHAR 2168
ENCODING 8552
SWIDTH 960 0
DWIDTH 16 0
BBX 21 16 -2 -2
BITMAP
000000
000000
000000
003800
003800
000000
000000
000000
000000
000000
000000
1c0700
380e00
000000
000000
000000
ENDCHAR
STARTCHAR 2169
ENCODING 8553
SWIDTH 960 0
DWIDTH 16 0
BBX 21 16 -2 -2
BITMAP
000000
000ff0
0000f0
0001a0
000360
000e60
0018c0
07d0c0
0c6000
186000
306000
306000
30c000
318000
1f0000
000000
ENDCHAR
STARTCHAR 216a
ENCODING 8554
SWIDTH 960 0
DWIDTH 16 0
BBX 21 16 -2 -2
BITMAP
000000
003e00
006300
00c300
018300
018300
018600
018c00
00f800
00c000
0ffe00
00c000
018000
018000
018000
030000
ENDCHAR
STARTCHAR 216b
ENCODING 8555
SWIDTH 960 0
DWIDTH 16 0
BBX 21 16 -2 -2
BITMAP
000000
030000
068000
068000
030000
000000
000000
000000
000000
000000
000000
000000
000000
000000
000000
000000
ENDCHAR
STARTCHAR 216c
ENCODING 8556
SWIDTH 960 0
DWIDTH 16 0
BBX 21 16 -2 -2
BITMAP
000000
00c000
01c000
030000
060000
000000
000000
000000
000000
000000
000000
000000
000000
000000
000000
000000
ENDCHAR
STARTCHAR 216d
ENCODING 8557
SWIDTH 960 0
DWIDTH 16 0
BBX 21 16 -2 -2
BITMAP
000000
019800
03b800
06e000
0cc000
000000
000000
000000
000000
000000
000000
000000
000000
000000
000000
000000
ENDCHAR
STARTCHAR 216e
ENCODING 8558
SWIDTH 960 0
DWIDTH 16 0
BBX 21 16 -2 -2
BITMAP
000000
0307b0
069cd0
06b0e0
036060
00c060
018000
018000
018000
018000
018180
018700
00dc00
007000
000000
000000
ENDCHAR
STARTCHAR 216f
ENCODING 8559
SWIDTH 960 0
DWIDTH 16 0
BBX 21 16 -2 -2
BITMAP
000000
01e1e0
00c0c0
00c180
00c300
07ffe0
00cc00
006800
003000
1fff80
006000
006000
00c000
00c000
01e000
000000
ENDCHAR
STARTCHAR 2170
ENCODING 8560
SWIDTH 960 0
DWIDTH 16 0
BBX 21 16 -2 -2
BITMAP
000000
003400
00fe00
01aa00
036b00
036b00
035000
01f000
00d800
01ac00
0da600
0dac00
0d5800
07f000
034000
000000
ENDCHAR
STARTCHAR 2171
ENCODING 8561
SWIDTH 960 0
DWIDTH 16 0
BBX 21 16 -2 -2
BITMAP
000000
000000
000000
000000
000000
000e00
00f800
019c00
033600
063000
066000
06dc00
06b000
03e000
060000
0c0000
ENDCHAR
STARTCHAR 2172
ENCODING 8562
SWIDTH 960 0
DWIDTH 16 0
BBX 21 16 -2 -2
BITMAP
000000
000f00
001980
003000
003000
003000
006000
006000
0fff00
00c000
00c000
0f8000
1b8300
336600
1e3c00
000000
ENDCHAR
STARTCHAR 2173
ENCODING 8563
SWIDTH 960 0
DWIDTH 16 0
BBX 21 16 -2 -2
BITMAP
000000
038030
0740e0
0cc180
0cc300
0cce00
0d9800
073000
00ee00
019b00
033300
0e3300
186600
306e00
603c00
000000
ENDCHAR
STARTCHAR 2174
ENCODING 8564
SWIDTH 960 0
DWIDTH 16 0
BBX 21 16 -2 -2
BITMAP
003180
003180
003180
006300
03ffc0
03ffc0
018c00
018c00
018c00
031800
1ffe00
1ffe00
0c6000
0c6000
0c6000
18c000
ENDCHAR
STARTCHAR 2175
ENCODING 8565
SWIDTH 960 0
DWIDTH 16 0
BBX 21 16 -2 -2
BITMAP
000000
00f000
019800
031800
031800
01b000
01c600
018600
034c00
0ecc00
186800
187000
18d000
199b00
0f0e00
000000
ENDCHAR
STARTCHAR 2176
ENCODING 8566
SWIDTH 960 0
DWIDTH 16 0
BBX 21 16 -2 -2
BITMAP
000000
000000
000000
003000
003000
03b700
03ac00
00f000
006000
01e000
075800
0edc00
018000
018000
000000
000000
ENDCHAR
STARTCHAR 2177
ENCODING 8567
SWIDTH 960 0
DWIDTH 16 0
BBX 21 16 -2 -2
BITMAP
000000
000000
007e00
01c300
030180
067680
06dd80
0d9980
0d9b00
0dba00
0cdc00
0c0700
061c00
03f000
000000
000000
ENDCHAR
STARTCHAR 2178
ENCODING 8568
SWIDTH 960 0
DWIDTH 16 0
BBX 21 16 -2 -2
BITMAP
001c00
003600
006600
00e600
007000
007000
00d800
019c00
019800
01d800
00f000
007000
067000
063000
036000
018000
ENDCHAR
STARTCHAR 2179
ENCODING 8569
SWIDTH 960 0
DWIDTH 16 0
BBX 21 16 -2 -2
BITMAP
000000
001800
001800
003800
006800
00d800
1f9f80
0c0300
060600
060c00
061800
0dd800
0d5800
367400
381c00
000000
ENDCHAR
STARTCHAR 217a
ENCODING 8570
SWIDTH 960 0
DWIDTH 16 0
BBX 21 16 -2 -2
BITMAP
000000
001800
001800
007800
007800
00fc00
1fff80
0fff00
07fe00
07f800
07f800
0fbc00
1e7800
3c3c00
300c00
000000
ENDCHAR
STARTCHAR 217b
ENCODING 8571
SWIDTH 960 0
DWIDTH 16 0
BBX 21 16 -2 -2
BITMAP
000000
003e00
01e300
030180
0600c0
0c00c0
0c00c0
1800c0
180180
180180
180300
180600
180c00
0e3800
03e000
000000
ENDCHAR
STARTCHAR 217c
ENCODING 8572
SWIDTH 960 0
DWIDTH 16 0
BBX 21 16 -2 -2
BITMAP
000000
003e00
00ff80
03ff80
07ffc0
07ffc0
1fffc0
1fffc0
1fffc0
3fff80
1fff00
1fff00
1ffc00
0ff800
03e000
000000
ENDCHAR
STARTCHAR 217d
ENCODING 8573
SWIDTH 960 0
DWIDTH 16 0
BBX 21 16 -2 -2
BITMAP
000000
003e00
01e300
030180
067cc0
0cc6c0
0d86c0
1b06c0
1b0680
1b0d80
1b1b00
19f600
180c00
0e3800
03e000
000000
ENDCHAR
STARTCHAR 217e
ENCODING 8574
SWIDTH 960 0
DWIDTH 16 0
BBX 21 16 -2 -2
BITMAP
001c00
003600
00e300
018300
030180
0e00c0
1800c0
300060
3000c0
300180
180300
0c0e00
0c1800
063000
036000
018000
ENDCHAR
STARTCHAR 2221
ENCODING 8737
SWIDTH 960 0
DWIDTH 16 0
BBX 21 16 -2 -2
BITMAP
001c00
003e00
007f00
01ff00
03ff80
07ffc0
1fffc0
3fffe0
3fffe0
3fff80
1fff00
0ffe00
0ff800
07f000
03e000
038000
ENDCHAR
STARTCHAR 2222
ENCODING 8738
SWIDTH 960 0
DWIDTH 16 0
BBX 21 16 -2 -2
BITMAP
000000
07fff0
060030
0c0060
0c0060
0c0060
1800c0
1800c0
1800c0
300180
300180
300180
600300
600300
7fff00
000000
ENDCHAR
STARTCHAR 2223
ENCODING 8739
SWIDTH 960 0
DWIDTH 16 0
BBX 21 16 -2 -2
BITMAP
000000
07fff0
07fff0
0fffe0
0fffe0
0fffe0
1fffc0
1fffc0
1fffc0
3fff80
3fff80
3fff80
7fff00
7fff00
7fff00
000000
ENDCHAR
STARTCHAR 2224
ENCODING 8740
SWIDTH 960 0
DWIDTH 16 0
BBX 21 16 -2 -2
BITMAP
000000
001800
001800
003800
006800
00d800
019800
030c00
060c00
060c00
0c0600
180600
300600
7fff00
000000
000000
ENDCHAR
STARTCHAR 2225
ENCODING 8741
SWIDTH 960 0
DWIDTH 16 0
BBX 21 16 -2 -2
BITMAP
000000
001800
001800
007800
007800
00fc00
01fc00
03fc00
03fe00
0ffc00
0ffe00
1fff00
3ffe00
7fff00
000000
000000
ENDCHAR
STARTCHAR 2226
ENCODING 8742
SWIDTH 960 0
DWIDTH 16 0
BBX 21 16 -2 -2
BITMAP
000000
000000
07fff0
0600c0
060180
060300
060300
030600
030c00
031800
033000
036000
034000
018000
018000
000000
ENDCHAR
STARTCHAR 2227
ENCODING 8743
SWIDTH 960 0
DWIDTH 16 0
BBX 21 16 -2 -2
BITMAP
000000
000000
07fff0
07ffc0
07ffc0
03ff80
07fe00
03fe00
03fc00
03f800
03f000
01e000
03c000
018000
018000
000000
ENDCHAR
STARTCHAR 2228
ENCODING 8744
SWIDTH 960 0
DWIDTH 16 0
BBX 21 16 -2 -2
BITMAP
000000
000000
031ce0
033980
018300
00ce00
00d800
0e7380
0ef380
01b000
031800
0e0c00
19cc00
31c600
000000
000000
ENDCHAR
STARTCHAR 2229
ENCODING 8745
SWIDTH 960 0
DWIDTH 16 0
BBX 21 16 -2 -2
BITMAP
000000
03ffe0
03ffe0
000000
000000
0fffe0
1fffc0
007000
007000
00e000
00e000
00e000
01c000
01c000
01c000
000000
ENDCHAR
STARTCHAR 222a
ENCODING 8746
SWIDTH 960 0
DWIDTH 16 0
BBX 21 16 -2 -2
BITMAP
000000
000000
000000
000000
000600
000300
000380
3fffe0
000780
000c00
001800
000000
000000
000000
000000
000000
ENDCHAR
STARTCHAR 222b
ENCODING 8747
SWIDTH 960 0
DWIDTH 16 0
BBX 21 16 -2 -2
BITMAP
000000
000000
000000
000000
00c000
038000
0e0000
3fffe0
0e0000
060000
030000
000000
000000
000000
000000
000000
ENDCHAR
STARTCHAR 222c
ENCODING 8748
SWIDTH 960 0
DWIDTH 16 0
BBX 21 16 -2 -2
BITMAP
001800
001800
003c00
007800
00d400
01b600
006000
006000
006000
00c000
00c000
00c000
018000
018000
018000
030000
ENDCHAR
STARTCHAR 222d
ENCODING 8749
SWIDTH 960 0
DWIDTH 16 0
BBX 21 16 -2 -2
BITMAP
001800
001800
001800
003000
003000
003000
006000
006000
006000
00c000
06d800
037000
03c000
03c000
018000
030000
ENDCHAR
STARTCHAR 222e
ENCODING 8750
SWIDTH 960 0
DWIDTH 16 0
BBX 21 16 -2 -2
BITMAP
000000
000000
000000
07ffe0
07ffe0
07ffe0
000000
000000
000000
000000
1fff80
1fff80
3fff00
000000
000000
000000
ENDCHAR
STARTCHAR 223a
ENCODING 8762
SWIDTH 960 0
DWIDTH 16 0
BBX 21 16 -2 -2
BITMAP
000000
000000
000000
00ff80
018000
030000
060000
07ff00
060000
060000
060000
03fe00
000000
000000
000000
000000
ENDCHAR
STARTCHAR 223b
ENCODING 8763
SWIDTH 960 0
DWIDTH 16 0
BBX 21 16 -2 -2
BITMAP
000000
000000
000000
03fe00
000300
000300
000300
07ff00
000300
000600
000c00
0ff800
000000
000000
000000
000000
ENDCHAR
STARTCHAR 223c
ENCODING 8764
SWIDTH 960 0
DWIDTH 16 0
BBX 21 16 -2 -2
BITMAP
000000
000000
01ffe0
030000
060000
060000
0c0000
0c0000
060000
03ff00
000000
000000
3ffe00
000000
000000
000000
ENDCHAR
STARTCHAR 223d
ENCODING 8765
SWIDTH 960 0
DWIDTH 16 0
BBX 21 16 -2 -2
BITMAP
000000
000000
03ff00
000180
0000c0
0000c0
000180
000180
000700
1ffc00
000000
000000
3ffe00
000000
000000
000000
ENDCHAR
STARTCHAR 223e
ENCODING 8766
SWIDTH 960 0
DWIDTH 16 0
BBX 21 16 -2 -2
BITMAP
000000
000000
000000
007fc0
01c000
030000
060000
0c0000
0c0000
0c0000
0c0000
070000
01fe00
000000
000000
000000
ENDCHAR
STARTCHAR 223f
ENCODING 8767
SWIDTH 960 0
DWIDTH 16 0
BBX 21 16 -2 -2
BITMAP
000000
000000
000000
07fc00
000700
000180
000180
000180
000180
000300
000600
001c00
3ff000
000000
000000
000000
ENDCHAR
STARTCHAR 2240
ENCODING 8768
SWIDTH 960 0
DWIDTH 16 0
BBX 21 16 -2 -2
BITMAP
000000
000000
0180c0
030180
030180
030180
060300
060300
060600
060600
060c00
061800
063000
03e000
000000
000000
ENDCHAR
STARTCHAR 2241
ENCODING 8769
SWIDTH 960 0
DWIDTH 16 0
BBX 21 16 -2 -2
BITMAP
000000
000000
007c00
00c600
018300
030300
030300
060300
060300
0c0600
0c0600
0c0600
180c00
180c00
000000
000000
ENDCHAR
STARTCHAR 224a
ENCODING 8778
SWIDTH 960 0
DWIDTH 16 0
BBX 21 16 -2 -2
BITMAP
000000
000000
000c00
001800
003400
006c00
006c00
00cc00
018c00
030c00
060600
0c0600
0c0600
180600
000000
000000
ENDCHAR
STARTCHAR 224b
ENCODING 8779
SWIDTH 960 0
DWIDTH 16 0
BBX 21 16 -2 -2
BITMAP
000000
000000
0180c0
0180c0
018180
018300
018300
018600
018c00
019800
00d000
00e000
006000
00c000
000000
000000
ENDCHAR
STARTCHAR 224c
ENCODING 8780
SWIDTH 960 0
DWIDTH 16 0
BBX 21 16 -2 -2
BITMAP
000000
000000
000000
000000
000000
000000
0fff80
000180
000180
000300
000300
000000
000000
000000
000000
000000
ENDCHAR
STARTCHAR 224d
ENCODING 8781
SWIDTH 960 0
DWIDTH 16 0
BBX 21 16 -2 -2
BITMAP
000000
000000
000000
000300
000180
1fffc0
0000c0
000060
0001c0
7fff00
000600
000c00
000000
000000
000000
000000
ENDCHAR
STARTCHAR 224e
ENCODING 8782
SWIDTH 960 0
DWIDTH 16 0
BBX 21 16 -2 -2
BITMAP
000000
000000
000000
018300
030180
0fffc0
1800c0
300060
1801c0
0fff00
0c0600
060c00
000000
000000
000000
000000
ENDCHAR
STARTCHAR 224f
ENCODING 8783
SWIDTH 960 0
DWIDTH 16 0
BBX 21 16 -2 -2
BITMAP
000000
030030
030060
030060
0300c0
03ff80
030300
018600
018c00
018c00
019800
01b000
01a000
00c000
00c000
000000
ENDCHAR
STARTCHAR 2250
ENCODING 8784
SWIDTH 960 0
DWIDTH 16 0
BBX 21 16 -2 -2
BITMAP
000000
000000
01ff80
000300
000300
000300
000600
07fe00
000600
000c00
000c00
000c00
1ff800
000000
000000
000000
ENDCHAR
STARTCHAR 225c
ENCODING 8796
SWIDTH 960 0
DWIDTH 16 0
BBX 21 16 -2 -2
BITMAP
000000
000000
0001c0
000300
000600
001c00
003000
006000
01c000
030000
060000
1c0000
37fe00
000000
000000
000000
ENDCHAR
STARTCHAR 225d
ENCODING 8797
SWIDTH 960 0
DWIDTH 16 0
BBX 21 16 -2 -2
BITMAP
000000
000000
001800
003000
003000
003000
006000
006000
006000
00c000
00c000
00c000
3ffe00
000000
000000
000000
ENDCHAR
STARTCHAR 225e
ENCODING 8798
SWIDTH 960 0
DWIDTH 16 0
BBX 21 16 -2 -2
BITMAP
007f00
03c1e0
060030
000000
000000
000000
000000
000000
000000
000000
000000
000000
000000
000000
000000
000000
ENDCHAR
STARTCHAR 225f
ENCODING 8799
SWIDTH 960 0
DWIDTH 16 0
BBX 21 16 -2 -2
BITMAP
000000
000e00
007b00
00c300
000300
000300
00f600
019c00
039c00
063800
0e3000
0e7000
06c000
030000
000000
000000
ENDCHAR
STARTCHAR 2260
ENCODING 8800
SWIDTH 960 0
DWIDTH 16 0
BBX 21 16 -2 -2
BITMAP
000000
07fff0
0300c0
0700c0
030180
030300
030300
038600
018c00
039800
01b000
01e000
01a000
00c000
000000
000000
ENDCHAR
STARTCHAR 2261
ENCODING 8801
SWIDTH 960 0
DWIDTH 16 0
BBX 21 16 -2 -2
BITMAP
000000
000000
000000
07ffc0
000000
000000
000000
0fff80
000000
000000
000000
1fff00
000000
000000
000000
000000
ENDCHAR
STARTCHAR 2262
ENCODING 8802
SWIDTH 960 0
DWIDTH 16 0
BBX 21 16 -2 -2
BITMAP
000000
000000
01c000
038000
000000
07ffc0
000000
000000
000000
1fff00
000000
000e00
001c00
000000
000000
000000
ENDCHAR
STARTCHAR 2263
ENCODING 8803
SWIDTH 960 0
DWIDTH 16 0
BBX 21 16 -2 -2
BITMAP
000000
000cc0
003980
006600
00cc00
039800
066000
0cc000
066000
066000
033000
019800
019800
00cc00
006600
000000
ENDCHAR
STARTCHAR 2264
ENCODING 8804
SWIDTH 960 0
DWIDTH 16 0
BBX 21 16 -2 -2
BITMAP
000000
019800
00cc00
00cc00
006600
003300
003300
001980
007300
00cc00
019800
073000
0cc000
198000
330000
000000
ENDCHAR
STARTCHAR 2265
ENCODING 8805
SWIDTH 960 0
DWIDTH 16 0
BBX 21 16 -2 -2
BITMAP
000ff8
000c00
001800
001800
003000
006000
006000
00c000
00c000
198000
198000
1d0000
3a0000
6e0000
180000
180000
ENDCHAR
STARTCHAR 2266
ENCODING 8806
SWIDTH 960 0
DWIDTH 16 0
BBX 21 16 -2 -2
BITMAP
000000
000000
000000
000000
03c780
061cc0
0c30c0
1830c0
1860c0
18c180
198300
0f1e00
000000
000000
000000
000000
ENDCHAR
STARTCHAR 2267
ENCODING 8807
SWIDTH 960 0
DWIDTH 16 0
BBX 21 16 -2 -2
BITMAP
000000
000000
000000
000000
03c780
066cc0
0c7000
187000
187000
18e000
19b300
0f1e00
000000
000000
000000
000000
ENDCHAR
STARTCHAR 2268
ENCODING 8808
SWIDTH 960 0
DWIDTH 16 0
BBX 21 16 -2 -2
BITMAP
000000
000000
000000
0701c0
0701c0
000000
000000
000000
000000
000000
000000
00e000
01c000
000000
000000
000000
ENDCHAR
STARTCHAR 2269
ENCODING 8809
SWIDTH 960 0
DWIDTH 16 0
BBX 21 16 -2 -2
BITMAP
001e00
003600
003000
006000
007000
007000
006000
007000
007000
006000
007000
007000
006000
006000
034000
078000
ENDCHAR
STARTCHAR 226a
ENCODING 8810
SWIDTH 960 0
DWIDTH 16 0
BBX 21 16 -2 -2
BITMAP
00f3c0
01b6c0
018600
030c00
038e00
038e00
030c00
038e00
038e00
030c00
038e00
038e00
030c00
030c00
1a6c00
3cf000
ENDCHAR
STARTCHAR 2272
ENCODING 8818
SWIDTH 960 0
DWIDTH 16 0
BBX 21 16 -2 -2
BITMAP
000e00
001b00
001a00
001c00
001800
001800
003800
006800
00d800
019800
01f800
031800
061800
0f3c00
000000
000000
ENDCHAR
STARTCHAR 2273
ENCODING 8819
SWIDTH 960 0
DWIDTH 16 0
BBX 21 16 -2 -2
BITMAP
000000
0000c0
01c380
034600
06c600
06cc00
0db800
0da000
07c000
036700
03d680
073580
1d6b00
336b00
61ce00
000000
ENDCHAR
STARTCHAR 2274
ENCODING 8820
SWIDTH 960 0
DWIDTH 16 0
BBX 21 16 -2 -2
BITMAP
000300
006300
006300
00c7c0
00ffc0
07fe00
0f8c00
018c00
018c00
031f00
03ff00
1ff800
3e3000
063000
063000
0c0000
ENDCHAR
STARTCHAR 2275
ENCODING 8821
SWIDTH 960 0
DWIDTH 16 0
BBX 21 16 -2 -2
BITMAP
006000
006000
006000
00c000
00c000
00c000
018000
01bc00
01ce00
031c00
031c00
033800
06e000
068000
070000
0c0000
ENDCHAR
STARTCHAR 2276
ENCODING 8822
SWIDTH 960 0
DWIDTH 16 0
BBX 21 16 -2 -2
BITMAP
000c00
000c00
000e00
001e00
001b00
001b00
003380
003180
003300
006600
006c00
006000
0fc000
1fc000
1f8000
1e0000
ENDCHAR
STARTCHAR 2277
ENCODING 8823
SWIDTH 960 0
DWIDTH 16 0
BBX 21 16 -2 -2
BITMAP
000c00
001e00
006d80
01ff80
00db00
001800
00fc00
007800
007800
00f000
00f000
00f000
00c000
00c000
00c000
018000
ENDCHAR
STARTCHAR 2278
ENCODING 8824
SWIDTH 960 0
DWIDTH 16 0
BBX 21 16 -2 -2
BITMAP
001800
003c00
00db00
03ff00
01b600
007800
00f000
006000
006000
01e000
01e000
06d800
1ff800
0db000
03c000
030000
ENDCHAR
STARTCHAR 2279
ENCODING 8825
SWIDTH 960 0
DWIDTH 16 0
BBX 21 16 -2 -2
BITMAP
000000
007f00
00fb00
03f600
03f600
01f600
01ec00
006c00
006c00
00d800
00d800
00d800
01b000
01b000
01b000
036000
ENDCHAR
STARTCHAR 227e
ENCODING 8830
SWIDTH 960 0
DWIDTH 16 0
BBX 21 16 -2 -2
BITMAP
003e00
00e380
0380c0
0600c0
0c0060
180060
180060
300060
3000c0
3000c0
300180
300300
300600
180c00
0e3800
03e000
ENDCHAR
STARTCHAR 2330
ENCODING 9008
SWIDTH 960 0
DWIDTH 16 0
BBX 21 16 -2 -2
BITMAP
000000
003e00
006300
00c300
018300
030300
060300
060300
060300
0c0600
0c0600
0c0c00
0c1800
063000
03e000
000000
ENDCHAR
STARTCHAR 2331
ENCODING 9009
SWIDTH 960 0
DWIDTH 16 0
BBX 21 16 -2 -2
BITMAP
000000
000c00
000c00
003800
006800
001800
003000
003000
003000
006000
006000
006000
00c000
00c000
01e000
000000
ENDCHAR
STARTCHAR 2332
ENCODING 9010
SWIDTH 960 0
DWIDTH 16 0
BBX 21 16 -2 -2
BITMAP
000000
003f00
006180
00c180
018180
000300
000600
000c00
003800
006000
00c000
018000
030000
060000
0ffc00
000000
ENDCHAR
STARTCHAR 2333
ENCODING 9011
SWIDTH 960 0
DWIDTH 16 0
BBX 21 16 -2 -2
BITMAP
000000
003e00
01e300
030300
000300
000600
001c00
00fc00
000600
000600
000600
000c00
181800
0e7000
03c000
000000
ENDCHAR
STARTCHAR 2334
ENCODING 9012
SWIDTH 960 0
DWIDTH 16 0
BBX 21 16 -2 -2
BITMAP
000000
000300
000300
000e00
001a00
007600
00cc00
018c00
030c00
061800
0fff00
001800
003000
003000
007800
000000
ENDCHAR
STARTCHAR 2335
ENCODING 9013
SWIDTH 960 0
DWIDTH 16 0
BBX 21 16 -2 -2
BITMAP
000000
00ffc0
00c000
018000
018000
018000
037c00
038600
030600
000600
000600
000c00
001800
0e7000
03c000
000000
ENDCHAR
STARTCHAR 2336
ENCODING 9014
SWIDTH 960 0
DWIDTH 16 0
BBX 21 16 -2 -2
BITMAP
000000
000f00
007800
00c000
018000
030000
037800
068c00
070600
0c0600
0c0600
0c0c00
0c1800
063000
03e000
000000
ENDCHAR
STARTCHAR 2337
ENCODING 9015
SWIDTH 960 0
DWIDTH 16 0
BBX 21 16 -2 -2
BITMAP
000000
01ffc0
0180c0
030180
030300
000600
000c00
001800
003000
003000
006000
00c000
00c000
018000
018000
000000
ENDCHAR
STARTCHAR 2338
ENCODING 9016
SWIDTH 960 0
DWIDTH 16 0
BBX 21 16 -2 -2
BITMAP
000000
003e00
00e300
018180
030180
030300
018e00
00f800
038c00
060c00
0c0600
0c0600
1c1c00
0e3800
03e000
000000
ENDCHAR
STARTCHAR 2339
ENCODING 9017
SWIDTH 960 0
DWIDTH 16 0
BBX 21 16 -2 -2
BITMAP
000000
003e00
00e300
018300
030180
030180
030300
030700
019e00
00f600
000c00
001800
003000
00e000
078000
000000
ENDCHAR
STARTCHAR 2341
ENCODING 9025
SWIDTH 960 0
DWIDTH 16 0
BBX 21 16 -2 -2
BITMAP
000000
000c00
000c00
001c00
003400
006c00
00cc00
018600
037e00
030c00
060600
0c0600
180600
3c0f00
000000
000000
ENDCHAR
STARTCHAR 2342
ENCODING 9026
SWIDTH 960 0
DWIDTH 16 0
BBX 21 16 -2 -2
BITMAP
000000
03ff00
00c180
018180
018180
018700
03fc00
030600
030300
060300
060300
060e00
0c3800
3fe000
000000
000000
ENDCHAR
STARTCHAR 2343
ENCODING 9027
SWIDTH 960 0
DWIDTH 16 0
BBX 21 16 -2 -2
BITMAP
000000
003ec0
00e340
018380
030180
060180
0c0000
0c0000
0c0000
0c0000
0c0600
0c0e00
0e3800
03e000
000000
000000
ENDCHAR
STARTCHAR 2344
ENCODING 9028
SWIDTH 960 0
DWIDTH 16 0
BBX 21 16 -2 -2
BITMAP
000000
03fc00
00c600
018300
018180
018180
030180
030180
030300
060300
060600
061c00
0c7000
3fc000
000000
000000
ENDCHAR
STARTCHAR 2345
ENCODING 9029
SWIDTH 960 0
DWIDTH 16 0
BBX 21 16 -2 -2
BITMAP
000000
03ffc0
00c0c0
0180c0
018000
018000
031800
03f800
031800
060000
060000
060300
0c0600
3ffc00
000000
000000
ENDCHAR
STARTCHAR 2346
ENCODING 9030
SWIDTH 960 0
DWIDTH 16 0
BBX 21 16 -2 -2
BITMAP
000000
01ffc0
0060c0
00c0c0
00c000
00c000
018c00
01fc00
018c00
030000
030000
030000
060000
1f8000
000000
000000
ENDCHAR
STARTCHAR 2347
ENCODING 9031
SWIDTH 960 0
DWIDTH 16 0
BBX 21 16 -2 -2
BITMAP
000000
003ec0
00e3c0
018180
030180
060000
0c0000
0c0000
0c0fc0
0c0600
0c0600
0c1e00
0e7400
03cc00
000000
000000
ENDCHAR
STARTCHAR 2348
ENCODING 9032
SWIDTH 960 0
DWIDTH 16 0
BBX 21 16 -2 -2
BITMAP
000000
03c1e0
0180c0
030180
030180
030180
060300
07ff00
060300
0c0600
0c0600
0c0600
180c00
3c1e00
000000
000000
ENDCHAR
STARTCHAR 2349
ENCODING 9033
SWIDTH 960 0
DWIDTH 16 0
BBX 21 16 -2 -2
BITMAP
000000
003c00
001800
003000
003000
003000
006000
006000
006000
00c000
00c000
00c000
018000
03c000
000000
000000
ENDCHAR
STARTCHAR 234a
ENCODING 9034
SWIDTH 960 0
DWIDTH 16 0
BBX 21 16 -2 -2
BITMAP
000000
000780
000300
000600
000600
000600
000c00
000c00
000c00
001800
001800
063000
066000
03c000
000000
000000
ENDCHAR
STARTCHAR 234b
ENCODING 9035
SWIDTH 960 0
DWIDTH 16 0
BBX 21 16 -2 -2
BITMAP
000000
01e1e0
00c300
018600
018c00
019800
033000
036000
03b000
063000
061800
060c00
0c0c00
1e0f00
000000
000000
ENDCHAR
STARTCHAR 234c
ENCODING 9036
SWIDTH 960 0
DWIDTH 16 0
BBX 21 16 -2 -2
BITMAP
000000
00f000
006000
00c000
00c000
00c000
018000
018000
018000
030000
030000
030300
060600
0ffe00
000000
000000
ENDCHAR
STARTCHAR 234d
ENCODING 9037
SWIDTH 960 0
DWIDTH 16 0
BBX 21 16 -2 -2
BITMAP
000000
0700e0
0300c0
070380
070380
070680
0d0d00
0d9b00
0db300
19b600
19a600
19c600
30cc00
799e00
000000
000000
ENDCHAR
STARTCHAR 234e
ENCODING 9038
SWIDTH 960 0
DWIDTH 16 0
BBX 21 16 -2 -2
BITMAP
000000
03c1e0
01c0c0
034180
034180
036180
066300
066300
063300
0c3600
0c3600
0c1a00
181c00
3c0c00
000000
000000
ENDCHAR
STARTCHAR 234f
ENCODING 9039
SWIDTH 960 0
DWIDTH 16 0
BBX 21 16 -2 -2
BITMAP
000000
003e00
00e380
018380
030180
060180
0c0180
0c0180
0c0300
0c0300
0c0600
0c0e00
0e3800
03e000
000000
000000
ENDCHAR
STARTCHAR 2350
ENCODING 9040
SWIDTH 960 0
DWIDTH 16 0
BBX 21 16 -2 -2
BITMAP
000000
01ff00
006180
00c0c0
00c0c0
00c180
018700
01fc00
018000
030000
030000
030000
060000
0f0000
000000
000000
ENDCHAR
STARTCHAR 2351
ENCODING 9041
SWIDTH 960 0
DWIDTH 16 0
BBX 21 16 -2 -2
BITMAP
000000
003e00
00e380
018380
030180
060180
0c0180
0c0180
0c0180
0c0300
0ce600
0db400
0e3000
03eb00
000e00
000000
ENDCHAR
STARTCHAR 2352
ENCODING 9042
SWIDTH 960 0
DWIDTH 16 0
BBX 21 16 -2 -2
BITMAP
000000
03fe00
00c300
018180
018180
018300
030e00
03f000
031800
061800
060c00
060c00
0c0c00
1e1e00
000000
000000
ENDCHAR
STARTCHAR 2353
ENCODING 9043
SWIDTH 960 0
DWIDTH 16 0
BBX 21 16 -2 -2
BITMAP
000000
003e80
006380
00c300
018000
018000
018000
00f800
000c00
000600
0c0600
0e0c00
1a1800
03f000
000000
000000
ENDCHAR
STARTCHAR 2354
ENCODING 9044
SWIDTH 960 0
DWIDTH 16 0
BBX 21 16 -2 -2
BITMAP
000000
03ffc0
0618c0
0c30c0
003000
003000
006000
006000
006000
00c000
00c000
00c000
018000
03c000
000000
000000
ENDCHAR
STARTCHAR 2355
ENCODING 9045
SWIDTH 960 0
DWIDTH 16 0
BBX 21 16 -2 -2
BITMAP
000000
03c1e0
0180c0
030180
030180
030180
060300
060300
060300
0c0600
0c0600
060c00
063800
03e000
000000
000000
ENDCHAR
STARTCHAR 2356
ENCODING 9046
SWIDTH 960 0
DWIDTH 16 0
BBX 21 16 -2 -2
BITMAP
000000
03c1e0
018180
018180
018300
018600
018600
018c00
019800
01b000
01a000
01c000
00c000
018000
000000
000000
ENDCHAR
STARTCHAR 2357
ENCODING 9047
SWIDTH 960 0
DWIDTH 16 0
BBX 21 16 -2 -2
BITMAP
000000
079cf0
031c60
0638c0
0638c0
066980
06d980
06db00
069b00
071a00
071a00
071c00
0c1800
0c1800
000000
000000
ENDCHAR
STARTCHAR 2358
ENCODING 9048
SWIDTH 960 0
DWIDTH 16 0
BBX 21 16 -2 -2
BITMAP
000000
03c3c0
018380
018600
00cc00
00d800
00d000
006000
00d000
01b000
033000
0e1800
181800
3c3c00
000000
000000
ENDCHAR
STARTCHAR 2359
ENCODING 9049
SWIDTH 960 0
DWIDTH 16 0
BBX 21 16 -2 -2
BITMAP
000000
03c3c0
018180
018300
018600
018c00
019800
00d000
00e000
00c000
00c000
00c000
018000
03c000
000000
000000
ENDCHAR
STARTCHAR 235a
ENCODING 9050
SWIDTH 960 0
DWIDTH 16 0
BBX 21 16 -2 -2
BITMAP
000000
00ffc0
018380
030600
000c00
001800
003000
006000
00c000
018000
030000
060600
0c0c00
1ffc00
000000
000000
ENDCHAR
STARTCHAR 2361
ENCODING 9057
SWIDTH 960 0
DWIDTH 16 0
BBX 21 16 -2 -2
BITMAP
000000
000000
000000
000000
000000
00f800
018c00
000c00
01ec00
033800
061800
067800
06dc00
039c00
000000
000000
ENDCHAR
STARTCHAR 2362
ENCODING 9058
SWIDTH 960 0
DWIDTH 16 0
BBX 21 16 -2 -2
BITMAP
000000
00e000
006000
00c000
00c000
00c000
01b800
01cc00
018c00
030c00
030c00
031800
073000
06e000
000000
000000
ENDCHAR
STARTCHAR 2363
ENCODING 9059
SWIDTH 960 0
DWIDTH 16 0
BBX 21 16 -2 -2
BITMAP
000000
000000
000000
000000
000000
00f000
019800
030c00
030000
060000
060000
063800
066000
03c000
000000
000000
ENDCHAR
STARTCHAR 2364
ENCODING 9060
SWIDTH 960 0
DWIDTH 16 0
BBX 21 16 -2 -2
BITMAP
000000
000700
000300
000600
000600
000600
00f400
019c00
030c00
061800
061800
061800
067000
03d800
000000
000000
ENDCHAR
STARTCHAR 2365
ENCODING 9061
SWIDTH 960 0
DWIDTH 16 0
BBX 21 16 -2 -2
BITMAP
000000
000000
000000
000000
000000
00f000
019800
030c00
030c00
07f800
060000
060000
063000
03e000
000000
000000
ENDCHAR
STARTCHAR 2366
ENCODING 9062
SWIDTH 960 0
DWIDTH 16 0
BBX 21 16 -2 -2
BITMAP
000000
000f80
001d80
003000
003000
01ff00
006000
006000
006000
00c000
00c000
00c000
018000
03c000
000000
000000
ENDCHAR
STARTCHAR 2367
ENCODING 9063
SWIDTH 960 0
DWIDTH 16 0
BBX 21 16 -2 -2
BITMAP
000000
000000
000000
000000
000000
007b00
00cc00
018c00
019800
01f000
030000
03f800
060c00
0c0c00
063c00
03e000
ENDCHAR
STARTCHAR 2368
ENCODING 9064
SWIDTH 960 0
DWIDTH 16 0
BBX 21 16 -2 -2
BITMAP
000000
00e000
006000
00c000
00c000
00f800
01cc00
018600
018600
030c00
030c00
030c00
061800
0f3c00
000000
000000
ENDCHAR
STARTCHAR 2369
ENCODING 9065
SWIDTH 960 0
DWIDTH 16 0
BBX 21 16 -2 -2
BITMAP
000000
001c00
001c00
000000
000000
003800
003000
003000
003000
006000
006000
006000
00c000
01e000
000000
000000
ENDCHAR
STARTCHAR 236a
ENCODING 9066
SWIDTH 960 0
DWIDTH 16 0
BBX 21 16 -2 -2
BITMAP
000000
000e00
000e00
000000
000000
001c00
001800
001800
001800
003000
003000
003000
006000
006000
0dc000
070000
ENDCHAR
STARTCHAR 236b
ENCODING 9067
SWIDTH 960 0
DWIDTH 16 0
BBX 21 16 -2 -2
BITMAP
000000
01c000
00c000
018000
018000
018f00
031800
037000
038000
06c000
066000
063000
0c3000
1e7c00
000000
000000
ENDCHAR
STARTCHAR 236c
ENCODING 9068
SWIDTH 960 0
DWIDTH 16 0
BBX 21 16 -2 -2
BITMAP
000000
003800
001800
003000
003000
003000
006000
006000
006000
00c000
00c000
00c000
018000
03c000
000000
000000
ENDCHAR
STARTCHAR 236d
ENCODING 9069
SWIDTH 960 0
DWIDTH 16 0
BBX 21 16 -2 -2
BITMAP
000000
000000
000000
000000
000000
03f600
037b00
033300
033300
066600
066600
066600
0ccc00
1eee00
000000
000000
ENDCHAR
STARTCHAR 236e
ENCODING 9070
SWIDTH 960 0
DWIDTH 16 0
BBX 21 16 -2 -2
BITMAP
000000
000000
000000
000000
000000
01de00
01ae00
01c600
018600
030c00
030c00
030c00
061800
0f3c00
000000
000000
ENDCHAR
STARTCHAR 236f
ENCODING 9071
SWIDTH 960 0
DWIDTH 16 0
BBX 21 16 -2 -2
BITMAP
000000
000000
000000
000000
000000
00f800
018c00
030600
030600
060c00
060c00
061800
063000
03e000
000000
000000
ENDCHAR
STARTCHAR 2370
ENCODING 9072
SWIDTH 960 0
DWIDTH 16 0
BBX 21 16 -2 -2
BITMAP
000000
000000
000000
000000
000000
01f800
01cc00
018600
018600
030c00
030c00
03b800
06e000
060000
060000
1e0000
ENDCHAR
STARTCHAR 2371
ENCODING 9073
SWIDTH 960 0
DWIDTH 16 0
BBX 21 16 -2 -2
BITMAP
000000
000000
000000
000000
000000
00f700
019c00
030c00
030c00
061800
061800
037800
01d000
003000
003000
00f000
ENDCHAR
STARTCHAR 2372
ENCODING 9074
SWIDTH 960 0
DWIDTH 16 0
BBX 21 16 -2 -2
BITMAP
000000
000000
000000
000000
000000
00ef00
00d600
00e000
00c000
018000
018000
018000
030000
078000
000000
000000
ENDCHAR
STARTCHAR 2373
ENCODING 9075
SWIDTH 960 0
DWIDTH 16 0
BBX 21 16 -2 -2
BITMAP
000000
000000
000000
000000
000000
007b00
00ce00
018600
00e000
003000
001800
031800
071800
06f000
000000
000000
ENDCHAR
STARTCHAR 2374
ENCODING 9076
SWIDTH 960 0
DWIDTH 16 0
BBX 21 16 -2 -2
BITMAP
000000
000000
003000
006000
006000
03fe00
00c000
00c000
00c000
018000
018000
018000
03a000
01e000
000000
000000
ENDCHAR
STARTCHAR 2375
ENCODING 9077
SWIDTH 960 0
DWIDTH 16 0
BBX 21 16 -2 -2
BITMAP
000000
000000
000000
000000
000000
01c700
018600
018600
018600
030c00
030c00
030c00
033800
01ec00
000000
000000
ENDCHAR
STARTCHAR 2376
ENCODING 9078
SWIDTH 960 0
DWIDTH 16 0
BBX 21 16 -2 -2
BITMAP
000000
000000
000000
000000
000000
03cf00
030c00
030c00
031800
033000
01a000
01c000
00c000
018000
000000
000000
ENDCHAR
STARTCHAR 2377
ENCODING 9079
SWIDTH 960 0
DWIDTH 16 0
BBX 21 16 -2 -2
BITMAP
000000
000000
000000
000000
000000
07b3c0
066300
067300
067600
06d600
06b400
073800
033000
063000
000000
000000
ENDCHAR
STARTCHAR 2378
ENCODING 9080
SWIDTH 960 0
DWIDTH 16 0
BBX 21 16 -2 -2
BITMAP
000000
000000
000000
000000
000000
01c700
018c00
00d800
00d000
00e000
01b000
071800
0c1800
1e3c00
000000
000000
ENDCHAR
STARTCHAR 2379
ENCODING 9081
SWIDTH 960 0
DWIDTH 16 0
BBX 21 16 -2 -2
BITMAP
000000
000000
000000
000000
000000
01e780
018600
018600
018c00
019800
00d000
00e000
006000
00c000
0d8000
060000
ENDCHAR
STARTCHAR 237a
ENCODING 9082
SWIDTH 960 0
DWIDTH 16 0
BBX 21 16 -2 -2
BITMAP
000000
000000
000000
000000
000000
01ff00
030c00
001800
003000
006000
00c000
038c00
061800
0ff800
000000
000000
ENDCHAR
STARTCHAR 2421
ENCODING 9249
SWIDTH 960 0
DWIDTH 16 0
BBX 21 16 -2 -2
BITMAP
000000
000000
000000
006000
006c00
01f000
00d800
00fc00
00da00
03b600
06a600
0dcc00
0f1800
0db000
006000
000000
ENDCHAR
STARTCHAR 2422
ENCODING 9250
SWIDTH 960 0
DWIDTH 16 0
BBX 21 16 -2 -2
BITMAP
003000
001800
019f00
00f800
006000
00cc00
00fe00
019b00
07b180
0d6180
1b4180
1b8300
1a8600
1c1c00
007000
000000
ENDCHAR
STARTCHAR 2423
ENCODING 9251
SWIDTH 960 0
DWIDTH 16 0
BBX 21 16 -2 -2
BITMAP
000000
000000
000000
000000
000000
000000
030000
018000
030600
030600
060300
060700
068600
070000
030000
000000
ENDCHAR
STARTCHAR 2424
ENCODING 9252
SWIDTH 960 0
DWIDTH 16 0
BBX 21 16 -2 -2
BITMAP
000000
000000
000000
030000
018300
030180
030180
060180
060180
0cc180
0d8380
070180
030000
060000
000000
000000
ENDCHAR
STARTCHAR 2425
ENCODING 9253
SWIDTH 960 0
DWIDTH 16 0
BBX 21 16 -2 -2
BITMAP
000000
000000
000000
003000
001c00
000000
000000
01b800
00ec00
000c00
000c00
001800
003000
006000
00c000
000000
ENDCHAR
STARTCHAR 2426
ENCODING 9254
SWIDTH 960 0
DWIDTH 16 0
BBX 21 16 -2 -2
BITMAP
001800
000f00
000000
000000
019e00
00f300
000300
000300
000600
000600
000c00
001800
003000
006000
01c000
030000
ENDCHAR
STARTCHAR 2427
ENCODING 9255
SWIDTH 960 0
DWIDTH 16 0
BBX 21 16 -2 -2
BITMAP
000000
000000
000000
000000
006000
003800
000000
000000
037c00
01b000
006000
01c000
074000
0cc000
18c000
007800
ENDCHAR
STARTCHAR 2428
ENCODING 9256
SWIDTH 960 0
DWIDTH 16 0
BBX 21 16 -2 -2
BITMAP
003000
001800
000e00
000000
019f00
00f600
001800
003000
00e000
01a000
033000
0e3000
183000
303000
001e00
000000
ENDCHAR
STARTCHAR 2429
ENCODING 9257
SWIDTH 960 0
DWIDTH 16 0
BBX 21 16 -2 -2
BITMAP
000000
000000
000000
000000
006000
006000
035a00
01e380
00c000
01b800
01cc00
078c00
1d6c00
073800
030000
000000
ENDCHAR
STARTCHAR 242a
ENCODING 9258
SWIDTH 960 0
DWIDTH 16 0
BBX 21 16 -2 -2
BITMAP
00c000
006000
006180
00d8c0
00f060
07c0f0
018000
01be00
01e300
030300
070300
3b0600
3a6c00
0e3800
060000
000000
ENDCHAR
STARTCHAR 242b
ENCODING 9259
SWIDTH 960 0
DWIDTH 16 0
BBX 21 16 -2 -2
BITMAP
000000
00c000
00c000
00c300
00c180
06f180
039980
0198c0
0319c0
033180
063000
0c6000
1a6000
334000
018000
000000
ENDCHAR
STARTCHAR 242c
ENCODING 9260
SWIDTH 960 0
DWIDTH 16 0
BBX 21 16 -2 -2
BITMAP
000000
00c030
00c068
00c350
00c180
06f180
039980
0198c0
0319c0
033180
063000
0c6000
1a6000
334000
018000
000000
ENDCHAR
STARTCHAR 242d
ENCODING 9261
SWIDTH 960 0
DWIDTH 16 0
BBX 21 16 -2 -2
BITMAP
001800
000cc0
000f80
00fc00
000cc0
001f80
03f400
000600
000e00
01fa00
030e00
060000
060000
030000
01f000
000000
ENDCHAR
STARTCHAR 242e
ENCODING 9262
SWIDTH 960 0
DWIDTH 16 0
BBX 21 16 -2 -2
BITMAP
001860
0019b0
001f50
03f800
001980
003f00
0fe800
000c00
001c00
03f400
061c00
0c0000
0c0000
060000
03e000
000000
ENDCHAR
STARTCHAR 242f
ENCODING 9263
SWIDTH 960 0
DWIDTH 16 0
BBX 21 16 -2 -2
BITMAP
000300
000300
000600
000c00
001800
007000
00c000
018000
00c000
00c000
006000
006000
006000
003000
003000
000000
ENDCHAR
STARTCHAR 2430
ENCODING 9264
SWIDTH 960 0
DWIDTH 16 0
BBX 21 16 -2 -2
BITMAP
000300
000300
000660
000d60
0019a0
007180
00c000
018000
00c000
00c000
006000
006000
006000
003000
003000
000000
ENDCHAR
STARTCHAR 2431
ENCODING 9265
SWIDTH 960 0
DWIDTH 16 0
BBX 21 16 -2 -2
BITMAP
000300
030300
030180
030300
0303e0
067f00
0c0600
0c0600
0c0600
180c00
1a0c00
1c1800
181800
003000
00e000
018000
ENDCHAR
STARTCHAR 2432
ENCODING 9266
SWIDTH 960 0
DWIDTH 16 0
BBX 21 16 -2 -2
BITMAP
000330
030358
0303a8
030340
0303e0
067f00
0c0600
0c0600
0c0600
180c00
1a0c00
1c1800
181800
003000
00e000
018000
ENDCHAR
STARTCHAR 2433
ENCODING 9267
SWIDTH 960 0
DWIDTH 16 0
BBX 21 16 -2 -2
BITMAP
000000
000000
006000
003f80
000600
000c00
000000
000000
000000
0c0000
0c0000
0c0000
0c0600
07fc00
000000
000000
ENDCHAR
STARTCHAR 2434
ENCODING 9268
SWIDTH 960 0
DWIDTH 16 0
BBX 21 16 -2 -2
BITMAP
000060
0001b0
0060d0
003f80
000600
000c00
000000
000000
000000
0c0000
0c0000
0c0000
0c0600
07fc00
000000
000000
ENDCHAR
STARTCHAR 2435
ENCODING 9269
SWIDTH 960 0
DWIDTH 16 0
BBX 21 16 -2 -2
BITMAP
001800
000c00
000de0
018f00
00fa00
000600
000600
000600
01fb00
030e00
060000
060000
060000
038000
00f800
000000
ENDCHAR
STARTCHAR 2436
ENCODING 9270
SWIDTH 960 0
DWIDTH 16 0
BBX 21 16 -2 -2
BITMAP
001800
000c30
000dd8
018f50
00fac0
000600
000600
000600
01fb00
030e00
060000
060000
060000
038000
00f800
000000
ENDCHAR
STARTCHAR 2437
ENCODING 9271
SWIDTH 960 0
DWIDTH 16 0
BBX 21 16 -2 -2
BITMAP
000000
018000
018000
018000
018000
018000
030000
030000
030000
060000
060000
060e00
061800
067000
03c000
000000
ENDCHAR
STARTCHAR 2438
ENCODING 9272
SWIDTH 960 0
DWIDTH 16 0
BBX 21 16 -2 -2
BITMAP
000000
018000
018180
018d80
018680
018600
030000
030000
030000
060000
060000
060e00
061800
067000
03c000
000000
ENDCHAR
STARTCHAR 2439
ENCODING 9273
SWIDTH 960 0
DWIDTH 16 0
BBX 21 16 -2 -2
BITMAP
000c00
000600
0307f0
01fc00
000c00
000c00
00f800
01d800
018c00
01b800
00e800
003000
003000
006000
01c000
030000
ENDCHAR
STARTCHAR 243a
ENCODING 9274
SWIDTH 960 0
DWIDTH 16 0
BBX 21 16 -2 -2
BITMAP
001830
000c18
060fe8
03f8c0
001800
001800
01f000
03b000
031800
037000
01d000
006000
006000
00c000
038000
060000
ENDCHAR
STARTCHAR 243b
ENCODING 9275
SWIDTH 960 0
DWIDTH 16 0
BBX 21 16 -2 -2
BITMAP
000000
000600
00c600
00c600
00c7e0
0cfe00
07cc00
018c00
018c00
033800
031800
030000
030000
01fc00
000000
000000
ENDCHAR
STARTCHAR 243c
ENCODING 9276
SWIDTH 960 0
DWIDTH 16 0
BBX 21 16 -2 -2
BITMAP
000030
0006d8
00c668
00c6c0
00c7e0
0cfe00
07cc00
018c00
018c00
033800
031800
030000
030000
01fc00
000000
000000
ENDCHAR
STARTCHAR 243d
ENCODING 9277
SWIDTH 960 0
DWIDTH 16 0
BBX 21 16 -2 -2
BITMAP
000000
006f00
003a00
000c00
001800
007000
00cf80
01f800
0f7000
00c000
018000
018000
018000
018000
00f000
000000
ENDCHAR
STARTCHAR 243e
ENCODING 9278
SWIDTH 960 0
DWIDTH 16 0
BBX 21 16 -2 -2
BITMAP
000060
006fb0
003bb0
000d80
001800
007000
00cf80
01f800
0f7000
00c000
018000
018000
018000
018000
00f000
000000
ENDCHAR
STARTCHAR 243f
ENCODING 9279
SWIDTH 960 0
DWIDTH 16 0
BBX 21 16 -2 -2
BITMAP
00c000
006000
006e00
00d800
00e000
07c000
030f00
033b80
060600
060000
0c0000
18c000
18c000
30c000
307e00
000000
ENDCHAR
STARTCHAR 2440
ENCODING 9280
SWIDTH 960 0
DWIDTH 16 0
BBX 21 16 -2 -2
BITMAP
00c060
0061b0
006eb0
00d980
00e000
07c000
030f00
033b80
060600
060000
0c0000
18c000
18c000
30c000
307e00
000000
ENDCHAR
STARTCHAR 2441
ENCODING 9281
SWIDTH 960 0
DWIDTH 16 0
BBX 21 16 -2 -2
BITMAP
006000
003000
003780
067c00
03e000
006000
00c000
01be00
01e300
030300
060300
000600
000c00
003800
03e000
000000
ENDCHAR
STARTCHAR 2442
ENCODING 9282
SWIDTH 960 0
DWIDTH 16 0
BBX 21 16 -2 -2
BITMAP
006060
0031b0
0037b0
067d80
03e000
006000
00c000
01be00
01e300
030300
060300
000600
000c00
003800
03e000
000000
ENDCHAR
STARTCHAR 2443
ENCODING 9283
SWIDTH 960 0
DWIDTH 16 0
BBX 21 16 -2 -2
BITMAP
000000
000000
000000
000000
000000
000000
000000
000000
00fc00
078600
000600
000c00
001800
007000
01c000
000000
ENDCHAR
STARTCHAR 2444
ENCODING 9284
SWIDTH 960 0
DWIDTH 16 0
BBX 21 16 -2 -2
BITMAP
000000
000000
000000
000f00
007980
0dc0c0
0600c0
0000c0
000180
000300
000600
001c00
01f000
000000
000000
000000
ENDCHAR
STARTCHAR 2445
ENCODING 9285
SWIDTH 960 0
DWIDTH 16 0
BBX 21 16 -2 -2
BITMAP
000030
0000d8
0000d8
000f40
007980
0dc0c0
0600c0
0000c0
000180
000300
000600
001c00
01f000
000000
000000
000000
ENDCHAR
STARTCHAR 2446
ENCODING 9286
SWIDTH 960 0
DWIDTH 16 0
BBX 21 16 -2 -2
BITMAP
000000
0001f0
067f80
03c600
000c00
001800
003000
006000
006000
00c000
00c000
006000
006000
003c00
000000
000000
ENDCHAR
STARTCHAR 2447
ENCODING 9287
SWIDTH 960 0
DWIDTH 16 0
BBX 21 16 -2 -2
BITMAP
000000
0000f0
067f80
03c660
000db0
0019b0
003180
006000
006000
00c000
00c000
006000
006000
003c00
000000
000000
ENDCHAR
STARTCHAR 2448
ENCODING 9288
SWIDTH 960 0
DWIDTH 16 0
BBX 21 16 -2 -2
BITMAP
000000
006000
006000
006000
006180
0063c0
006e00
006800
00f000
018000
030000
060000
060000
060000
03fe00
000000
ENDCHAR
STARTCHAR 2449
ENCODING 9289
SWIDTH 960 0
DWIDTH 16 0
BBX 21 16 -2 -2
BITMAP
000000
00c060
00c1b0
00c1a0
00c180
00c780
00dc00
00d000
01e000
030000
060000
0c0000
0c0000
0c0000
07fc00
000000
ENDCHAR
STARTCHAR 244a
ENCODING 9290
SWIDTH 960 0
DWIDTH 16 0
BBX 21 16 -2 -2
BITMAP
006000
003600
003c00
07e300
00c1c0
018360
018600
030c00
060c00
0c1800
181800
01f800
033c00
063600
03e000
000000
ENDCHAR
STARTCHAR 244b
ENCODING 9291
SWIDTH 960 0
DWIDTH 16 0
BBX 21 16 -2 -2
BITMAP
000000
030000
030000
030f80
0339c0
060300
060000
0c0000
0c0000
180000
18c000
18c000
34c000
387e00
180000
000000
ENDCHAR
STARTCHAR 244c
ENCODING 9292
SWIDTH 960 0
DWIDTH 16 0
BBX 21 16 -2 -2
BITMAP
000000
001800
001800
031800
037f00
03d180
073180
0660c0
0ec0c0
1a8180
330180
371d00
3b3600
336d00
003800
000000
ENDCHAR
STARTCHAR 244d
ENCODING 9293
SWIDTH 960 0
DWIDTH 16 0
BBX 21 16 -2 -2
BITMAP
018000
00c000
00c000
01af00
0dd980
07f180
034180
038180
030180
0e0300
0e1f00
1a3300
743700
1c1c00
0c0000
000000
ENDCHAR
STARTCHAR 244e
ENCODING 9294
SWIDTH 960 0
DWIDTH 16 0
BBX 21 16 -2 -2
BITMAP
000000
000000
003e00
00eb00
019980
033180
063180
0c60c0
0cc180
0d8180
0d0300
0e0e00
001800
007000
000000
000000
ENDCHAR
STARTCHAR 244f
ENCODING 9295
SWIDTH 960 0
DWIDTH 16 0
BBX 21 16 -2 -2
BITMAP
000300
030180
030180
030300
0363e0
063f00
060600
0c0600
0c0600
180c00
180c00
1efc00
399e00
1b1b00
19f000
000000
ENDCHAR
STARTCHAR 2450
ENCODING 9296
SWIDTH 960 0
DWIDTH 16 0
BBX 21 16 -2 -2
BITMAP
000330
0301d8
0301a8
030340
0363e0
063f00
060600
0c0600
0c0600
180c00
180c00
1efc00
399e00
1b1b00
19f000
000000
ENDCHAR
STARTCHAR 2451
ENCODING 9297
SWIDTH 960 0
DWIDTH 16 0
BBX 21 16 -2 -2
BITMAP
000300
0301a0
0301d0
0303b0
0363e0
063f00
060600
0c0600
0c0600
180c00
180c00
1efc00
399e00
1b1b00
19f000
000000
ENDCHAR
STARTCHAR 2452
ENCODING 9298
SWIDTH 960 0
DWIDTH 16 0
BBX 21 16 -2 -2
BITMAP
000000
000300
003300
01e700
0f4300
030300
030700
060680
0c06c0
0c0c00
180c00
181800
183000
0ce000
078000
000000
ENDCHAR
STARTCHAR 2453
ENCODING 9299
SWIDTH 960 0
DWIDTH 16 0
BBX 21 16 -2 -2
BITMAP
000030
000358
003358
01e740
0f4300
030300
030700
060680
0c06c0
0c0c00
180c00
181800
183000
0ce000
078000
000000
ENDCHAR
STARTCHAR 2454
ENCODING 9300
SWIDTH 960 0
DWIDTH 16 0
BBX 21 16 -2 -2
BITMAP
000000
000360
003350
01e750
0f4360
030300
030700
060680
0c06c0
0c0c00
180c00
181800
183000
0ce000
078000
000000
ENDCHAR
STARTCHAR 2455
ENCODING 9301
SWIDTH 960 0
DWIDTH 16 0
BBX 21 16 -2 -2
BITMAP
000000
003000
001e00
000c00
001800
003000
003000
003000
003600
033300
361980
3c1bc0
363000
036000
01c000
000000
ENDCHAR
STARTCHAR 2456
ENCODING 9302
SWIDTH 960 0
DWIDTH 16 0
BBX 21 16 -2 -2
BITMAP
000060
0031b0
001eb0
000d80
001800
003000
003000
003000
003600
033300
361980
3c1bc0
363000
036000
01c000
000000
ENDCHAR
STARTCHAR 2457
ENCODING 9303
SWIDTH 960 0
DWIDTH 16 0
BBX 21 16 -2 -2
BITMAP
000000
0030c0
001ea0
000da0
0018c0
003000
003000
003000
003600
033300
361980
3c1bc0
363000
036000
01c000
000000
ENDCHAR
STARTCHAR 2458
ENCODING 9304
SWIDTH 960 0
DWIDTH 16 0
BBX 21 16 -2 -2
BITMAP
000000
000000
000000
000000
007000
00d800
019800
030c00
1a0600
1c0300
0001c0
000000
000000
000000
000000
000000
ENDCHAR
STARTCHAR 2459
ENCODING 9305
SWIDTH 960 0
DWIDTH 16 0
BBX 21 16 -2 -2
BITMAP
000000
0000c0
000340
000340
007300
00d800
019800
030c00
1a0600
1c0300
0001c0
000000
000000
000000
000000
000000
ENDCHAR
STARTCHAR 245a
ENCODING 9306
SWIDTH 960 0
DWIDTH 16 0
BBX 21 16 -2 -2
BITMAP
000000
000000
0001c0
000340
0076c0
00db80
019800
030c00
1a0600
1c0300
0001c0
000000
000000
000000
000000
000000
ENDCHAR
STARTCHAR 245b
ENCODING 9307
SWIDTH 960 0
DWIDTH 16 0
BBX 21 16 -2 -2
BITMAP
000000
0318e0
030f80
030300
030300
0603e0
06fe00
0c0600
0c0600
180c00
180c00
1efc00
399e00
1b1b00
19f000
000000
ENDCHAR
STARTCHAR 245c
ENCODING 9308
SWIDTH 960 0
DWIDTH 16 0
BBX 21 16 -2 -2
BITMAP
000030
0318e8
030fa8
030300
030300
0603e0
06fe00
0c0600
0c0600
180c00
180c00
1efc00
399e00
1b1b00
19f000
000000
ENDCHAR
STARTCHAR 245d
ENCODING 9309
SWIDTH 960 0
DWIDTH 16 0
BBX 21 16 -2 -2
BITMAP
000070
0318d8
030fd0
030360
030300
0603e0
06fe00
0c0600
0c0600
180c00
180c00
1efc00
399e00
1b1b00
19f000
000000
ENDCHAR
STARTCHAR 245e
ENCODING 9310
SWIDTH 960 0
DWIDTH 16 0
BBX 21 16 -2 -2
BITMAP
000c00
000600
0187c0
00fc00
000c00
000c00
061e00
03f800
001800
003000
03f000
063c00
0c6600
1c6000
07c000
000000
ENDCHAR
STARTCHAR 245f
ENCODING 9311
SWIDTH 960 0
DWIDTH 16 0
BBX 21 16 -2 -2
BITMAP
000000
000000
00cc00
007800
003000
003300
006300
01fb00
0f8f00
198700
330d80
361c00
343000
186000
00c000
000000
ENDCHAR
STARTCHAR 2460
ENCODING 9312
SWIDTH 960 0
DWIDTH 16 0
BBX 21 16 -2 -2
BITMAP
00c000
006000
037c00
01c380
00c0c0
00c0e0
078000
0d8000
0d0600
1b0600
1a0600
0e0600
0c0c00
0c1800
07f000
000000
ENDCHAR
STARTCHAR 2461
ENCODING 9313
SWIDTH 960 0
DWIDTH 16 0
BBX 21 16 -2 -2
BITMAP
000000
000c00
000c00
030c00
033e00
03eb00
073180
073180
0d4180
1b4180
318180
378300
358600
180c00
003800
000000
ENDCHAR
STARTCHAR 2462
ENCODING 9314
SWIDTH 960 0
DWIDTH 16 0
BBX 21 16 -2 -2
BITMAP
003000
001800
00d800
007000
003c00
03a000
0ec000
074600
03f600
030600
030600
030c00
031800
033000
01e000
000000
ENDCHAR
STARTCHAR 2463
ENCODING 9315
SWIDTH 960 0
DWIDTH 16 0
BBX 21 16 -2 -2
BITMAP
000000
000000
000000
000000
001800
00ce00
018000
01bc00
00e600
1b8600
0d8c00
01b800
018000
018000
018000
000000
ENDCHAR
STARTCHAR 2464
ENCODING 9316
SWIDTH 960 0
DWIDTH 16 0
BBX 21 16 -2 -2
BITMAP
000000
000c00
000700
01c700
018000
018f80
01b8c0
1bc0c0
0ec180
00c300
00de00
00c000
00c000
00c000
00c000
018000
ENDCHAR
STARTCHAR 2465
ENCODING 9317
SWIDTH 960 0
DWIDTH 16 0
BBX 21 16 -2 -2
BITMAP
000000
000000
000000
000000
003000
001800
0c7c00
06d600
07b600
0e6600
0e6c00
0da800
19f000
00c000
038000
060000
ENDCHAR
STARTCHAR 2466
ENCODING 9318
SWIDTH 960 0
DWIDTH 16 0
BBX 21 16 -2 -2
BITMAP
000000
001c00
000600
0c1f00
063580
06ecc0
0d98c0
0d18c0
0e1980
1db300
18d600
187c00
006000
00c000
018000
000000
ENDCHAR
STARTCHAR 2467
ENCODING 9319
SWIDTH 960 0
DWIDTH 16 0
BBX 21 16 -2 -2
BITMAP
000000
000000
000000
000000
006000
006000
006c00
007800
006000
00c000
00c000
07c000
0de000
19b800
0f0000
000000
ENDCHAR
STARTCHAR 2468
ENCODING 9320
SWIDTH 960 0
DWIDTH 16 0
BBX 21 16 -2 -2
BITMAP
001800
000c00
000c00
0019c0
001f00
001800
003000
003000
003000
006000
0fe000
187800
30cc00
318600
1f0000
000000
ENDCHAR
STARTCHAR 2469
ENCODING 9321
SWIDTH 960 0
DWIDTH 16 0
BBX 21 16 -2 -2
BITMAP
001800
000c00
001f00
003000
00c000
018000
030000
033e00
03e300
070300
060300
060600
001c00
007000
03c000
000000
ENDCHAR
STARTCHAR 246a
ENCODING 9322
SWIDTH 960 0
DWIDTH 16 0
BBX 21 16 -2 -2
BITMAP
018000
00de00
00d300
01a300
01c300
01c300
030600
030600
030c00
060c00
001800
003000
006000
00c000
038000
060000
ENDCHAR
STARTCHAR 246b
ENCODING 9323
SWIDTH 960 0
DWIDTH 16 0
BBX 21 16 -2 -2
BITMAP
000000
006f00
003a00
000c00
001800
003000
00fc00
01c600
070300
0c0300
000300
01c600
034c00
067800
03e000
000000
ENDCHAR
STARTCHAR 246c
ENCODING 9324
SWIDTH 960 0
DWIDTH 16 0
BBX 21 16 -2 -2
BITMAP
00c000
006000
006000
00ce00
00db00
0dd300
06c600
018600
018600
070c00
070c00
0d0dc0
3a0d00
6e0600
060000
000000
ENDCHAR
STARTCHAR 246d
ENCODING 9325
SWIDTH 960 0
DWIDTH 16 0
BBX 21 16 -2 -2
BITMAP
000000
006f00
003a00
000c00
001800
003000
00fe00
01c300
070300
0c0300
000300
000600
001c00
007000
03c000
000000
ENDCHAR
STARTCHAR 246e
ENCODING 9326
SWIDTH 960 0
DWIDTH 16 0
BBX 21 16 -2 -2
BITMAP
000000
000000
000000
000000
018000
018000
018000
01dc00
07e600
038600
030600
0f0c00
1a1800
067000
060000
0c0000
ENDCHAR
STARTCHAR 246f
ENCODING 9327
SWIDTH 960 0
DWIDTH 16 0
BBX 21 16 -2 -2
BITMAP
018000
00c000
00c000
01a000
0dc000
07be00
036300
038180
030180
0e0180
0e0300
1a0600
741c00
1c7000
0c0000
000000
ENDCHAR
STARTCHAR 2470
ENCODING 9328
SWIDTH 960 0
DWIDTH 16 0
BBX 21 16 -2 -2
BITMAP
000000
00c600
007e00
001800
001800
003e00
01e300
036180
0ec180
18c180
318180
373b00
346e00
18cd00
007800
000000
ENDCHAR
STARTCHAR 2471
ENCODING 9329
SWIDTH 960 0
DWIDTH 16 0
BBX 21 16 -2 -2
BITMAP
000000
00df00
006c00
003000
007c00
01c600
030600
06c600
01ac00
01b000
01e000
070000
0d7800
39cc00
601e00
000000
ENDCHAR
STARTCHAR 2472
ENCODING 9330
SWIDTH 960 0
DWIDTH 16 0
BBX 21 16 -2 -2
BITMAP
003000
001800
019f00
00f000
006180
0061e0
01f700
031c00
0e3800
18d000
01b000
033000
030000
030000
01fc00
000000
ENDCHAR
STARTCHAR 2473
ENCODING 9331
SWIDTH 960 0
DWIDTH 16 0
BBX 21 16 -2 -2
BITMAP
001800
000c00
001800
001800
003000
006000
006000
01b000
01d000
033000
063000
0c31c0
183300
303600
301c00
000000
ENDCHAR
STARTCHAR 2521
ENCODING 9505
SWIDTH 960 0
DWIDTH 16 0
BBX 21 16 -2 -2
BITMAP
000000
000000
000000
000000
000000
000000
063e00
03ec00
001800
00f000
00c000
00c000
018000
030000
060000
000000
ENDCHAR
STARTCHAR 2522
ENCODING 9506
SWIDTH 960 0
DWIDTH 16 0
BBX 21 16 -2 -2
BITMAP
000000
000000
030fe0
01f8c0
000180
006700
006c00
007800
006000
00c000
00c000
018000
030000
060000
0c0000
000000
ENDCHAR
STARTCHAR 2523
ENCODING 9507
SWIDTH 960 0
DWIDTH 16 0
BBX 21 16 -2 -2
BITMAP
000000
000000
000000
000000
000300
000600
000c00
001800
007000
01d000
073000
003000
006000
006000
006000
000000
ENDCHAR
STARTCHAR 2524
ENCODING 9508
SWIDTH 960 0
DWIDTH 16 0
BBX 21 16 -2 -2
BITMAP
000000
000180
000300
000600
000c00
003000
007800
00d800
039800
1e3000
003000
003000
006000
006000
006000
000000
ENDCHAR
STARTCHAR 2525
ENCODING 9509
SWIDTH 960 0
DWIDTH 16 0
BBX 21 16 -2 -2
BITMAP
000000
000000
000000
000000
001800
001800
003000
033f00
03f600
030600
030c00
031800
003000
006000
00c000
000000
ENDCHAR
STARTCHAR 2526
ENCODING 9510
SWIDTH 960 0
DWIDTH 16 0
BBX 21 16 -2 -2
BITMAP
000000
001800
001800
001800
031fc0
03f180
030180
030300
030600
060600
000c00
003800
006000
00c000
018000
000000
ENDCHAR
STARTCHAR 2527
ENCODING 9511
SWIDTH 960 0
DWIDTH 16 0
BBX 21 16 -2 -2
BITMAP
000000
000000
000000
000000
000000
000000
000000
000000
007c00
07c000
00c000
00c000
018000
03f000
1e1800
000000
ENDCHAR
STARTCHAR 2528
ENCODING 9512
SWIDTH 960 0
DWIDTH 16 0
BBX 21 16 -2 -2
BITMAP
000000
000000
000000
000780
03fc00
003000
003000
003000
003000
006000
006000
03fe00
7e0300
000000
000000
000000
ENDCHAR
STARTCHAR 2529
ENCODING 9513
SWIDTH 960 0
DWIDTH 16 0
BBX 21 16 -2 -2
BITMAP
000000
000000
000000
000000
000000
000c00
001800
031f00
01f800
007000
00d000
03b000
066000
0c6000
00e000
00c000
ENDCHAR
STARTCHAR 252a
ENCODING 9514
SWIDTH 960 0
DWIDTH 16 0
BBX 21 16 -2 -2
BITMAP
000000
000300
000300
0307e0
01fe00
000600
001c00
001c00
003400
00e800
019800
071800
1c3000
007000
003000
000000
ENDCHAR
STARTCHAR 252b
ENCODING 9515
SWIDTH 960 0
DWIDTH 16 0
BBX 21 16 -2 -2
BITMAP
000000
001800
001800
001800
031fc0
01f8c0
003180
006180
00c180
00c300
018600
070c00
0c6c00
183800
303000
000000
ENDCHAR
STARTCHAR 252c
ENCODING 9516
SWIDTH 960 0
DWIDTH 16 0
BBX 21 16 -2 -2
BITMAP
000030
0018d8
001868
0018c0
031fc0
01f8c0
003180
006180
00c180
00c300
018600
070c00
0c6c00
183800
303000
000000
ENDCHAR
STARTCHAR 252d
ENCODING 9517
SWIDTH 960 0
DWIDTH 16 0
BBX 21 16 -2 -2
BITMAP
000000
003000
003000
003380
003e00
03f000
003000
0033c0
007e00
01d000
1f3000
003000
003000
003000
003000
000000
ENDCHAR
STARTCHAR 252e
ENCODING 9518
SWIDTH 960 0
DWIDTH 16 0
BBX 21 16 -2 -2
BITMAP
000000
003060
0031b0
0033a0
003e80
03f000
003000
0033c0
007e00
01d000
1f3000
003000
003000
003000
003000
000000
ENDCHAR
STARTCHAR 252f
ENCODING 9519
SWIDTH 960 0
DWIDTH 16 0
BBX 21 16 -2 -2
BITMAP
000000
003000
0033c0
003e80
003180
006300
00c300
018600
070c00
0c1800
003000
00e000
018000
030000
060000
000000
ENDCHAR
STARTCHAR 2530
ENCODING 9520
SWIDTH 960 0
DWIDTH 16 0
BBX 21 16 -2 -2
BITMAP
000030
0060d8
0067a8
007d40
006300
00c600
018600
030c00
0e1800
183000
006000
01c000
030000
060000
0c0000
000000
ENDCHAR
STARTCHAR 2531
ENCODING 9521
SWIDTH 960 0
DWIDTH 16 0
BBX 21 16 -2 -2
BITMAP
000000
00c000
00c000
00c3e0
00fe00
018c00
018c00
030c00
0e1800
181800
003000
00e000
018000
030000
060000
000000
ENDCHAR
STARTCHAR 2532
ENCODING 9522
SWIDTH 960 0
DWIDTH 16 0
BBX 21 16 -2 -2
BITMAP
000030
00c0d8
00c068
00c3c0
00fe00
018c00
018c00
030c00
0e1800
181800
003000
00e000
018000
030000
060000
000000
ENDCHAR
STARTCHAR 2533
ENCODING 9523
SWIDTH 960 0
DWIDTH 16 0
BBX 21 16 -2 -2
BITMAP
000000
000000
000000
061f80
03f180
000180
000300
000300
000600
000c00
000c00
03fc00
1e1800
000000
000000
000000
ENDCHAR
STARTCHAR 2534
ENCODING 9524
SWIDTH 960 0
DWIDTH 16 0
BBX 21 16 -2 -2
BITMAP
000030
0000d8
000068
061fc0
03f180
000180
000300
000300
000600
000c00
000c00
03fc00
1e1800
000000
000000
000000
ENDCHAR
STARTCHAR 2535
ENCODING 9525
SWIDTH 960 0
DWIDTH 16 0
BBX 21 16 -2 -2
BITMAP
000300
006180
006180
006300
066fe0
03fb00
00c600
00c600
00cc00
018c00
001800
003000
006000
00c000
018000
000000
ENDCHAR
STARTCHAR 2536
ENCODING 9526
SWIDTH 960 0
DWIDTH 16 0
BBX 21 16 -2 -2
BITMAP
000330
0061d8
0061a8
006340
066fe0
03fb00
00c600
00c600
00cc00
018c00
001800
003000
006000
00c000
018000
000000
ENDCHAR
STARTCHAR 2537
ENCODING 9527
SWIDTH 960 0
DWIDTH 16 0
BBX 21 16 -2 -2
BITMAP
000000
000000
00c000
006000
000000
000000
0700c0
018180
000700
000c00
001800
007000
00c000
1b8000
0e0000
000000
ENDCHAR
STARTCHAR 2538
ENCODING 9528
SWIDTH 960 0
DWIDTH 16 0
BBX 21 16 -2 -2
BITMAP
000030
0000d8
00c0d8
0060c0
000000
000000
0700c0
018180
000700
000c00
001800
007000
00c000
1b8000
0e0000
000000
ENDCHAR
STARTCHAR 2539
ENCODING 9529
SWIDTH 960 0
DWIDTH 16 0
BBX 21 16 -2 -2
BITMAP
000000
000000
000000
031e00
01f600
000c00
000c00
001800
003000
007000
00d800
038c00
060c00
1c0600
700600
000000
ENDCHAR
STARTCHAR 253a
ENCODING 9530
SWIDTH 960 0
DWIDTH 16 0
BBX 21 16 -2 -2
BITMAP
000000
000060
0003a0
031ea0
01f680
000c00
000c00
001800
003000
007000
00d800
038c00
060c00
1c0600
700600
000000
ENDCHAR
STARTCHAR 253b
ENCODING 9531
SWIDTH 960 0
DWIDTH 16 0
BBX 21 16 -2 -2
BITMAP
000000
006000
006000
006000
0063e0
007ec0
0ce180
07c300
00ce00
019800
018000
018000
018000
00fe00
000000
000000
ENDCHAR
STARTCHAR 253c
ENCODING 9532
SWIDTH 960 0
DWIDTH 16 0
BBX 21 16 -2 -2
BITMAP
000030
00c0d8
00c068
00c0c0
00c7c0
00fd80
19c300
0f8600
019c00
033000
030000
030000
030000
01fc00
000000
000000
ENDCHAR
STARTCHAR 253d
ENCODING 9533
SWIDTH 960 0
DWIDTH 16 0
BBX 21 16 -2 -2
BITMAP
000000
0000c0
0180c0
0180c0
00c0c0
00c180
018300
000600
000c00
001800
003000
00e000
018000
030000
060000
000000
ENDCHAR
STARTCHAR 253e
ENCODING 9534
SWIDTH 960 0
DWIDTH 16 0
BBX 21 16 -2 -2
BITMAP
000030
000358
0303d8
030340
018300
018600
030c00
000c00
001800
003000
006000
01c000
030000
060000
0c0000
000000
ENDCHAR
STARTCHAR 253f
ENCODING 9535
SWIDTH 960 0
DWIDTH 16 0
BBX 21 16 -2 -2
BITMAP
000000
006000
0067c0
007d80
006180
00c300
018600
037400
0e3c00
183000
006000
01c000
030000
0e0000
380000
000000
ENDCHAR
STARTCHAR 2540
ENCODING 9536
SWIDTH 960 0
DWIDTH 16 0
BBX 21 16 -2 -2
BITMAP
000030
0060d8
006068
007f40
006300
00c600
038600
06ec00
1c6800
306000
00c000
038000
060000
1c0000
700000
000000
ENDCHAR
STARTCHAR 2541
ENCODING 9537
SWIDTH 960 0
DWIDTH 16 0
BBX 21 16 -2 -2
BITMAP
000000
000180
000700
01fc00
001800
001800
001fc0
0cf800
079800
003000
003000
006000
00c000
018000
030000
000000
ENDCHAR
STARTCHAR 2542
ENCODING 9538
SWIDTH 960 0
DWIDTH 16 0
BBX 21 16 -2 -2
BITMAP
000030
000198
000f58
01f8c0
001800
001800
001fc0
0cf800
079800
003000
003000
006000
00c000
018000
030000
000000
ENDCHAR
STARTCHAR 2543
ENCODING 9539
SWIDTH 960 0
DWIDTH 16 0
BBX 21 16 -2 -2
BITMAP
000000
000000
000000
000000
000000
000000
00cc00
066600
066c00
060c00
001800
007000
00c000
018000
030000
000000
ENDCHAR
STARTCHAR 2544
ENCODING 9540
SWIDTH 960 0
DWIDTH 16 0
BBX 21 16 -2 -2
BITMAP
000000
000000
0030c0
0630c0
0318c0
031980
033180
030300
000600
000c00
001800
003000
00e000
018000
070000
000000
ENDCHAR
STARTCHAR 2545
ENCODING 9541
SWIDTH 960 0
DWIDTH 16 0
BBX 21 16 -2 -2
BITMAP
000030
0000d8
0060d8
0c6340
063180
063300
066300
060600
000c00
001800
003000
006000
01c000
030000
0e0000
000000
ENDCHAR
STARTCHAR 2546
ENCODING 9542
SWIDTH 960 0
DWIDTH 16 0
BBX 21 16 -2 -2
BITMAP
000000
000000
00cf80
007800
000000
000000
000fc0
0c7800
07d000
003000
006000
00c000
018000
030000
060000
000000
ENDCHAR
STARTCHAR 2547
ENCODING 9543
SWIDTH 960 0
DWIDTH 16 0
BBX 21 16 -2 -2
BITMAP
000060
0001b0
00cfb0
007980
000000
000000
000fc0
0c7800
07d000
003000
006000
00c000
018000
030000
060000
000000
ENDCHAR
STARTCHAR 2548
ENCODING 9544
SWIDTH 960 0
DWIDTH 16 0
BBX 21 16 -2 -2
BITMAP
000000
006000
006000
006000
006000
006000
00f000
00dc00
00c600
018600
018000
018000
030000
030000
030000
060000
ENDCHAR
STARTCHAR 2549
ENCODING 9545
SWIDTH 960 0
DWIDTH 16 0
BBX 21 16 -2 -2
BITMAP
000000
006060
0061b0
0061a0
006180
006000
00f000
00dc00
00c600
018600
018000
018000
030000
030000
030000
060000
ENDCHAR
STARTCHAR 254a
ENCODING 9546
SWIDTH 960 0
DWIDTH 16 0
BBX 21 16 -2 -2
BITMAP
000000
000c00
000c00
000c00
000c00
060fe0
03f800
001800
003000
003000
006000
00c000
018000
030000
060000
000000
ENDCHAR
STARTCHAR 254b
ENCODING 9547
SWIDTH 960 0
DWIDTH 16 0
BBX 21 16 -2 -2
BITMAP
000000
000000
000000
000000
018f00
00f800
000000
000000
000000
000000
000000
00fe00
3f8300
000000
000000
000000
ENDCHAR
STARTCHAR 254c
ENCODING 9548
SWIDTH 960 0
DWIDTH 16 0
BBX 21 16 -2 -2
BITMAP
000000
000000
00cfc0
007980
000180
000300
01c600
007400
003800
003800
006c00
01c600
030600
0e0000
380000
000000
ENDCHAR
STARTCHAR 254d
ENCODING 9549
SWIDTH 960 0
DWIDTH 16 0
BBX 21 16 -2 -2
BITMAP
001800
000c00
000c00
031f80
01f300
000600
000c00
001800
00f600
03a300
1e6180
006000
00c000
00c000
00c000
000000
ENDCHAR
STARTCHAR 254e
ENCODING 9550
SWIDTH 960 0
DWIDTH 16 0
BBX 21 16 -2 -2
BITMAP
000000
000180
000180
000180
000180
000300
000600
000c00
001800
003000
006000
01c000
030000
060000
0c0000
000000
ENDCHAR
STARTCHAR 254f
ENCODING 9551
SWIDTH 960 0
DWIDTH 16 0
BBX 21 16 -2 -2
BITMAP
000000
000000
000000
000000
000c00
00c600
00c600
00c300
018300
030300
060300
1c0300
300300
600300
000000
000000
ENDCHAR
STARTCHAR 2550
ENCODING 9552
SWIDTH 960 0
DWIDTH 16 0
BBX 21 16 -2 -2
BITMAP
000000
000060
0001a0
0001a0
00cd80
00c600
00c600
018300
030300
030300
060300
1c0300
300300
600300
000000
000000
ENDCHAR
STARTCHAR 2551
ENCODING 9553
SWIDTH 960 0
DWIDTH 16 0
BBX 21 16 -2 -2
BITMAP
000000
0000c0
0001a0
0001a0
00ccc0
00c600
00c600
018300
030300
030300
060300
1c0300
300300
600300
000000
000000
ENDCHAR
STARTCHAR 2552
ENCODING 9554
SWIDTH 960 0
DWIDTH 16 0
BBX 21 16 -2 -2
BITMAP
000000
030000
030000
030000
030000
030f00
067800
07c000
060000
0c0000
0c0000
0c0000
0c0000
07fc00
000000
000000
ENDCHAR
STARTCHAR 2553
ENCODING 9555
SWIDTH 960 0
DWIDTH 16 0
BBX 21 16 -2 -2
BITMAP
000000
030060
0301b0
0301a0
030180
031e00
067000
07c000
060000
0c0000
0c0000
0c0000
0c0000
07fc00
000000
000000
ENDCHAR
STARTCHAR 2554
ENCODING 9556
SWIDTH 960 0
DWIDTH 16 0
BBX 21 16 -2 -2
BITMAP
000000
060180
060340
060340
060180
063c00
0ce000
0f8000
0c0000
180000
180000
180000
180000
0ff800
000000
000000
ENDCHAR
STARTCHAR 2555
ENCODING 9557
SWIDTH 960 0
DWIDTH 16 0
BBX 21 16 -2 -2
BITMAP
000000
000000
030fe0
01f8c0
0000c0
000180
000300
000600
000c00
001800
003000
006000
01c000
030000
0e0000
000000
ENDCHAR
STARTCHAR 2556
ENCODING 9558
SWIDTH 960 0
DWIDTH 16 0
BBX 21 16 -2 -2
BITMAP
000030
0000d8
061fd8
03f340
000300
000600
000c00
001800
003000
006000
00c000
018000
070000
0c0000
380000
000000
ENDCHAR
STARTCHAR 2557
ENCODING 9559
SWIDTH 960 0
DWIDTH 16 0
BBX 21 16 -2 -2
BITMAP
000070
0000d8
030fd0
01f9e0
000180
000300
000600
000c00
001800
003000
006000
00c000
038000
060000
1c0000
000000
ENDCHAR
STARTCHAR 2558
ENCODING 9560
SWIDTH 960 0
DWIDTH 16 0
BBX 21 16 -2 -2
BITMAP
000000
000000
000000
000000
003000
00e800
019800
030c00
1a0600
1c0600
000300
0001c0
000000
000000
000000
000000
ENDCHAR
STARTCHAR 2559
ENCODING 9561
SWIDTH 960 0
DWIDTH 16 0
BBX 21 16 -2 -2
BITMAP
000000
000000
000060
000360
0031a0
00e980
019800
030c00
1a0600
1c0600
000300
0001c0
000000
000000
000000
000000
ENDCHAR
STARTCHAR 255a
ENCODING 9562
SWIDTH 960 0
DWIDTH 16 0
BBX 21 16 -2 -2
BITMAP
000000
000000
0000e0
0001a0
003360
00e9c0
019800
030c00
1a0600
1c0600
000300
0001c0
000000
000000
000000
000000
ENDCHAR
STARTCHAR 255b
ENCODING 9563
SWIDTH 960 0
DWIDTH 16 0
BBX 21 16 -2 -2
BITMAP
000000
001800
001800
001800
061fc0
03f800
003000
003600
033300
036300
066180
0c6180
18c000
31c000
00c000
000000
ENDCHAR
STARTCHAR 255c
ENCODING 9564
SWIDTH 960 0
DWIDTH 16 0
BBX 21 16 -2 -2
BITMAP
000030
0018d8
001868
0018c0
061fc0
03f800
003000
003600
033300
036300
066180
0c6180
18c000
31c000
00c000
000000
ENDCHAR
STARTCHAR 255d
ENCODING 9565
SWIDTH 960 0
DWIDTH 16 0
BBX 21 16 -2 -2
BITMAP
001870
000cd8
000cd0
061fe0
03f800
001800
003600
01b300
033180
036180
066180
1c6000
31c000
00c000
000000
000000
ENDCHAR
STARTCHAR 255e
ENCODING 9566
SWIDTH 960 0
DWIDTH 16 0
BBX 21 16 -2 -2
BITMAP
000000
000000
000000
060fc0
03f8c0
000180
000300
000600
039c00
00d000
006000
003000
003000
003000
000000
000000
ENDCHAR
STARTCHAR 255f
ENCODING 9567
SWIDTH 960 0
DWIDTH 16 0
BBX 21 16 -2 -2
BITMAP
000000
007000
001c00
000600
000300
000000
01c000
007000
001800
001800
0c0000
070000
018000
00e000
003000
003000
ENDCHAR
STARTCHAR 2560
ENCODING 9568
SWIDTH 960 0
DWIDTH 16 0
BBX 21 16 -2 -2
BITMAP
000000
001800
001800
001800
001800
003000
003400
006600
00c600
00c600
019f00
1bf300
0d0300
000300
000300
000000
ENDCHAR
STARTCHAR 2561
ENCODING 9569
SWIDTH 960 0
DWIDTH 16 0
BBX 21 16 -2 -2
BITMAP
000000
000180
000180
000180
000180
00e300
003600
001c00
000e00
001a00
003300
00e000
018000
070000
1c0000
000000
ENDCHAR
STARTCHAR 2562
ENCODING 9570
SWIDTH 960 0
DWIDTH 16 0
BBX 21 16 -2 -2
BITMAP
000000
000000
019f80
00f000
006000
006000
00c000
18ff80
0fc000
018000
018000
018000
018000
00fc00
000000
000000
ENDCHAR
STARTCHAR 2563
ENCODING 9571
SWIDTH 960 0
DWIDTH 16 0
BBX 21 16 -2 -2
BITMAP
000000
000000
000000
000000
000000
018000
018000
019f00
00f600
1b8c00
0e9800
018000
018000
00c000
00c000
018000
ENDCHAR
STARTCHAR 2564
ENCODING 9572
SWIDTH 960 0
DWIDTH 16 0
BBX 21 16 -2 -2
BITMAP
000000
00c000
00c000
00c1e0
006f40
06f180
034300
006600
006c00
006000
006000
006000
006000
006000
006000
000000
ENDCHAR
STARTCHAR 2565
ENCODING 9573
SWIDTH 960 0
DWIDTH 16 0
BBX 21 16 -2 -2
BITMAP
000000
000000
000000
000000
000000
000000
000000
000000
00f800
07b000
003000
00e000
01b800
3f0c00
000000
000000
ENDCHAR
STARTCHAR 2566
ENCODING 9574
SWIDTH 960 0
DWIDTH 16 0
BBX 21 16 -2 -2
BITMAP
000000
000000
000000
000000
018f00
00fb00
000600
000600
000c00
001800
001800
03fe00
3e0300
000000
000000
000000
ENDCHAR
STARTCHAR 2567
ENCODING 9575
SWIDTH 960 0
DWIDTH 16 0
BBX 21 16 -2 -2
BITMAP
000000
000000
000000
000000
000000
000000
003e00
03e600
000c00
000c00
007800
03d800
003000
00f000
0f9800
000000
ENDCHAR
STARTCHAR 2568
ENCODING 9576
SWIDTH 960 0
DWIDTH 16 0
BBX 21 16 -2 -2
BITMAP
000000
000000
003fc0
03e180
000180
000300
000300
003e00
03e600
000c00
000c00
000c00
00f800
1f8c00
000000
000000
ENDCHAR
STARTCHAR 2569
ENCODING 9577
SWIDTH 960 0
DWIDTH 16 0
BBX 21 16 -2 -2
BITMAP
000000
018f80
00f800
000000
000000
000fc0
0cf980
078180
000300
000600
000c00
003800
006000
01c000
070000
000000
ENDCHAR
STARTCHAR 256a
ENCODING 9578
SWIDTH 960 0
DWIDTH 16 0
BBX 21 16 -2 -2
BITMAP
000300
00c180
00c180
00c300
00c300
00c300
018600
018600
018c00
030c00
001800
003000
006000
00c000
018000
000000
ENDCHAR
STARTCHAR 256b
ENCODING 9579
SWIDTH 960 0
DWIDTH 16 0
BBX 21 16 -2 -2
BITMAP
000000
000c00
000c00
018c00
00cc00
00cc60
019860
0198c0
019980
033300
033600
063c00
0c7000
186000
300000
000000
ENDCHAR
STARTCHAR 256c
ENCODING 9580
SWIDTH 960 0
DWIDTH 16 0
BBX 21 16 -2 -2
BITMAP
000000
00c000
00c000
00c000
00c000
00c000
018000
018000
018380
030600
030c00
033800
06e000
078000
060000
000000
ENDCHAR
STARTCHAR 256d
ENCODING 9581
SWIDTH 960 0
DWIDTH 16 0
BBX 21 16 -2 -2
BITMAP
000000
000000
030000
031fc0
03f0c0
0300c0
030180
030180
030300
060600
060600
06fe00
0f8600
0c0000
000000
000000
ENDCHAR
STARTCHAR 256e
ENCODING 9582
SWIDTH 960 0
DWIDTH 16 0
BBX 21 16 -2 -2
BITMAP
000000
000000
000000
000000
000000
000000
031f00
01f300
018600
030600
030c00
003800
006000
00c000
018000
000000
ENDCHAR
STARTCHAR 256f
ENCODING 9583
SWIDTH 960 0
DWIDTH 16 0
BBX 21 16 -2 -2
BITMAP
000000
000000
000000
060fc0
03f8c0
030180
030180
030300
030600
060600
000c00
003800
006000
00c000
018000
000000
ENDCHAR
STARTCHAR 2570
ENCODING 9584
SWIDTH 960 0
DWIDTH 16 0
BBX 21 16 -2 -2
BITMAP
000000
000c00
000c00
000c00
061fc0
03f400
031800
031800
031800
037f00
3fd180
003000
006000
006000
006000
000000
ENDCHAR
STARTCHAR 2571
ENCODING 9585
SWIDTH 960 0
DWIDTH 16 0
BBX 21 16 -2 -2
BITMAP
000000
000000
000000
031f80
01f300
000e00
006800
006000
006000
00c000
00c000
01fc00
7f0600
000000
000000
000000
ENDCHAR
STARTCHAR 2572
ENCODING 9586
SWIDTH 960 0
DWIDTH 16 0
BBX 21 16 -2 -2
BITMAP
000000
000000
00c7e0
007cc0
0000c0
000180
001e80
01f300
000600
000c00
001800
007000
01c000
0f0000
000000
000000
ENDCHAR
STARTCHAR 2573
ENCODING 9587
SWIDTH 960 0
DWIDTH 16 0
BBX 21 16 -2 -2
BITMAP
000000
000000
000000
038000
00c060
0060c0
0000c0
000180
000700
000c00
001800
007000
00c000
1b8000
0e0000
000000
ENDCHAR
STARTCHAR 2574
ENCODING 9588
SWIDTH 960 0
DWIDTH 16 0
BBX 21 16 -2 -2
BITMAP
000030
0018d8
001868
0018c0
031fc0
03f180
030180
030300
030600
060600
000c00
003800
006000
00c000
018000
000000
ENDCHAR
STARTCHAR 2575
ENCODING 9589
SWIDTH 960 0
DWIDTH 16 0
BBX 21 16 -2 -2
BITMAP
000000
000000
000000
000000
003000
003000
006000
067e00
03e600
00cc00
018c00
031800
063000
0cd000
186000
000000
ENDCHAR
STARTCHAR 2576
ENCODING 9590
SWIDTH 960 0
DWIDTH 16 0
BBX 21 16 -2 -2
BITMAP
000000
000000
000000
000000
00c000
00c000
00cf00
00f800
019800
031800
063000
006000
00c000
018000
030000
000000
ENDCHAR
STARTCHAR 2621
ENCODING 9761
SWIDTH 960 0
DWIDTH 16 0
BBX 21 16 -2 -2
BITMAP
000000
000c00
000c00
001c00
003400
006c00
00cc00
018600
037e00
030c00
060600
0c0600
180600
3c0f00
000000
000000
ENDCHAR
STARTCHAR 2622
ENCODING 9762
SWIDTH 960 0
DWIDTH 16 0
BBX 21 16 -2 -2
BITMAP
000000
03ff00
00c180
018180
018180
018700
03fc00
030600
030300
060300
060300
060e00
0c3800
3fe000
000000
000000
ENDCHAR
STARTCHAR 2623
ENCODING 9763
SWIDTH 960 0
DWIDTH 16 0
BBX 21 16 -2 -2
BITMAP
000000
01ffc0
0060c0
00c0c0
00c000
00c000
018000
018000
018000
030000
030000
030000
060000
0f0000
000000
000000
ENDCHAR
STARTCHAR 2624
ENCODING 9764
SWIDTH 960 0
DWIDTH 16 0
BBX 21 16 -2 -2
BITMAP
000000
001800
001800
003800
006800
00d800
019800
030c00
060c00
060c00
0c0c00
180c00
300c00
7ffe00
000000
000000
ENDCHAR
STARTCHAR 2625
ENCODING 9765
SWIDTH 960 0
DWIDTH 16 0
BBX 21 16 -2 -2
BITMAP
000000
03ffc0
00c0c0
0180c0
018000
018000
031800
03f800
031800
060000
060000
060300
0c0600
3ffc00
000000
000000
ENDCHAR
STARTCHAR 2626
ENCODING 9766
SWIDTH 960 0
DWIDTH 16 0
BBX 21 16 -2 -2
BITMAP
000000
00ffc0
018380
030600
000c00
001800
003000
006000
00c000
018000
030000
060600
0c0c00
1ffc00
000000
000000
ENDCHAR
STARTCHAR 2627
ENCODING 9767
SWIDTH 960 0
DWIDTH 16 0
BBX 21 16 -2 -2
BITMAP
000000
03c1e0
0180c0
030180
030180
030180
060300
07ff00
060300
0c0600
0c0600
0c0600
180c00
3c1e00
000000
000000
ENDCHAR
STARTCHAR 2628
ENCODING 9768
SWIDTH 960 0
DWIDTH 16 0
BBX 21 16 -2 -2
BITMAP
000000
003e00
00e380
018380
030180
060180
0d8d80
0dfd80
0d8d00
0c0300
0c0600
0c0e00
0e3800
03e000
000000
000000
ENDCHAR
STARTCHAR 2629
ENCODING 9769
SWIDTH 960 0
DWIDTH 16 0
BBX 21 16 -2 -2
BITMAP
000000
003c00
001800
003000
003000
003000
006000
006000
006000
00c000
00c000
00c000
018000
03c000
000000
000000
ENDCHAR
STARTCHAR 262a
ENCODING 9770
SWIDTH 960 0
DWIDTH 16 0
BBX 21 16 -2 -2
BITMAP
000000
01e1e0
00c300
018600
018c00
019800
033000
036000
03b000
063000
061800
060c00
0c0c00
1e0f00
000000
000000
ENDCHAR
STARTCHAR 262b
ENCODING 9771
SWIDTH 960 0
DWIDTH 16 0
BBX 21 16 -2 -2
BITMAP
000000
000c00
000c00
001c00
003400
006c00
00cc00
018600
030600
030600
060600
0c0600
180600
3c0f00
000000
000000
ENDCHAR
STARTCHAR 262c
ENCODING 9772
SWIDTH 960 0
DWIDTH 16 0
BBX 21 16 -2 -2
BITMAP
000000
0700e0
0300c0
070380
070380
070680
0d0d00
0d9b00
0db300
19b600
19a600
19c600
30cc00
799e00
000000
000000
ENDCHAR
STARTCHAR 262d
ENCODING 9773
SWIDTH 960 0
DWIDTH 16 0
BBX 21 16 -2 -2
BITMAP
000000
03c1e0
01c0c0
034180
034180
036180
066300
066300
063300
0c3600
0c3600
0c1a00
181c00
3c0c00
000000
000000
ENDCHAR
STARTCHAR 262e
ENCODING 9774
SWIDTH 960 0
DWIDTH 16 0
BBX 21 16 -2 -2
BITMAP
000000
03ffe0
030060
000000
000000
000000
060300
07ff00
060300
000000
000000
000000
300600
3ffe00
000000
000000
ENDCHAR
STARTCHAR 262f
ENCODING 9775
SWIDTH 960 0
DWIDTH 16 0
BBX 21 16 -2 -2
BITMAP
000000
003e00
00e380
018380
030180
060180
0c0180
0c0180
0c0300
0c0300
0c0600
0c0e00
0e3800
03e000
000000
000000
ENDCHAR
STARTCHAR 2630
ENCODING 9776
SWIDTH 960 0
DWIDTH 16 0
BBX 21 16 -2 -2
BITMAP
000000
01ffc0
00c180
018300
018300
018300
030600
030600
030600
060c00
060c00
060c00
0c1800
1e3c00
000000
000000
ENDCHAR
STARTCHAR 2631
ENCODING 9777
SWIDTH 960 0
DWIDTH 16 0
BBX 21 16 -2 -2
BITMAP
000000
01ff00
006180
00c0c0
00c0c0
00c180
018700
01fc00
018000
030000
030000
030000
060000
0f0000
000000
000000
ENDCHAR
STARTCHAR 2632
ENCODING 9778
SWIDTH 960 0
DWIDTH 16 0
BBX 21 16 -2 -2
BITMAP
000000
01ff80
00c180
00c180
006000
003000
003000
003800
006000
00c000
018000
070600
0c0c00
1ffc00
000000
000000
ENDCHAR
STARTCHAR 2633
ENCODING 9779
SWIDTH 960 0
DWIDTH 16 0
BBX 21 16 -2 -2
BITMAP
000000
03ffc0
0618c0
0c30c0
003000
003000
006000
006000
006000
00c000
00c000
00c000
018000
03c000
000000
000000
ENDCHAR
STARTCHAR 2634
ENCODING 9780
SWIDTH 960 0
DWIDTH 16 0
BBX 21 16 -2 -2
BITMAP
000000
00f3c0
039a60
061860
001800
001800
003000
003000
003000
006000
006000
006000
00c000
01e000
000000
000000
ENDCHAR
STARTCHAR 2635
ENCODING 9781
SWIDTH 960 0
DWIDTH 16 0
BBX 21 16 -2 -2
BITMAP
000000
001e00
000c00
007e00
01db80
031980
033180
063180
063300
066300
076e00
01f800
00c000
01e000
000000
000000
ENDCHAR
STARTCHAR 2636
ENCODING 9782
SWIDTH 960 0
DWIDTH 16 0
BBX 21 16 -2 -2
BITMAP
000000
03c3c0
018380
018600
00cc00
00d800
00d000
006000
00d000
01b000
033000
0e1800
181800
3c3c00
000000
000000
ENDCHAR
STARTCHAR 2637
ENCODING 9783
SWIDTH 960 0
DWIDTH 16 0
BBX 21 16 -2 -2
BITMAP
000000
003c00
0e18e0
1b31a0
033300
033300
066600
066600
066e00
06d800
03f000
00c000
018000
03c000
000000
000000
ENDCHAR
STARTCHAR 2638
ENCODING 9784
SWIDTH 960 0
DWIDTH 16 0
BBX 21 16 -2 -2
BITMAP
000000
001e00
007380
00c380
018180
030180
060180
060180
060300
070e00
039c00
0db300
19a600
1fbe00
000000
000000
ENDCHAR
STARTCHAR 2641
ENCODING 9793
SWIDTH 960 0
DWIDTH 16 0
BBX 21 16 -2 -2
BITMAP
000000
000000
000000
000000
000000
000300
00f300
019a00
031c00
063800
0c3000
0cf000
0db400
073800
000000
000000
ENDCHAR
STARTCHAR 2642
ENCODING 9794
SWIDTH 960 0
DWIDTH 16 0
BBX 21 16 -2 -2
BITMAP
000000
000700
000d80
001980
003180
006300
00c600
01bc00
030c00
030c00
060c00
061800
0d3000
0de000
180000
300000
ENDCHAR
STARTCHAR 2643
ENCODING 9795
SWIDTH 960 0
DWIDTH 16 0
BBX 21 16 -2 -2
BITMAP
000000
000000
000000
000000
000000
000000
03c700
066c00
0c7800
00e000
00e000
018000
018000
030000
060000
0c0000
ENDCHAR
STARTCHAR 2644
ENCODING 9796
SWIDTH 960 0
DWIDTH 16 0
BBX 21 16 -2 -2
BITMAP
000000
001c00
003600
003300
003180
003800
00e800
019800
031800
061800
0c3000
0c6000
0cc000
078000
000000
000000
ENDCHAR
STARTCHAR 2645
ENCODING 9797
SWIDTH 960 0
DWIDTH 16 0
BBX 21 16 -2 -2
BITMAP
000000
000000
000000
000000
000000
000000
007c00
00c600
00c000
00f000
018000
030000
033000
01e000
000000
000000
ENDCHAR
STARTCHAR 2646
ENCODING 9798
SWIDTH 960 0
DWIDTH 16 0
BBX 21 16 -2 -2
BITMAP
003000
006180
006700
003c00
001800
007000
00c000
018000
030000
030000
030000
018000
00c000
006000
00c000
038000
ENDCHAR
STARTCHAR 2647
ENCODING 9799
SWIDTH 960 0
DWIDTH 16 0
BBX 21 16 -2 -2
BITMAP
000000
000000
000000
000000
000000
000000
03bc00
06e600
018600
018c00
030c00
061800
063000
0c3000
006000
00c000
ENDCHAR
STARTCHAR 2648
ENCODING 9800
SWIDTH 960 0
DWIDTH 16 0
BBX 21 16 -2 -2
BITMAP
000000
000700
001d80
003180
006180
006180
00ff00
018600
030c00
060c00
061800
067000
06c000
038000
000000
000000
ENDCHAR
STARTCHAR 2649
ENCODING 9801
SWIDTH 960 0
DWIDTH 16 0
BBX 21 16 -2 -2
BITMAP
000000
000000
000000
000000
000000
000000
00c000
00c000
018000
030000
060000
063800
06e000
038000
000000
000000
ENDCHAR
STARTCHAR 264a
ENCODING 9802
SWIDTH 960 0
DWIDTH 16 0
BBX 21 16 -2 -2
BITMAP
000000
000000
000000
000000
000000
000000
018e00
019b00
037000
038000
06c000
0cc000
0cd800
187000
000000
000000
ENDCHAR
STARTCHAR 264b
ENCODING 9803
SWIDTH 960 0
DWIDTH 16 0
BBX 21 16 -2 -2
BITMAP
000000
000c00
000c00
000c00
000c00
000c00
001800
003800
006800
00d800
019800
071800
0c1800
180c00
000000
000000
ENDCHAR
STARTCHAR 264c
ENCODING 9804
SWIDTH 960 0
DWIDTH 16 0
BBX 21 16 -2 -2
BITMAP
000000
000000
000000
000000
000000
000000
018c00
018c00
031800
031800
063000
0c3000
0ed400
1b9800
300000
600000
ENDCHAR
STARTCHAR 264d
ENCODING 9805
SWIDTH 960 0
DWIDTH 16 0
BBX 21 16 -2 -2
BITMAP
000000
000000
000000
000000
000000
000000
070600
018600
018c00
031800
033000
06e000
0d8000
1e0000
000000
000000
ENDCHAR
STARTCHAR 264e
ENCODING 9806
SWIDTH 960 0
DWIDTH 16 0
BBX 21 16 -2 -2
BITMAP
000180
000f00
001800
001800
007e00
00c000
00c000
00c000
03f800
060000
0c0000
078000
00c000
006000
00c000
1f8000
ENDCHAR
STARTCHAR 264f
ENCODING 9807
SWIDTH 960 0
DWIDTH 16 0
BBX 21 16 -2 -2
BITMAP
000000
000000
000000
000000
000000
000000
007800
00cc00
018c00
030c00
060c00
061800
067000
03c000
000000
000000
ENDCHAR
STARTCHAR 2650
ENCODING 9808
SWIDTH 960 0
DWIDTH 16 0
BBX 21 16 -2 -2
BITMAP
000000
000000
000000
000000
000000
000380
03fe00
06d800
019800
01b000
036000
066000
0c6800
183000
000000
000000
ENDCHAR
STARTCHAR 2651
ENCODING 9809
SWIDTH 960 0
DWIDTH 16 0
BBX 21 16 -2 -2
BITMAP
000000
000000
000000
000000
000000
000000
007800
00cc00
018c00
030c00
030c00
061800
0d3000
0de000
180000
300000
ENDCHAR
STARTCHAR 2652
ENCODING 9810
SWIDTH 960 0
DWIDTH 16 0
BBX 21 16 -2 -2
BITMAP
000000
000000
000000
000000
000000
000380
003e00
006c00
00cc00
018c00
030c00
031800
037000
01c000
000000
000000
ENDCHAR
STARTCHAR 2653
ENCODING 9811
SWIDTH 960 0
DWIDTH 16 0
BBX 21 16 -2 -2
BITMAP
000000
000000
000000
000000
000000
000380
03fe00
066000
00c000
00c000
018000
033800
036000
01c000
000000
000000
ENDCHAR
STARTCHAR 2654
ENCODING 9812
SWIDTH 960 0
DWIDTH 16 0
BBX 21 16 -2 -2
BITMAP
000000
000000
000000
000000
000000
000000
006600
006300
00c600
00c600
018c00
01b800
01a000
00c000
000000
000000
ENDCHAR
STARTCHAR 2655
ENCODING 9813
SWIDTH 960 0
DWIDTH 16 0
BBX 21 16 -2 -2
BITMAP
000000
000300
000600
000600
000c00
000c00
007c00
01d600
036600
066c00
06cc00
06f800
03c000
030000
030000
060000
ENDCHAR
STARTCHAR 2656
ENCODING 9814
SWIDTH 960 0
DWIDTH 16 0
BBX 21 16 -2 -2
BITMAP
000000
000000
000000
000000
000000
000000
01c600
036c00
007800
00e000
00c000
03c000
068000
0d8000
38d800
606000
ENDCHAR
STARTCHAR 2657
ENCODING 9815
SWIDTH 960 0
DWIDTH 16 0
BBX 21 16 -2 -2
BITMAP
000000
000300
000600
000600
000c00
001800
031b00
06b300
036600
036c00
06d800
06f000
03c000
030000
030000
060000
ENDCHAR
STARTCHAR 2658
ENCODING 9816
SWIDTH 960 0
DWIDTH 16 0
BBX 21 16 -2 -2
BITMAP
000000
000000
000000
000000
000000
000000
018600
033600
066600
0c6600
18c600
19cc00
1b5800
0e7000
000000
000000
ENDCHAR
STARTCHAR 2721
ENCODING 10017
SWIDTH 960 0
DWIDTH 16 0
BBX 21 16 -2 -2
BITMAP
000000
000c00
000c00
001c00
003400
006c00
00cc00
018600
037e00
030c00
060600
0c0600
180600
3c0f00
000000
000000
ENDCHAR
STARTCHAR 2722
ENCODING 10018
SWIDTH 960 0
DWIDTH 16 0
BBX 21 16 -2 -2
BITMAP
000000
03ff80
00c180
018180
018000
018000
03fc00
030600
030300
060300
060300
060e00
0c3800
3fe000
000000
000000
ENDCHAR
STARTCHAR 2723
ENCODING 10019
SWIDTH 960 0
DWIDTH 16 0
BBX 21 16 -2 -2
BITMAP
000000
03ff00
00c180
018180
018180
018700
03fc00
030600
030300
060300
060300
060e00
0c3800
3fe000
000000
000000
ENDCHAR
STARTCHAR 2724
ENCODING 10020
SWIDTH 960 0
DWIDTH 16 0
BBX 21 16 -2 -2
BITMAP
000000
01ffc0
0060c0
00c0c0
00c000
00c000
018000
018000
018000
030000
030000
030000
060000
0f0000
000000
000000
ENDCHAR
STARTCHAR 2725
ENCODING 10021
SWIDTH 960 0
DWIDTH 16 0
BBX 21 16 -2 -2
BITMAP
000000
00ffe0
003180
006300
006300
006300
00c600
00c600
018600
018c00
030c00
060c00
0c1800
3ffe00
300600
600c00
ENDCHAR
STARTCHAR 2726
ENCODING 10022
SWIDTH 960 0
DWIDTH 16 0
BBX 21 16 -2 -2
BITMAP
000000
03ffc0
00c0c0
0180c0
018000
018000
031800
03f800
031800
060000
060000
060300
0c0600
3ffc00
000000
000000
ENDCHAR
STARTCHAR 2727
ENCODING 10023
SWIDTH 960 0
DWIDTH 16 0
BBX 21 16 -2 -2
BITMAP
006180
006180
000000
07ff00
018300
018180
030000
031800
03f800
063000
060000
060600
0c0c00
3ff800
000000
000000
ENDCHAR
STARTCHAR 2728
ENCODING 10024
SWIDTH 960 0
DWIDTH 16 0
BBX 21 16 -2 -2
BITMAP
000000
031e70
068cd8
019980
019980
019b00
01b300
01fe00
033300
066300
0c6300
186300
30c300
79e780
000000
000000
ENDCHAR
STARTCHAR 2729
ENCODING 10025
SWIDTH 960 0
DWIDTH 16 0
BBX 21 16 -2 -2
BITMAP
000000
003e00
01e380
030380
000180
000300
000600
00fc00
000600
000600
000600
0c0c00
063800
03e000
000000
000000
ENDCHAR
STARTCHAR 272a
ENCODING 10026
SWIDTH 960 0
DWIDTH 16 0
BBX 21 16 -2 -2
BITMAP
000000
03c1e0
0181c0
030380
030680
030d80
061b00
063300
066300
0cc600
0d8600
0f0600
1c0c00
181e00
000000
000000
ENDCHAR
STARTCHAR 272b
ENCODING 10027
SWIDTH 960 0
DWIDTH 16 0
BBX 21 16 -2 -2
BITMAP
007700
006300
03dee0
030380
030380
030680
061d00
063300
066300
0cc600
0d8600
0f0600
1c0c00
181e00
000000
000000
ENDCHAR
STARTCHAR 272c
ENCODING 10028
SWIDTH 960 0
DWIDTH 16 0
BBX 21 16 -2 -2
BITMAP
000000
01e3c0
00c660
018c00
019800
01b000
033000
03e000
033000
063000
061800
060c00
0c0c00
1e1e00
000000
000000
ENDCHAR
STARTCHAR 272d
ENCODING 10029
SWIDTH 960 0
DWIDTH 16 0
BBX 21 16 -2 -2
BITMAP
000000
00ffc0
003180
006300
006300
006300
00c600
00c600
018600
018c00
030c00
0e0c00
681800
703c00
000000
000000
ENDCHAR
STARTCHAR 272e
ENCODING 10030
SWIDTH 960 0
DWIDTH 16 0
BBX 21 16 -2 -2
BITMAP
000000
0380e0
0180c0
038380
038380
038680
068d00
06cd00
0cdb00
0cd300
18d300
18e300
30c600
7ccf00
000000
000000
ENDCHAR
STARTCHAR 272f
ENCODING 10031
SWIDTH 960 0
DWIDTH 16 0
BBX 21 16 -2 -2
BITMAP
000000
03c1e0
0180c0
030180
030180
030180
060300
07ff00
060300
0c0600
0c0600
0c0600
180c00
3c1e00
000000
000000
ENDCHAR
STARTCHAR 2730
ENCODING 10032
SWIDTH 960 0
DWIDTH 16 0
BBX 21 16 -2 -2
BITMAP
000000
003e00
00e380
018380
030180
060180
0c0180
0c0180
0c0300
0c0300
0c0600
0c0e00
0e3800
03e000
000000
000000
ENDCHAR
STARTCHAR 2731
ENCODING 10033
SWIDTH 960 0
DWIDTH 16 0
BBX 21 16 -2 -2
BITMAP
000000
01ffe0
00c0c0
018180
018180
018180
030300
030300
030300
060600
060600
060600
0c0c00
1e1e00
000000
000000
ENDCHAR
STARTCHAR 2732
ENCODING 10034
SWIDTH 960 0
DWIDTH 16 0
BBX 21 16 -2 -2
BITMAP
000000
01ff00
006180
00c0c0
00c0c0
00c180
018700
01fc00
018000
030000
030000
030000
060000
0f0000
000000
000000
ENDCHAR
STARTCHAR 2733
ENCODING 10035
SWIDTH 960 0
DWIDTH 16 0
BBX 21 16 -2 -2
BITMAP
000000
003e00
00e340
018380
030180
060000
0c0000
0c0000
0c0000
0c0000
0c0600
0c0e00
0e3800
03e000
000000
000000
ENDCHAR
STARTCHAR 2734
ENCODING 10036
SWIDTH 960 0
DWIDTH 16 0
BBX 21 16 -2 -2
BITMAP
000000
03ffc0
0618c0
0c30c0
003000
003000
006000
006000
006000
00c000
00c000
00c000
018000
03c000
000000
000000
ENDCHAR
STARTCHAR 2735
ENCODING 10037
SWIDTH 960 0
DWIDTH 16 0
BBX 21 16 -2 -2
BITMAP
000000
01e1e0
00c0c0
00c180
00c300
00c600
00cc00
006800
007000
003000
006000
01c000
1b0000
0e0000
000000
000000
ENDCHAR
STARTCHAR 2736
ENCODING 10038
SWIDTH 960 0
DWIDTH 16 0
BBX 21 16 -2 -2
BITMAP
000000
001e00
000c00
007e00
01db80
031980
033180
063180
063300
066300
076e00
01f800
00c000
01e000
000000
000000
ENDCHAR
STARTCHAR 2737
ENCODING 10039
SWIDTH 960 0
DWIDTH 16 0
BBX 21 16 -2 -2
BITMAP
000000
03c3c0
018380
018600
00cc00
00d800
00d000
006000
00d000
01b000
033000
0e1800
181800
3c3c00
000000
000000
ENDCHAR
STARTCHAR 2738
ENCODING 10040
SWIDTH 960 0
DWIDTH 16 0
BBX 21 16 -2 -2
BITMAP
000000
03c3c0
018180
030300
030300
030300
060600
060600
060600
0c0c00
0c0c00
0c0c00
181800
3ffe00
000600
000c00
ENDCHAR
STARTCHAR 2739
ENCODING 10041
SWIDTH 960 0
DWIDTH 16 0
BBX 21 16 -2 -2
BITMAP
000000
01e3c0
00c180
018300
018300
018300
018600
018e00
00fa00
000c00
000c00
000c00
001800
003c00
000000
000000
ENDCHAR
STARTCHAR 273a
ENCODING 10042
SWIDTH 960 0
DWIDTH 16 0
BBX 21 16 -2 -2
BITMAP
000000
03def0
018c60
0318c0
0318c0
0318c0
063180
063180
063180
0c6300
0c6300
0c6300
18c600
3fff00
000000
000000
ENDCHAR
STARTCHAR 273b
ENCODING 10043
SWIDTH 960 0
DWIDTH 16 0
BBX 21 16 -2 -2
BITMAP
000000
03def0
018c60
0318c0
0318c0
0318c0
063180
063180
063180
0c6300
0c6300
0c6300
18c600
3fff80
000180
000300
ENDCHAR
STARTCHAR 273c
ENCODING 10044
SWIDTH 960 0
DWIDTH 16 0
BBX 21 16 -2 -2
BITMAP
000000
03f800
063000
0c6000
006000
006000
00fe00
00c380
00c180
018180
018180
018380
030e00
07f800
000000
000000
ENDCHAR
STARTCHAR 273d
ENCODING 10045
SWIDTH 960 0
DWIDTH 16 0
BBX 21 16 -2 -2
BITMAP
000000
03c1e0
0180c0
030180
030180
030180
07c300
067300
063300
0c3600
0c3600
0c7600
19cc00
3f1e00
000000
000000
ENDCHAR
STARTCHAR 273e
ENCODING 10046
SWIDTH 960 0
DWIDTH 16 0
BBX 21 16 -2 -2
BITMAP
000000
01e000
00c000
018000
018000
018000
03f800
030e00
030600
060600
060600
060e00
0c3800
1fe000
000000
000000
ENDCHAR
STARTCHAR 273f
ENCODING 10047
SWIDTH 960 0
DWIDTH 16 0
BBX 21 16 -2 -2
BITMAP
000000
003e00
00e380
018380
030180
000380
01e680
033d80
000300
000300
0c0600
0c0e00
0e3800
03e000
000000
000000
ENDCHAR
STARTCHAR 2740
ENCODING 10048
SWIDTH 960 0
DWIDTH 16 0
BBX 21 16 -2 -2
BITMAP
000000
03c780
018cc0
0318c0
0330c0
0360c0
06c0c0
07c0c0
06c180
0cc180
0cc300
0cc600
18cc00
3c7800
000000
000000
ENDCHAR
STARTCHAR 2741
ENCODING 10049
SWIDTH 960 0
DWIDTH 16 0
BBX 21 16 -2 -2
BITMAP
000000
003fc0
00e180
018300
030300
030300
018600
00fe00
00e600
018c00
030c00
060c00
1c1800
703c00
000000
000000
ENDCHAR
STARTCHAR 2751
ENCODING 10065
SWIDTH 960 0
DWIDTH 16 0
BBX 21 16 -2 -2
BITMAP
000000
000000
000000
000000
000000
00f800
018c00
000c00
01ec00
033800
061800
067800
06dc00
039c00
000000
000000
ENDCHAR
STARTCHAR 2752
ENCODING 10066
SWIDTH 960 0
DWIDTH 16 0
BBX 21 16 -2 -2
BITMAP
000000
000180
003f00
006000
00c000
01c000
037800
038c00
030c00
060c00
060c00
061800
063000
03e000
000000
000000
ENDCHAR
STARTCHAR 2753
ENCODING 10067
SWIDTH 960 0
DWIDTH 16 0
BBX 21 16 -2 -2
BITMAP
000000
000000
000000
000000
000000
01fc00
018600
018600
019800
03fc00
030c00
030c00
061800
0ff000
000000
000000
ENDCHAR
STARTCHAR 2754
ENCODING 10068
SWIDTH 960 0
DWIDTH 16 0
BBX 21 16 -2 -2
BITMAP
000000
000000
000000
000000
000000
01ff00
018600
018600
018000
030000
030000
030000
060000
0f0000
000000
000000
ENDCHAR
STARTCHAR 2755
ENCODING 10069
SWIDTH 960 0
DWIDTH 16 0
BBX 21 16 -2 -2
BITMAP
000000
000000
000000
000000
000000
00ff00
00cc00
00cc00
00cc00
019800
019800
031800
063000
1ffc00
180c00
301800
ENDCHAR
STARTCHAR 2756
ENCODING 10070
SWIDTH 960 0
DWIDTH 16 0
BBX 21 16 -2 -2
BITMAP
000000
000000
000000
000000
000000
00f000
019800
030c00
030c00
07f800
060000
060000
063000
03e000
000000
000000
ENDCHAR
STARTCHAR 2757
ENCODING 10071
SWIDTH 960 0
DWIDTH 16 0
BBX 21 16 -2 -2
BITMAP
000000
000000
006600
00cc00
000000
00f000
019800
030c00
030c00
07f800
060000
060000
063000
03e000
000000
000000
ENDCHAR
STARTCHAR 2758
ENCODING 10072
SWIDTH 960 0
DWIDTH 16 0
BBX 21 16 -2 -2
BITMAP
000000
000000
000000
000000
000000
03bdc0
033300
01b600
01bc00
01a800
036c00
066c00
0ccc00
19e600
000000
000000
ENDCHAR
STARTCHAR 2759
ENCODING 10073
SWIDTH 960 0
DWIDTH 16 0
BBX 21 16 -2 -2
BITMAP
000000
000000
000000
000000
000000
007c00
01c600
000600
001800
00fc00
000c00
000c00
071800
03f000
000000
000000
ENDCHAR
STARTCHAR 275a
ENCODING 10074
SWIDTH 960 0
DWIDTH 16 0
BBX 21 16 -2 -2
BITMAP
000000
000000
000000
000000
000000
01e3c0
018300
018700
019d00
033600
036600
038600
060c00
0f1e00
000000
000000
ENDCHAR
STARTCHAR 275b
ENCODING 10075
SWIDTH 960 0
DWIDTH 16 0
BBX 21 16 -2 -2
BITMAP
000000
000000
003b80
006300
003e00
01e3c0
018300
018700
019d00
033600
036600
038600
060c00
0f1e00
000000
000000
ENDCHAR
STARTCHAR 275c
ENCODING 10076
SWIDTH 960 0
DWIDTH 16 0
BBX 21 16 -2 -2
BITMAP
000000
000000
000000
000000
000000
01ef00
019a00
01b000
01a000
03c000
036000
033000
063000
0f3c00
000000
000000
ENDCHAR
STARTCHAR 275d
ENCODING 10077
SWIDTH 960 0
DWIDTH 16 0
BBX 21 16 -2 -2
BITMAP
000000
000000
000000
000000
000000
007f80
006600
006600
006600
00cc00
00cc00
0d8c00
0d1800
063c00
000000
000000
ENDCHAR
STARTCHAR 275e
ENCODING 10078
SWIDTH 960 0
DWIDTH 16 0
BBX 21 16 -2 -2
BITMAP
000000
000000
000000
000000
000000
03c3c0
038700
034d00
035b00
06da00
06d600
06e600
0ccc00
1e1e00
000000
000000
ENDCHAR
STARTCHAR 275f
ENCODING 10079
SWIDTH 960 0
DWIDTH 16 0
BBX 21 16 -2 -2
BITMAP
000000
000000
000000
000000
000000
01e780
018600
018600
018600
03fc00
030c00
030c00
061800
0f3c00
000000
000000
ENDCHAR
STARTCHAR 2760
ENCODING 10080
SWIDTH 960 0
DWIDTH 16 0
BBX 21 16 -2 -2
BITMAP
000000
000000
000000
000000
000000
00f800
018c00
030600
030600
060c00
060c00
061800
063000
03e000
000000
000000
ENDCHAR
STARTCHAR 2761
ENCODING 10081
SWIDTH 960 0
DWIDTH 16 0
BBX 21 16 -2 -2
BITMAP
000000
000000
000000
000000
000000
03ff00
030c00
030c00
030c00
061800
061800
061800
0c3000
1e7800
000000
000000
ENDCHAR
STARTCHAR 2762
ENCODING 10082
SWIDTH 960 0
DWIDTH 16 0
BBX 21 16 -2 -2
BITMAP
000000
000000
000000
000000
000000
01f800
01cc00
018600
018600
030c00
030c00
03b800
06e000
060000
060000
1e0000
ENDCHAR
STARTCHAR 2763
ENCODING 10083
SWIDTH 960 0
DWIDTH 16 0
BBX 21 16 -2 -2
BITMAP
000000
000000
000000
000000
000000
00f000
019800
030c00
030000
060000
060000
063800
066000
03c000
000000
000000
ENDCHAR
STARTCHAR 2764
ENCODING 10084
SWIDTH 960 0
DWIDTH 16 0
BBX 21 16 -2 -2
BITMAP
000000
000000
000000
000000
000000
03ff00
066600
066600
006000
00c000
00c000
00c000
018000
03c000
000000
000000
ENDCHAR
STARTCHAR 2765
ENCODING 10085
SWIDTH 960 0
DWIDTH 16 0
BBX 21 16 -2 -2
BITMAP
000000
000000
000000
000000
000000
01e780
018600
018600
018c00
019800
00d000
00e000
00c000
018000
0d0000
0e0000
ENDCHAR
STARTCHAR 2766
ENCODING 10086
SWIDTH 960 0
DWIDTH 16 0
BBX 21 16 -2 -2
BITMAP
000000
001c00
000c00
001800
001800
001800
01d600
037b00
063300
0c6300
0c6300
0c6600
0dec00
075800
00c000
03c000
ENDCHAR
STARTCHAR 2767
ENCODING 10087
SWIDTH 960 0
DWIDTH 16 0
BBX 21 16 -2 -2
BITMAP
000000
000000
000000
000000
000000
01e780
018600
00cc00
007800
006000
00d000
039800
061800
0f3c00
000000
000000
ENDCHAR
STARTCHAR 2768
ENCODING 10088
SWIDTH 960 0
DWIDTH 16 0
BBX 21 16 -2 -2
BITMAP
000000
000000
000000
000000
000000
03cf00
030c00
030c00
030c00
061800
061800
061800
0c3000
1ffc00
000c00
001800
ENDCHAR
STARTCHAR 2769
ENCODING 10089
SWIDTH 960 0
DWIDTH 16 0
BBX 21 16 -2 -2
BITMAP
000000
000000
000000
000000
000000
01e780
018600
018600
018600
018c00
00fc00
000c00
001800
003c00
000000
000000
ENDCHAR
STARTCHAR 276a
ENCODING 10090
SWIDTH 960 0
DWIDTH 16 0
BBX 21 16 -2 -2
BITMAP
000000
000000
000000
000000
000000
07bde0
063180
063180
063180
0c6300
0c6300
0c6300
18c600
3fff00
000000
000000
ENDCHAR
STARTCHAR 276b
ENCODING 10091
SWIDTH 960 0
DWIDTH 16 0
BBX 21 16 -2 -2
BITMAP
000000
000000
000000
000000
000000
07bde0
063180
063180
063180
0c6300
0c6300
0c6300
18c600
3fff80
000180
000300
ENDCHAR
STARTCHAR 276c
ENCODING 10092
SWIDTH 960 0
DWIDTH 16 0
BBX 21 16 -2 -2
BITMAP
000000
000000
000000
000000
000000
03f800
066000
066000
006000
00fc00
00c700
00c300
018e00
03f800
000000
000000
ENDCHAR
STARTCHAR 276d
ENCODING 10093
SWIDTH 960 0
DWIDTH 16 0
BBX 21 16 -2 -2
BITMAP
000000
000000
000000
000000
000000
03c3c0
030300
030300
030300
07c600
067600
063600
0cec00
1f9e00
000000
000000
ENDCHAR
STARTCHAR 276e
ENCODING 10094
SWIDTH 960 0
DWIDTH 16 0
BBX 21 16 -2 -2
BITMAP
000000
000000
000000
000000
000000
00f000
00c000
00c000
00c000
01f800
018e00
018600
031c00
07f000
000000
000000
ENDCHAR
STARTCHAR 276f
ENCODING 10095
SWIDTH 960 0
DWIDTH 16 0
BBX 21 16 -2 -2
BITMAP
000000
000000
000000
000000
000000
00f800
018c00
030600
01ee00
033400
000c00
061800
063000
03e000
000000
000000
ENDCHAR
STARTCHAR 2770
ENCODING 10096
SWIDTH 960 0
DWIDTH 16 0
BBX 21 16 -2 -2
BITMAP
000000
000000
000000
000000
000000
03de00
033300
036180
036180
07c300
06c300
06c600
0ccc00
1e7800
000000
000000
ENDCHAR
STARTCHAR 2771
ENCODING 10097
SWIDTH 960 0
DWIDTH 16 0
BBX 21 16 -2 -2
BITMAP
000000
000000
000000
000000
000000
00ff00
018c00
030c00
030c00
01f800
019800
031800
063000
1c7800
000000
000000
ENDCHAR
STARTCHAR 2821
ENCODING 10273
SWIDTH 960 0
DWIDTH 16 0
BBX 21 16 -2 -2
BITMAP
000000
000000
000000
000000
000000
000000
000000
3fffe0
000000
000000
000000
000000
000000
000000
000000
000000
ENDCHAR
STARTCHAR 2822
ENCODING 10274
SWIDTH 960 0
DWIDTH 16 0
BBX 21 16 -2 -2
BITMAP
001800
001800
001800
003000
003000
003000
006000
006000
006000
00c000
00c000
00c000
018000
018000
018000
030000
ENDCHAR
STARTCHAR 2823
ENCODING 10275
SWIDTH 960 0
DWIDTH 16 0
BBX 21 16 -2 -2
BITMAP
000000
000000
000000
000000
000000
000000
000000
007fe0
006000
00c000
00c000
00c000
018000
018000
018000
030000
ENDCHAR
STARTCHAR 2824
ENCODING 10276
SWIDTH 960 0
DWIDTH 16 0
BBX 21 16 -2 -2
BITMAP
000000
000000
000000
000000
000000
000000
000000
3fe000
006000
00c000
00c000
00c000
018000
018000
018000
030000
ENDCHAR
STARTCHAR 2825
ENCODING 10277
SWIDTH 960 0
DWIDTH 16 0
BBX 21 16 -2 -2
BITMAP
001800
001800
001800
003000
003000
003000
006000
3fe000
000000
000000
000000
000000
000000
000000
000000
000000
ENDCHAR
STARTCHAR 2826
ENCODING 10278
SWIDTH 960 0
DWIDTH 16 0
BBX 21 16 -2 -2
BITMAP
001800
001800
001800
003000
003000
003000
006000
007fe0
000000
000000
000000
000000
000000
000000
000000
000000
ENDCHAR
STARTCHAR 2827
ENCODING 10279
SWIDTH 960 0
DWIDTH 16 0
BBX 21 16 -2 -2
BITMAP
001800
001800
001800
003000
003000
003000
006000
007fe0
006000
00c000
00c000
00c000
018000
018000
018000
030000
ENDCHAR
STARTCHAR 2828
ENCODING 10280
SWIDTH 960 0
DWIDTH 16 0
BBX 21 16 -2 -2
BITMAP
000000
000000
000000
000000
000000
000000
000000
3fffe0
006000
00c000
00c000
00c000
018000
018000
018000
030000
ENDCHAR
STARTCHAR 2829
ENCODING 10281
SWIDTH 960 0
DWIDTH 16 0
BBX 21 16 -2 -2
BITMAP
001800
001800
001800
003000
003000
003000
006000
3fe000
006000
00c000
00c000
00c000
018000
018000
018000
030000
ENDCHAR
STARTCHAR 282a
ENCODING 10282
SWIDTH 960 0
DWIDTH 16 0
BBX 21 16 -2 -2
BITMAP
001800
001800
001800
003000
003000
003000
006000
3fffe0
000000
000000
000000
000000
000000
000000
000000
000000
ENDCHAR
STARTCHAR 282b
ENCODING 10283
SWIDTH 960 0
DWIDTH 16 0
BBX 21 16 -2 -2
BITMAP
001800
001800
001800
003000
003000
003000
006000
3fffe0
006000
00c000
00c000
00c000
018000
018000
018000
030000
ENDCHAR
STARTCHAR 282c
ENCODING 10284
SWIDTH 960 0
DWIDTH 16 0
BBX 21 16 -2 -2
BITMAP
000000
000000
000000
000000
000000
000000
000000
3fffe0
3fffe0
000000
000000
000000
000000
000000
000000
000000
ENDCHAR
STARTCHAR 282d
ENCODING 10285
SWIDTH 960 0
DWIDTH 16 0
BBX 21 16 -2 -2
BITMAP
001c00
001c00
001c00
003800
003800
003800
007000
007000
007000
00e000
00e000
00e000
01c000
01c000
01c000
038000
ENDCHAR
STARTCHAR 282e
ENCODING 10286
SWIDTH 960 0
DWIDTH 16 0
BBX 21 16 -2 -2
BITMAP
000000
000000
000000
000000
000000
000000
000000
007fe0
007fe0
00e000
00e000
00e000
01c000
01c000
01c000
038000
ENDCHAR
STARTCHAR 282f
ENCODING 10287
SWIDTH 960 0
DWIDTH 16 0
BBX 21 16 -2 -2
BITMAP
000000
000000
000000
000000
000000
000000
000000
3ff000
3ff000
00e000
00e000
00e000
01c000
01c000
01c000
038000
ENDCHAR
STARTCHAR 2830
ENCODING 10288
SWIDTH 960 0
DWIDTH 16 0
BBX 21 16 -2 -2
BITMAP
001c00
001c00
001c00
003800
003800
003800
007000
3ff000
3ff000
000000
000000
000000
000000
000000
000000
000000
ENDCHAR
STARTCHAR 2831
ENCODING 10289
SWIDTH 960 0
DWIDTH 16 0
BBX 21 16 -2 -2
BITMAP
001c00
001c00
001c00
003800
003800
003800
007000
007fe0
007fe0
000000
000000
000000
000000
000000
000000
000000
ENDCHAR
STARTCHAR 2832
ENCODING 10290
SWIDTH 960 0
DWIDTH 16 0
BBX 21 16 -2 -2
BITMAP
001c00
001c00
001c00
003800
003800
003800
007000
007fe0
007fe0
00e000
00e000
00e000
01c000
01c000
01c000
038000
ENDCHAR
STARTCHAR 2833
ENCODING 10291
SWIDTH 960 0
DWIDTH 16 0
BBX 21 16 -2 -2
BITMAP
000000
000000
000000
000000
000000
000000
000000
3fffe0
3fffe0
00e000
00e000
00e000
01c000
01c000
01c000
038000
ENDCHAR
STARTCHAR 2834
ENCODING 10292
SWIDTH 960 0
DWIDTH 16 0
BBX 21 16 -2 -2
BITMAP
001c00
001c00
001c00
003800
003800
003800
007000
3ff000
3ff000
00e000
00e000
00e000
01c000
01c000
01c000
038000
ENDCHAR
STARTCHAR 2835
ENCODING 10293
SWIDTH 960 0
DWIDTH 16 0
BBX 21 16 -2 -2
BITMAP
001c00
001c00
001c00
003800
003800
003800
007000
3fffe0
3fffe0
000000
000000
000000
000000
000000
000000
000000
ENDCHAR
STARTCHAR 2836
ENCODING 10294
SWIDTH 960 0
DWIDTH 16 0
BBX 21 16 -2 -2
BITMAP
001c00
001c00
001c00
003800
003800
003800
007000
3fffe0
3fffe0
00e000
00e000
00e000
01c000
01c000
01c000
038000
ENDCHAR
STARTCHAR 2837
ENCODING 10295
SWIDTH 960 0
DWIDTH 16 0
BBX 21 16 -2 -2
BITMAP
001c00
001c00
001c00
003800
003800
003800
007000
007fe0
007000
00e000
00e000
00e000
01c000
01c000
01c000
038000
ENDCHAR
STARTCHAR 2838
ENCODING 10296
SWIDTH 960 0
DWIDTH 16 0
BBX 21 16 -2 -2
BITMAP
000000
000000
000000
000000
000000
000000
000000
3fffe0
3fffe0
00c000
00c000
00c000
018000
018000
018000
030000
ENDCHAR
STARTCHAR 2839
ENCODING 10297
SWIDTH 960 0
DWIDTH 16 0
BBX 21 16 -2 -2
BITMAP
001c00
001c00
001c00
003800
003800
003800
007000
3ff000
007000
00e000
00e000
00e000
01c000
01c000
01c000
038000
ENDCHAR
STARTCHAR 283a
ENCODING 10298
SWIDTH 960 0
DWIDTH 16 0
BBX 21 16 -2 -2
BITMAP
001800
001800
001800
003000
003000
003000
006000
3fffe0
3fffe0
000000
000000
000000
000000
000000
000000
000000
ENDCHAR
STARTCHAR 283b
ENCODING 10299
SWIDTH 960 0
DWIDTH 16 0
BBX 21 16 -2 -2
BITMAP
001800
001800
001800
003000
003000
003000
006000
3fffe0
3fffe0
00c000
00c000
00c000
018000
018000
018000
030000
ENDCHAR
STARTCHAR 283c
ENCODING 10300
SWIDTH 960 0
DWIDTH 16 0
BBX 21 16 -2 -2
BITMAP
001800
001800
001800
003000
003000
003000
006000
007fe0
007fe0
00c000
00c000
00c000
018000
018000
018000
030000
ENDCHAR
STARTCHAR 283d
ENCODING 10301
SWIDTH 960 0
DWIDTH 16 0
BBX 21 16 -2 -2
BITMAP
000000
000000
000000
000000
000000
000000
000000
3fffe0
007000
00e000
00e000
00e000
01c000
01c000
01c000
038000
ENDCHAR
STARTCHAR 283e
ENCODING 10302
SWIDTH 960 0
DWIDTH 16 0
BBX 21 16 -2 -2
BITMAP
001800
001800
001800
003000
003000
003000
006000
3fe000
3fe000
00c000
00c000
00c000
018000
018000
018000
030000
ENDCHAR
STARTCHAR 283f
ENCODING 10303
SWIDTH 960 0
DWIDTH 16 0
BBX 21 16 -2 -2
BITMAP
001c00
001c00
001c00
003800
003800
003800
007000
3fffe0
000000
000000
000000
000000
000000
000000
000000
000000
ENDCHAR
STARTCHAR 2840
ENCODING 10304
SWIDTH 960 0
DWIDTH 16 0
BBX 21 16 -2 -2
BITMAP
001c00
001c00
001c00
003800
003800
003800
007000
3fffe0
007000
00e000
00e000
00e000
01c000
01c000
01c000
038000
ENDCHAR
STARTCHAR 3021
ENCODING 12321
SWIDTH 960 0
DWIDTH 16 0
BBX 21 16 -2 -2
BITMAP
000000
03fff8
003300
006600
006600
03ffc0
06cd80
06cd80
06cd80
0d9b00
0fff00
019800
033000
033000
7fff80
000000
ENDCHAR
STARTCHAR 3022
ENCODING 12322
SWIDTH 960 0
DWIDTH 16 0
BBX 21 16 -2 -2
BITMAP
000000
007ff8
07c6c0
0d8d80
0d8d80
0dbfe0
1b5b40
1b5b40
1b5b40
36ff80
363600
3e3600
6c6c00
006c00
07ff80
000000
ENDCHAR
STARTCHAR 3023
ENCODING 12323
SWIDTH 960 0
DWIDTH 16 0
BBX 21 16 -2 -2
BITMAP
00c180
00c180
00c180
019fe0
0ff300
036300
06c600
06ffe0
0d8600
1e8c00
337f80
070c00
0d1800
181800
71ff80
000000
ENDCHAR
STARTCHAR 3024
ENCODING 12324
SWIDTH 960 0
DWIDTH 16 0
BBX 21 16 -2 -2
BITMAP
000000
03fff8
036060
06c0c0
06bec0
0736c0
0d6d80
0dad80
0dad80
1b5b00
1b7b00
1adb00
3c0600
300600
300e00
600c00
ENDCHAR
STARTCHAR 3025
ENCODING 12325
SWIDTH 960 0
DWIDTH 16 0
BBX 21 16 -2 -2
BITMAP
000c00
000c00
07fff8
000000
01ff80
018180
030300
030300
03ff40
00e180
07a300
3db600
031800
03d800
1f0e00
700300
ENDCHAR
STARTCHAR 3026
ENCODING 12326
SWIDTH 960 0
DWIDTH 16 0
BBX 21 16 -2 -2
BITMAP
0003e0
01fec0
019980
019b00
0fffe0
0d9860
1a9b00
068680
1dbec0
318180
03f800
0f3000
39a000
01c000
0f7800
f80e00
ENDCHAR
STARTCHAR 3027
ENCODING 12327
SWIDTH 960 0
DWIDTH 16 0
BBX 21 16 -2 -2
BITMAP
018600
018680
018cc0
0fd8c0
037fa0
031860
063000
067fc0
07cc00
0e9800
3dffc0
0c3800
186800
18cc00
1b8600
760600
ENDCHAR
STARTCHAR 3028
ENCODING 12328
SWIDTH 960 0
DWIDTH 16 0
BBX 21 16 -2 -2
BITMAP
00c180
00c180
00c380
018680
0fecc0
037860
06e060
06df80
0d8000
198000
3f7f80
336180
0d4300
18c300
70ff00
018600
ENDCHAR
STARTCHAR 3029
ENCODING 12329
SWIDTH 960 0
DWIDTH 16 0
BBX 21 16 -2 -2
BITMAP
000c00
030fe0
0338c0
036b00
000e00
003d80
01e0e0
1f0c00
037f80
061800
06ff00
061800
0fff00
1a3000
73b000
c0ff00
ENDCHAR
STARTCHAR 302a
ENCODING 12330
SWIDTH 960 0
DWIDTH 16 0
BBX 21 16 -2 -2
BITMAP
003300
003300
07fff8
006600
01f580
066f60
06cd80
038700
0eff80
3860c0
006000
1fff80
01a000
033000
0e1c00
780600
ENDCHAR
STARTCHAR 302b
ENCODING 12331
SWIDTH 960 0
DWIDTH 16 0
BBX 21 16 -2 -2
BITMAP
006300
006300
07fff0
00c600
000000
0fffe0
00d800
00d800
0fff80
19b300
19b300
1b1f00
360600
380600
3ffe00
600c00
ENDCHAR
STARTCHAR 302c
ENCODING 12332
SWIDTH 960 0
DWIDTH 16 0
BBX 21 16 -2 -2
BITMAP
003600
00e7c0
03cd80
01bfc0
01aac0
019fc0
1ff580
03bf80
074c00
0eff80
1ad980
36ff80
6db300
0dff00
0c3180
181f00
ENDCHAR
STARTCHAR 302d
ENCODING 12333
SWIDTH 960 0
DWIDTH 16 0
BBX 21 16 -2 -2
BITMAP
000000
03fff0
003600
006c00
03ff80
036d80
06db00
07ff00
00d800
3fff80
006000
0da600
1b6600
331b00
631b00
01f000
ENDCHAR
STARTCHAR 302e
ENCODING 12334
SWIDTH 960 0
DWIDTH 16 0
BBX 21 16 -2 -2
BITMAP
018000
01bff0
01b030
036060
0fffe0
036000
06ffc0
06cd00
07d980
0eee80
3d9980
0d7f00
1a3000
1c3000
1bff80
700000
ENDCHAR
STARTCHAR 302f
ENCODING 12335
SWIDTH 960 0
DWIDTH 16 0
BBX 21 16 -2 -2
BITMAP
018000
01bff0
01b030
0da060
0c7fe0
0c6000
0cffc0
00cd00
06db80
06ee80
0d9980
1b7f00
1a3000
343000
6bff80
c00000
ENDCHAR
STARTCHAR 3030
ENCODING 12336
SWIDTH 960 0
DWIDTH 16 0
BBX 21 16 -2 -2
BITMAP
00c000
00c7e0
00c660
018cc0
0ff4c0
01b4c0
036f80
036980
036980
06d300
06d300
0cdf00
0da600
198180
70c180
c07f00
ENDCHAR
STARTCHAR 3031
ENCODING 12337
SWIDTH 960 0
DWIDTH 16 0
BBX 21 16 -2 -2
BITMAP
003180
07fff8
003180
003000
01ff80
006180
1fffe0
000000
01ff00
030600
03fe00
003000
0ffe00
0c6000
7fff80
00c000
ENDCHAR
STARTCHAR 3032
ENCODING 12338
SWIDTH 960 0
DWIDTH 16 0
BBX 21 16 -2 -2
BITMAP
003180
003180
07fff8
006300
000000
07ffe0
000000
03ff80
030180
060300
07ff00
0c0300
0c0000
180000
700000
c00000
ENDCHAR
STARTCHAR 3033
ENCODING 12339
SWIDTH 960 0
DWIDTH 16 0
BBX 21 16 -2 -2
BITMAP
00c180
00f1c0
01a760
075da0
0ff300
06bff0
0d6d00
0feb80
0d76e0
1adb00
1fc600
03dd80
3b7000
350c00
6c3800
c1e000
ENDCHAR
STARTCHAR 3034
ENCODING 12340
SWIDTH 960 0
DWIDTH 16 0
BBX 21 16 -2 -2
BITMAP
00c300
00c300
00dff0
0fe180
019980
019b00
079a00
077fe0
075800
0e1800
1a1800
36ff80
0c3000
0c3000
0c3000
186000
ENDCHAR
STARTCHAR 3035
ENCODING 12341
SWIDTH 960 0
DWIDTH 16 0
BBX 21 16 -2 -2
BITMAP
000000
01fff0
018000
030c00
030c00
030c00
061800
06ffc0
061800
0c3000
0c3000
183000
186000
6fff80
000000
000000
ENDCHAR
STARTCHAR 3036
ENCODING 12342
SWIDTH 960 0
DWIDTH 16 0
BBX 21 16 -2 -2
BITMAP
00c180
00c180
07fb80
018680
07ecc0
067da0
0ced60
0fcd00
0cd300
19b600
1fb600
0607c0
7fbc00
0dec00
0c0c00
181800
ENDCHAR
STARTCHAR 3037
ENCODING 12343
SWIDTH 960 0
DWIDTH 16 0
BBX 21 16 -2 -2
BITMAP
018000
01bfc0
018d80
031980
0feb00
031b00
063780
063980
066980
0f5b00
3cda00
0d9c00
199c00
1b3600
3ee300
3b0300
ENDCHAR
STARTCHAR 3038
ENCODING 12344
SWIDTH 960 0
DWIDTH 16 0
BBX 21 16 -2 -2
BITMAP
000c00
000c00
03fff0
0680c0
068000
0d0000
03ef80
066980
0ed980
1ab300
33b300
033600
066000
0c6300
386300
e03e00
ENDCHAR
STARTCHAR 3039
ENCODING 12345
SWIDTH 960 0
DWIDTH 16 0
BBX 21 16 -2 -2
BITMAP
00c000
00cfe0
00cc60
0198c0
0ff8c0
036fc0
06d180
06d180
0db180
19a300
3f7f00
036300
0d4600
18c600
77ff80
000000
ENDCHAR
STARTCHAR 303a
ENCODING 12346
SWIDTH 960 0
DWIDTH 16 0
BBX 21 16 -2 -2
BITMAP
00c0c0
00c0c0
00c0c0
07f180
06bff0
06b600
0d6c00
0d6c00
0fec00
061800
061800
069800
0db000
0fb000
7d9f00
018000
ENDCHAR
STARTCHAR 303b
ENCODING 12347
SWIDTH 960 0
DWIDTH 16 0
BBX 21 16 -2 -2
BITMAP
00c300
00c300
01a600
036680
06b4c0
0febc0
0cfec0
0fc0c0
0cc000
19bf00
1fb300
1b3300
336600
376600
3dbe00
e0cc00
ENDCHAR
STARTCHAR 303c
ENCODING 12348
SWIDTH 960 0
DWIDTH 16 0
BBX 21 16 -2 -2
BITMAP
00c600
00c600
01b400
0eafe0
036860
03b860
036f40
06db40
1fdf40
06d680
1a3680
1abe80
35ad00
358300
6c0e00
183800
ENDCHAR
STARTCHAR 303d
ENCODING 12349
SWIDTH 960 0
DWIDTH 16 0
BBX 21 16 -2 -2
BITMAP
00c300
00c300
01bfe0
0ea600
037ff0
038e00
035ac0
06d3c0
1ff000
06bf00
1b6600
1bd400
353000
356800
6dce00
1a0300
ENDCHAR
STARTCHAR 303e
ENCODING 12350
SWIDTH 960 0
DWIDTH 16 0
BBX 21 16 -2 -2
BITMAP
00c180
00f180
01a180
074300
0ff3f0
06b300
0d6600
0fe600
0d6600
1adf80
1fd180
03b180
1aa300
356300
6d7f00
c0c600
ENDCHAR
STARTCHAR 303f
ENCODING 12351
SWIDTH 960 0
DWIDTH 16 0
BBX 21 16 -2 -2
BITMAP
0006c0
000660
000660
0ffff0
000c00
000cc0
07e980
066980
066b00
0cda00
0fda00
0ced80
03bb00
0e6d00
7bc700
0e0600
ENDCHAR
STARTCHAR 3040
ENCODING 12352
SWIDTH 960 0
DWIDTH 16 0
BBX 21 16 -2 -2
BITMAP
000000
07fff8
003300
03ffc0
0366c0
0366c0
07ff80
033300
01b600
01ac00
3fffc0
01f000
035000
0edc00
78c700
018000
ENDCHAR
STARTCHAR 3041
ENCODING 12353
SWIDTH 960 0
DWIDTH 16 0
BBX 21 16 -2 -2
BITMAP
00c180
00c180
00c380
0fe680
006d80
00d980
01b180
035f40
0fe060
1b0000
36bf00
06e300
0cc600
0cc600
0cfe00
198c00
ENDCHAR
STARTCHAR 3042
ENCODING 12354
SWIDTH 960 0
DWIDTH 16 0
BBX 21 16 -2 -2
BITMAP
001800
001800
03fff0
0660c0
0c6000
006000
00c000
1fffc0
019800
033000
063000
076000
01c000
037000
0e1800
781800
ENDCHAR
STARTCHAR 3043
ENCODING 12355
SWIDTH 960 0
DWIDTH 16 0
BBX 21 16 -2 -2
BITMAP
000c00
000c00
01fff0
030c00
03ffe0
033a00
066600
06ff80
07dae0
0db600
0dfe00
19b600
1b6c00
33fd00
636300
003e00
ENDCHAR
STARTCHAR 3044
ENCODING 12356
SWIDTH 960 0
DWIDTH 16 0
BBX 21 16 -2 -2
BITMAP
018600
018600
01bff0
0360c0
0fcc00
030c00
061800
06ffe0
07b600
3c6600
0ccc00
0df800
183000
186800
39cc00
370c00
ENDCHAR
STARTCHAR 3045
ENCODING 12357
SWIDTH 960 0
DWIDTH 16 0
BBX 21 16 -2 -2
BITMAP
000300
000300
07fff0
0cd980
0ccd80
0ccf00
19fde0
1f8000
19bf80
336300
336300
337f00
7ec600
66c600
00fe00
018c00
ENDCHAR
STARTCHAR 3046
ENCODING 12358
SWIDTH 960 0
DWIDTH 16 0
BBX 21 16 -2 -2
BITMAP
000c00
000c00
03fff0
0630c0
0dff80
006600
03ac00
007800
03ce00
0e6300
3fffc0
01f000
035000
0edc00
78c700
018000
ENDCHAR
STARTCHAR 3047
ENCODING 12359
SWIDTH 960 0
DWIDTH 16 0
BBX 21 16 -2 -2
BITMAP
000000
07f7f0
063630
0fefe0
0c6c60
0c6c60
1fdfc0
1860c0
1bfec0
31b180
37fe80
331980
67f300
663300
67f300
c00e00
ENDCHAR
STARTCHAR 3048
ENCODING 12360
SWIDTH 960 0
DWIDTH 16 0
BBX 21 16 -2 -2
BITMAP
01b180
01b180
07fff8
036c60
036a00
03e600
030c00
0fffe0
0d6d80
1adb00
1fd300
067a00
7fdc00
0c3600
0ce600
1b8600
ENDCHAR
STARTCHAR 3049
ENCODING 12361
SWIDTH 960 0
DWIDTH 16 0
BBX 21 16 -2 -2
BITMAP
000c00
000c00
000c00
0ffff0
003c00
00ea00
01b600
073380
1c30e0
07fe00
060600
060600
0c0c00
0c0c00
0ffc00
181800
ENDCHAR
STARTCHAR 304a
ENCODING 12362
SWIDTH 960 0
DWIDTH 16 0
BBX 21 16 -2 -2
BITMAP
000000
0180c0
0180c0
030180
036180
033180
063300
063300
060300
0c0600
0c0e00
0ddb00
1b3300
1c6300
71c300
070300
ENDCHAR
STARTCHAR 304b
ENCODING 12363
SWIDTH 960 0
DWIDTH 16 0
BBX 21 16 -2 -2
BITMAP
006000
006fe0
00c360
00c6c0
0186c0
03fff0
070d80
0d0d80
1b0d80
06ff00
061b00
063000
0c3000
0c6000
0dc000
1b0000
ENDCHAR
STARTCHAR 304c
ENCODING 12364
SWIDTH 960 0
DWIDTH 16 0
BBX 21 16 -2 -2
BITMAP
006300
006300
00c300
00c600
01bfe0
0380c0
070180
0d6180
1b6300
066600
066600
066c00
0cd800
0c3000
0fff80
180000
ENDCHAR
STARTCHAR 304d
ENCODING 12365
SWIDTH 960 0
DWIDTH 16 0
BBX 21 16 -2 -2
BITMAP
006300
006300
006300
00fff0
019c00
033460
0634c0
0e6d80
1aed00
0d4e00
0ecc00
0ccc00
198c00
19b600
1bc300
360300
ENDCHAR
STARTCHAR 304e
ENCODING 12366
SWIDTH 960 0
DWIDTH 16 0
BBX 21 16 -2 -2
BITMAP
006300
006fe0
00c660
018cc0
01fff0
030000
067f80
0e6180
1a7f80
0c0c00
0cff80
0ccc00
199800
1bff80
181800
303000
ENDCHAR
STARTCHAR 304f
ENCODING 12367
SWIDTH 960 0
DWIDTH 16 0
BBX 21 16 -2 -2
BITMAP
000000
03fff0
030030
066660
066660
06ffa0
0cccc0
0cccc0
0cccc0
1fff80
199980
1b1980
363300
343300
3fff00
600600
ENDCHAR
STARTCHAR 3050
ENCODING 12368
SWIDTH 960 0
DWIDTH 16 0
BBX 21 16 -2 -2
BITMAP
000c00
000c00
07fff8
001800
07ffc0
0018c0
07ff80
063000
063000
0fff80
0cd180
01b380
033600
061800
1c0e00
f00300
ENDCHAR
STARTCHAR 3051
ENCODING 12369
SWIDTH 960 0
DWIDTH 16 0
BBX 21 16 -2 -2
BITMAP
0001c0
01ff00
000c00
0ffff0
003c00
00ea00
03b300
1e31e0
006000
3fffc0
018c00
019800
07d000
0c6000
01d800
7f0c00
ENDCHAR
STARTCHAR 3052
ENCODING 12370
SWIDTH 960 0
DWIDTH 16 0
BBX 21 16 -2 -2
BITMAP
000340
000360
000360
03fff0
030600
03fa00
06ccc0
06ccc0
07fd80
0d6d00
0d6e00
1bc600
19db00
335300
6ee300
c18600
ENDCHAR
STARTCHAR 3053
ENCODING 12371
SWIDTH 960 0
DWIDTH 16 0
BBX 21 16 -2 -2
BITMAP
000060
03fc60
030c60
0618c0
07f8c0
060ff0
0de180
0c0180
0c0d80
1fed00
198d00
1ac300
354600
354600
6b0600
0e1c00
ENDCHAR
STARTCHAR 3054
ENCODING 12372
SWIDTH 960 0
DWIDTH 16 0
BBX 21 16 -2 -2
BITMAP
00c600
00c6c0
00cdc0
019b00
01dfe0
06db00
0d7600
0d3fc0
1b3600
066c00
067f80
066c00
0cd800
0cd800
0cff80
198000
ENDCHAR
STARTCHAR 3055
ENCODING 12373
SWIDTH 960 0
DWIDTH 16 0
BBX 21 16 -2 -2
BITMAP
000c00
03fff0
006380
006600
0ffff0
000000
01ff00
018300
01ff00
030600
03fe00
0d6000
1b6300
336d80
630d80
01f800
ENDCHAR
STARTCHAR 3056
ENCODING 12374
SWIDTH 960 0
DWIDTH 16 0
BBX 21 16 -2 -2
BITMAP
000060
03fc60
030c60
07f4c0
0607f0
06f0c0
0c0d80
0ff680
0cc680
1aa300
35a300
034700
1ac000
1adb00
361b00
e3f300
ENDCHAR
STARTCHAR 3057
ENCODING 12375
SWIDTH 960 0
DWIDTH 16 0
BBX 21 16 -2 -2
BITMAP
000000
00ff80
00c180
018300
01ff00
018300
030600
03fe00
00c000
03ff00
0e6d00
39db00
073600
1c6600
01cc00
007800
ENDCHAR
STARTCHAR 3058
ENCODING 12376
SWIDTH 960 0
DWIDTH 16 0
BBX 21 16 -2 -2
BITMAP
00c300
00c300
00dff0
0fe600
018d00
019980
07b180
077fe0
074180
0efb00
1adb00
36db00
0df600
0db600
0c0600
181c00
ENDCHAR
STARTCHAR 3059
ENCODING 12377
SWIDTH 960 0
DWIDTH 16 0
BBX 21 16 -2 -2
BITMAP
018c00
00cc00
00cc00
07ff80
003180
003700
007d80
00c180
018180
03ffc0
0600c0
1b6cc0
3d6d80
6db580
0db300
180e00
ENDCHAR
STARTCHAR 305a
ENCODING 12378
SWIDTH 960 0
DWIDTH 16 0
BBX 21 16 -2 -2
BITMAP
000000
01ffc0
018cc0
031980
03ff80
031980
063300
07ff00
000000
3fffc0
06c300
066e00
0c6800
0db000
1e1c00
700700
ENDCHAR
STARTCHAR 305b
ENCODING 12379
SWIDTH 960 0
DWIDTH 16 0
BBX 21 16 -2 -2
BITMAP
000000
01ffe0
018c60
0318c0
03ffc0
0318c0
063180
07ff80
00cc00
0fff00
019800
019800
7fff80
033800
0e0c00
780600
ENDCHAR
STARTCHAR 305c
ENCODING 12380
SWIDTH 960 0
DWIDTH 16 0
BBX 21 16 -2 -2
BITMAP
001b00
0073f0
03c660
019cc0
01b680
0fe700
030c00
033b00
0787e0
0e8cc0
1ad980
367580
6c0600
0c0c00
0c3800
1be000
ENDCHAR
STARTCHAR 305d
ENCODING 12381
SWIDTH 960 0
DWIDTH 16 0
BBX 21 16 -2 -2
BITMAP
00c300
00c360
01b6e0
0ead80
034ff0
03bd80
036b00
06dfc0
1fdb00
06d600
1b3f80
1ab600
35ac00
35ac00
6c7f80
18c000
ENDCHAR
STARTCHAR 305e
ENCODING 12382
SWIDTH 960 0
DWIDTH 16 0
BBX 21 16 -2 -2
BITMAP
00c180
00cfe0
01b360
0ea6c0
037ff0
038000
035fc0
06d8c0
1fdfc0
06c600
1b3f80
1b3600
356c00
35ff80
6c0c00
181800
ENDCHAR
STARTCHAR 305f
ENCODING 12383
SWIDTH 960 0
DWIDTH 16 0
BBX 21 16 -2 -2
BITMAP
000000
03ffe0
031860
0630c0
07ffc0
0630c0
0fff80
000000
07ff00
0c0600
0ffe00
0c0600
1ffc00
180c00
180c00
303800
ENDCHAR
STARTCHAR 3060
ENCODING 12384
SWIDTH 960 0
DWIDTH 16 0
BBX 21 16 -2 -2
BITMAP
003180
07fff8
003180
000780
03fc00
001800
1fffe0
00d400
03b600
1e6380
3fffc0
039800
063000
1fe000
07b800
7c0c00
ENDCHAR
STARTCHAR 3061
ENCODING 12385
SWIDTH 960 0
DWIDTH 16 0
BBX 21 16 -2 -2
BITMAP
000c00
000c00
000c00
001800
0ffff0
003800
007180
00d980
019b00
0f1c00
3b1800
030c00
060c00
06e600
1f0300
700300
ENDCHAR
STARTCHAR 3062
ENCODING 12386
SWIDTH 960 0
DWIDTH 16 0
BBX 21 16 -2 -2
BITMAP
000000
03f7f0
000db0
0fffe0
001b60
07eb60
003fc0
000000
0fdfc0
003180
1fbf80
19b180
337f00
336300
3f6300
66ce00
ENDCHAR
STARTCHAR 3063
ENCODING 12387
SWIDTH 960 0
DWIDTH 16 0
BBX 21 16 -2 -2
BITMAP
000300
033fe0
030660
030cc0
00fff0
000000
007f80
1f6180
037f80
060c00
06ff80
06cc00
0fff80
1a1800
739800
c0ff00
ENDCHAR
STARTCHAR 3064
ENCODING 12388
SWIDTH 960 0
DWIDTH 16 0
BBX 21 16 -2 -2
BITMAP
000300
031fc0
031b40
033f80
000600
00ffe0
000000
1f7f00
036300
06fe00
06c600
06fe00
0e8c00
1afc00
738600
c0ff00
ENDCHAR
STARTCHAR 3065
ENCODING 12389
SWIDTH 960 0
DWIDTH 16 0
BBX 21 16 -2 -2
BITMAP
000000
03fff0
031800
063000
067fc0
06cc00
0d1800
0fffc0
0c3400
186c00
18c600
1b8600
360600
340000
3fff00
600000
ENDCHAR
STARTCHAR 3066
ENCODING 12390
SWIDTH 960 0
DWIDTH 16 0
BBX 21 16 -2 -2
BITMAP
006300
006300
006300
00c600
07ffc0
00c600
018c00
018c00
018c00
3fff80
031800
061800
063000
0c3000
183000
306000
ENDCHAR
STARTCHAR 3067
ENCODING 12391
SWIDTH 960 0
DWIDTH 16 0
BBX 21 16 -2 -2
BITMAP
000c00
000c00
000c00
0ffff0
003000
006700
074c00
019800
00f300
00cc00
039800
0e7800
00d800
038c00
1e0c00
f00c00
ENDCHAR
STARTCHAR 3068
ENCODING 12392
SWIDTH 960 0
DWIDTH 16 0
BBX 21 16 -2 -2
BITMAP
018180
0181a0
0181b0
037ff0
030300
0ffd60
06dac0
06dac0
06da80
0df700
0db700
0f9a00
1cee80
739a80
0e7380
00c300
ENDCHAR
STARTCHAR 3069
ENCODING 12393
SWIDTH 960 0
DWIDTH 16 0
BBX 21 16 -2 -2
BITMAP
000c00
000c00
07fff8
006600
00c380
03fec0
1e00c0
03ff00
030300
060600
07fe00
060600
0ffc00
0c0c00
0c1c00
181800
ENDCHAR
STARTCHAR 306a
ENCODING 12394
SWIDTH 960 0
DWIDTH 16 0
BBX 21 16 -2 -2
BITMAP
006000
0061f0
07ffb0
00c360
018340
01fb80
073680
0736c0
0df6c0
3a6cc0
066cc0
07ee80
0cdb00
0cd800
0dd800
19b000
ENDCHAR
STARTCHAR 306b
ENCODING 12395
SWIDTH 960 0
DWIDTH 16 0
BBX 21 16 -2 -2
BITMAP
000d60
07f560
01bf80
031ac0
031aa0
0677d0
0ddd80
0f8cc0
0dffe0
3b6d00
1b6d00
1b7600
3ed580
369a80
373380
1cc300
ENDCHAR
STARTCHAR 306c
ENCODING 12396
SWIDTH 960 0
DWIDTH 16 0
BBX 21 16 -2 -2
BITMAP
000000
000000
000000
000000
000000
000000
0000c0
1fffe0
000000
000000
000000
000000
000000
000000
000000
000000
ENDCHAR
STARTCHAR 306d
ENCODING 12397
SWIDTH 960 0
DWIDTH 16 0
BBX 21 16 -2 -2
BITMAP
001800
001800
07fff0
003000
003000
03ff80
000000
0fffc0
180180
361800
067000
07c000
0c0000
0c0c00
060c00
03f800
ENDCHAR
STARTCHAR 306e
ENCODING 12398
SWIDTH 960 0
DWIDTH 16 0
BBX 21 16 -2 -2
BITMAP
01b060
00d8c0
00d8c0
01fff0
0c1b00
0c3180
0c6180
00c180
0380c0
0eff40
0dab00
19ab00
1b5600
335600
6fff80
c00000
ENDCHAR
STARTCHAR 306f
ENCODING 12399
SWIDTH 960 0
DWIDTH 16 0
BBX 21 16 -2 -2
BITMAP
000600
0307c0
030d80
033b00
00ffc0
0036c0
006d80
1f6d80
037f80
063400
063400
066cc0
0ecd80
1b0780
71c000
c07f00
ENDCHAR
STARTCHAR 3070
ENCODING 12400
SWIDTH 960 0
DWIDTH 16 0
BBX 21 16 -2 -2
BITMAP
003060
00e1c0
03cf00
018060
019a60
0ffec0
031a80
030300
07b7c0
0ea980
1aa980
366f80
6cd300
0cd300
0cdf00
19a600
ENDCHAR
STARTCHAR 3071
ENCODING 12401
SWIDTH 960 0
DWIDTH 16 0
BBX 21 16 -2 -2
BITMAP
003180
003180
07fff8
006300
006b00
031800
033fc0
0334c0
006d80
00d800
069c00
0c3c00
186c00
30c600
638300
1e0300
ENDCHAR
STARTCHAR 3072
ENCODING 12402
SWIDTH 960 0
DWIDTH 16 0
BBX 21 16 -2 -2
BITMAP
003180
003180
07fff8
006300
006300
000000
07ff80
003000
003000
3fffc0
006000
006000
00c000
00c000
03c000
018000
ENDCHAR
STARTCHAR 3073
ENCODING 12403
SWIDTH 960 0
DWIDTH 16 0
BBX 21 16 -2 -2
BITMAP
00c000
00fff0
01b330
074660
0feee0
06a980
0d5300
0fddc0
0d4ec0
1aaa80
1faa80
03bb80
3ad500
35bb00
6d7300
c1dc00
ENDCHAR
STARTCHAR 3074
ENCODING 12404
SWIDTH 960 0
DWIDTH 16 0
BBX 21 16 -2 -2
BITMAP
001800
001800
003600
003600
006380
01df40
1f68c0
00d800
019800
01b000
033000
063000
066000
0c6300
383300
601e00
ENDCHAR
STARTCHAR 3075
ENCODING 12405
SWIDTH 960 0
DWIDTH 16 0
BBX 21 16 -2 -2
BITMAP
001800
007000
03c7f0
060c60
060c60
060c60
0fe8c0
0c18c0
0c18c0
183180
1fd180
183700
306000
006000
006000
00c000
ENDCHAR
STARTCHAR 3076
ENCODING 12406
SWIDTH 960 0
DWIDTH 16 0
BBX 21 16 -2 -2
BITMAP
000000
003ff0
07d330
0da660
0da660
0da660
1b7fc0
1b4cc0
1b4cc0
369d80
36b580
3ee680
6d8700
030300
03ff00
060600
ENDCHAR
STARTCHAR 3077
ENCODING 12407
SWIDTH 960 0
DWIDTH 16 0
BBX 21 16 -2 -2
BITMAP
000000
00ffc0
00c0c0
018180
01ff80
000000
07ff80
060180
07ff80
0c0300
0fff00
0c0300
1ffe00
033800
0e0c00
780600
ENDCHAR
STARTCHAR 3078
ENCODING 12408
SWIDTH 960 0
DWIDTH 16 0
BBX 21 16 -2 -2
BITMAP
000000
03fff0
030030
061860
061860
061860
0fffc0
0c68c0
0cd8c0
18d980
199980
1b0d80
340d00
300300
3fff00
600600
ENDCHAR
STARTCHAR 3079
ENCODING 12409
SWIDTH 960 0
DWIDTH 16 0
BBX 21 16 -2 -2
BITMAP
00c000
00cff0
00cc30
019b60
0feb60
036fe0
06d6c0
06d6c0
0db6c0
19aa80
3f6a80
037380
0d4300
18c300
70ff00
018600
ENDCHAR
STARTCHAR 307a
ENCODING 12410
SWIDTH 960 0
DWIDTH 16 0
BBX 21 16 -2 -2
BITMAP
000060
07fc60
000c60
0018c0
0018c0
07f8c0
0c0180
0c0180
0c0180
1fe300
186300
006300
00c600
00c600
038600
1e0c00
ENDCHAR
STARTCHAR 307b
ENCODING 12411
SWIDTH 960 0
DWIDTH 16 0
BBX 21 16 -2 -2
BITMAP
00c300
00c300
01e300
03a600
06b7f0
0fee60
0cdac0
0fd680
0ce600
198c00
1f9a00
1a3600
363600
376600
3d4300
e38300
ENDCHAR
STARTCHAR 307c
ENCODING 12412
SWIDTH 960 0
DWIDTH 16 0
BBX 21 16 -2 -2
BITMAP
018060
00c1c0
00df30
0c6c60
0636c0
063680
000380
007e00
030c00
031800
0dffc0
181800
183000
303000
63ff00
c00000
ENDCHAR
STARTCHAR 307d
ENCODING 12413
SWIDTH 960 0
DWIDTH 16 0
BBX 21 16 -2 -2
BITMAP
018c60
018c60
01bb60
0334c0
0318c0
037740
07dd80
060180
06fd80
0d9b00
0dfb00
199b00
1bf600
333680
633680
c6e700
ENDCHAR
STARTCHAR 307e
ENCODING 12414
SWIDTH 960 0
DWIDTH 16 0
BBX 21 16 -2 -2
BITMAP
003180
07fff8
006180
006300
07c700
069d80
0d3680
0ee0e0
0d3f00
1b0c00
1b7f00
1b0000
3dff00
306c00
31da00
636600
ENDCHAR
STARTCHAR 3121
ENCODING 12577
SWIDTH 960 0
DWIDTH 16 0
BBX 21 16 -2 -2
BITMAP
000180
03e180
036ff8
06d030
06b030
071fe0
0d0000
0d8000
0dffe0
1b3600
1b3600
1e6600
346c00
30cd80
338d80
660700
ENDCHAR
STARTCHAR 3122
ENCODING 12578
SWIDTH 960 0
DWIDTH 16 0
BBX 21 16 -2 -2
BITMAP
000300
03e300
036680
06dd80
06b740
076070
0d3f00
0d8600
0d9c00
1b7700
1b0000
1bffc0
3c6800
30cc00
37fc00
600c00
ENDCHAR
STARTCHAR 3123
ENCODING 12579
SWIDTH 960 0
DWIDTH 16 0
BBX 21 16 -2 -2
BITMAP
000070
03e1d0
037f60
06d340
069b80
073fe0
0d00c0
0dbfc0
0d80c0
1b7f80
1b0c00
1ad580
3dad80
31a180
333680
601c00
ENDCHAR
STARTCHAR 3124
ENCODING 12580
SWIDTH 960 0
DWIDTH 16 0
BBX 21 16 -2 -2
BITMAP
00c000
00cfe0
07fc60
0668c0
036fc0
03c000
1f7f80
003180
0fdf80
19a300
19bf00
1fa300
337e00
336c00
3fc600
670600
ENDCHAR
STARTCHAR 3125
ENCODING 12581
SWIDTH 960 0
DWIDTH 16 0
BBX 21 16 -2 -2
BITMAP
0000c0
0000c0
07e0c0
0cc180
0cfff0
0cc180
19a300
19b300
19b300
333600
330600
3f0600
660c00
600c00
001c00
001800
ENDCHAR
STARTCHAR 3126
ENCODING 12582
SWIDTH 960 0
DWIDTH 16 0
BBX 21 16 -2 -2
BITMAP
001800
001800
001800
0fffe0
006000
006000
00c000
018000
01ff00
070600
0d0600
3b0600
660c00
060c00
07fc00
0c1800
ENDCHAR
STARTCHAR 3127
ENCODING 12583
SWIDTH 960 0
DWIDTH 16 0
BBX 21 16 -2 -2
BITMAP
001800
001800
03fff0
0600c0
060000
0dff00
006000
006000
006000
3fff80
00c000
00c000
018000
018000
078000
030000
ENDCHAR
STARTCHAR 3128
ENCODING 12584
SWIDTH 960 0
DWIDTH 16 0
BBX 21 16 -2 -2
BITMAP
000c00
001800
01ff80
030300
030300
030300
07fe00
060000
07ffe0
0c0000
0fff80
001980
359b00
36db00
66c600
c03c00
ENDCHAR
STARTCHAR 3129
ENCODING 12585
SWIDTH 960 0
DWIDTH 16 0
BBX 21 16 -2 -2
BITMAP
000000
03fbf0
001830
003060
033660
033360
0366c0
0060c0
01e1c0
034680
0edd80
38f180
018300
018300
018300
070e00
ENDCHAR
STARTCHAR 312a
ENCODING 12586
SWIDTH 960 0
DWIDTH 16 0
BBX 21 16 -2 -2
BITMAP
000000
033fe0
030300
030600
000600
000600
01ffc0
1f0c00
030c00
061800
061800
061800
0ef000
1b3000
71c000
c07f00
ENDCHAR
STARTCHAR 312b
ENCODING 12587
SWIDTH 960 0
DWIDTH 16 0
BBX 21 16 -2 -2
BITMAP
000000
07fff8
000c00
001800
07ffe0
061860
0d34c0
0db6c0
0db6c0
186180
1a6980
1a6d80
36db00
30c300
30cf00
600600
ENDCHAR
STARTCHAR 312c
ENCODING 12588
SWIDTH 960 0
DWIDTH 16 0
BBX 21 16 -2 -2
BITMAP
003000
00e000
0387e0
066cc0
066cc0
066cc0
0cd980
0cd980
0cd980
19b300
1fb300
39b600
036c00
066000
1c6000
30c000
ENDCHAR
STARTCHAR 312d
ENCODING 12589
SWIDTH 960 0
DWIDTH 16 0
BBX 21 16 -2 -2
BITMAP
033180
01b300
01a7e0
0ff4c0
01b7c0
07f4c0
0d1f80
0d1800
0fefe0
06d000
0edf80
1ed580
375500
6cd500
0d8600
181c00
ENDCHAR
STARTCHAR 312e
ENCODING 12590
SWIDTH 960 0
DWIDTH 16 0
BBX 21 16 -2 -2
BITMAP
001800
001800
03fff0
066cc0
0dcfe0
060000
033f80
0fd180
033f80
066300
3fff00
066300
0efe00
1b3580
70ed80
c70700
ENDCHAR
STARTCHAR 312f
ENCODING 12591
SWIDTH 960 0
DWIDTH 16 0
BBX 21 16 -2 -2
BITMAP
000000
01ff80
003180
006300
006300
006300
00c600
1fffc0
018600
030c00
030c00
030c00
061800
061800
7fff80
000000
ENDCHAR
STARTCHAR 3130
ENCODING 12592
SWIDTH 960 0
DWIDTH 16 0
BBX 21 16 -2 -2
BITMAP
000360
07fb60
00c6c0
018ff0
019980
037980
07d300
0edfc0
1ed300
35a600
0dbf80
0da600
1f4c00
1b4c00
18ff80
018000
ENDCHAR
STARTCHAR 3131
ENCODING 12593
SWIDTH 960 0
DWIDTH 16 0
BBX 21 16 -2 -2
BITMAP
000c00
003800
01e7e0
0300c0
0300c0
0300c0
060180
060180
07df80
0c0300
0c0300
0c0300
180600
180600
1ffe00
300c00
ENDCHAR
STARTCHAR 3132
ENCODING 12594
SWIDTH 960 0
DWIDTH 16 0
BBX 21 16 -2 -2
BITMAP
018000
00dfc0
00d8c0
003180
003780
0c3580
0c6b00
0cffc0
06c0c0
06bd80
0dad80
19ad80
1b7b00
335b00
630300
c60e00
ENDCHAR
STARTCHAR 3133
ENCODING 12595
SWIDTH 960 0
DWIDTH 16 0
BBX 21 16 -2 -2
BITMAP
000300
0003f0
07c300
0dbff0
0dac60
0dafc0
1b7800
1b58c0
1b5fc0
369a00
3eda80
375b00
06d600
0c3400
1bff80
000000
ENDCHAR
STARTCHAR 3134
ENCODING 12596
SWIDTH 960 0
DWIDTH 16 0
BBX 21 16 -2 -2
BITMAP
000000
0007f0
03f630
066c60
066c60
066fe0
0cd8c0
0cd8c0
0cdfc0
19b180
19b180
1fb180
337f00
003600
00e300
078300
ENDCHAR
STARTCHAR 3135
ENCODING 12597
SWIDTH 960 0
DWIDTH 16 0
BBX 21 16 -2 -2
BITMAP
01b6c0
07edf8
01b6e0
07bba0
0d6eb0
0fff80
0d9980
0fff80
0fc300
0dbfc0
0f8600
0da600
1f6c00
1a0c00
3d0c00
e33800
ENDCHAR
STARTCHAR 3136
ENCODING 12598
SWIDTH 960 0
DWIDTH 16 0
BBX 21 16 -2 -2
BITMAP
006300
006300
07fff8
00c600
0000c0
07f8c0
0c3180
0fffe0
0c0180
1bd300
181b00
1feb00
358600
354600
6b4e00
0e0c00
ENDCHAR
STARTCHAR 3137
ENCODING 12599
SWIDTH 960 0
DWIDTH 16 0
BBX 21 16 -2 -2
BITMAP
00c000
00f7e0
01a660
074fc0
0ff4c0
06b7c0
0d6000
0fffc0
0d7540
1aff80
1fc000
03ff00
3b6c00
353800
6cf600
c38300
ENDCHAR
STARTCHAR 3138
ENCODING 12600
SWIDTH 960 0
DWIDTH 16 0
BBX 21 16 -2 -2
BITMAP
00c300
00c360
00dfe0
018680
0fe680
036700
06ffe0
06cc00
0d9800
19b300
3f5600
37b800
0d6000
186300
706300
003e00
ENDCHAR
STARTCHAR 3139
ENCODING 12601
SWIDTH 960 0
DWIDTH 16 0
BBX 21 16 -2 -2
BITMAP
000000
01fff8
018000
037be0
035a80
035a80
06f500
06b500
06bfe0
0de600
0d0e00
1b4e00
1adc00
36d580
6f6d80
398700
ENDCHAR
STARTCHAR 313a
ENCODING 12602
SWIDTH 960 0
DWIDTH 16 0
BBX 21 16 -2 -2
BITMAP
018360
00c330
00fff8
000600
0c0600
0c7fe0
0cccc0
00ccc0
06ffc0
069980
0d9980
19ff80
1b3300
333300
633700
c66600
ENDCHAR
STARTCHAR 313b
ENCODING 12603
SWIDTH 960 0
DWIDTH 16 0
BBX 21 16 -2 -2
BITMAP
0000c0
000780
01fc00
030300
033300
033300
066600
066600
066600
0cc600
0cd600
18d600
19b400
31fa00
6f1a00
c03600
ENDCHAR
STARTCHAR 313c
ENCODING 12604
SWIDTH 960 0
DWIDTH 16 0
BBX 21 16 -2 -2
BITMAP
000000
07f7f0
063630
0fefe0
0c6c60
0fefe0
1800c0
1bfec0
1860c0
30c180
33f980
30c180
618300
6ffd00
600700
c00600
ENDCHAR
STARTCHAR 313d
ENCODING 12605
SWIDTH 960 0
DWIDTH 16 0
BBX 21 16 -2 -2
BITMAP
0018c0
000d80
07fff8
0d9a00
0dbfc0
0dbac0
1b6780
1b7f80
1b4180
36ff00
3e0c00
37ffc0
031800
019800
019800
007000
ENDCHAR
STARTCHAR 313e
ENCODING 12606
SWIDTH 960 0
DWIDTH 16 0
BBX 21 16 -2 -2
BITMAP
000000
000000
01ffc0
000000
000000
000000
1fffc0
006000
00c000
00d800
018c00
070c00
0cfe00
7f8600
000600
000c00
ENDCHAR
STARTCHAR 313f
ENCODING 12607
SWIDTH 960 0
DWIDTH 16 0
BBX 21 16 -2 -2
BITMAP
000000
033ff8
036330
034600
007fe0
000600
00ff80
1f4d80
037f80
069b00
06ff00
061800
0fff00
1b3000
71c000
c07f00
ENDCHAR
STARTCHAR 3140
ENCODING 12608
SWIDTH 960 0
DWIDTH 16 0
BBX 21 16 -2 -2
BITMAP
000000
03ffe0
000c00
07ffe0
061860
0febc0
183000
07d780
000000
0ffe00
000000
3fff80
036000
063800
3fec00
000c00
ENDCHAR
STARTCHAR 3141
ENCODING 12609
SWIDTH 960 0
DWIDTH 16 0
BBX 21 16 -2 -2
BITMAP
003300
003300
07fff8
006600
006600
00c1c0
018700
037e00
030600
0e0c00
1affc0
360c00
0c1800
0c1800
0dff00
180000
ENDCHAR
STARTCHAR 3142
ENCODING 12610
SWIDTH 960 0
DWIDTH 16 0
BBX 21 16 -2 -2
BITMAP
00c000
00dff8
01a660
036cc0
06b4c0
0fefc0
0cd980
0fd980
0cdf80
19b300
1fb300
1b33c0
337e00
376600
3d8600
e30c00
ENDCHAR
STARTCHAR 3143
ENCODING 12611
SWIDTH 960 0
DWIDTH 16 0
BBX 21 16 -2 -2
BITMAP
00c000
00fbe0
00c060
0ffac0
0c1ac0
07f6c0
01ad80
0db580
1b4d00
0fed00
1cd600
37ce00
199a00
1fb600
19e300
3f0300
ENDCHAR
STARTCHAR 3144
ENCODING 12612
SWIDTH 960 0
DWIDTH 16 0
BBX 21 16 -2 -2
BITMAP
01b0c0
00d8c0
00db80
07fee0
0600c0
0dff00
030600
030600
03fe00
00c000
018000
0ffe00
180c00
180c00
1ffc00
301800
ENDCHAR
STARTCHAR 3145
ENCODING 12613
SWIDTH 960 0
DWIDTH 16 0
BBX 21 16 -2 -2
BITMAP
000000
03f7e0
033660
07efc0
066cc0
07efc0
0cd980
0fdf80
0ecd80
18d180
3fffc0
039800
063000
0fe000
07b000
7c1800
ENDCHAR
STARTCHAR 3146
ENCODING 12614
SWIDTH 960 0
DWIDTH 16 0
BBX 21 16 -2 -2
BITMAP
000060
01fc60
018cc0
03f980
031b60
03fac0
0180c0
1ff980
000740
0fecc0
0c6180
0fe300
060300
36c600
666c00
1c3000
ENDCHAR
STARTCHAR 3147
ENCODING 12615
SWIDTH 960 0
DWIDTH 16 0
BBX 21 16 -2 -2
BITMAP
000300
000300
07c300
0dbfc0
0db6c0
0db6c0
1f6d80
1b6d80
1bffe0
361800
363400
3e6c00
6ccc00
018600
070300
1c0300
ENDCHAR
STARTCHAR 3148
ENCODING 12616
SWIDTH 960 0
DWIDTH 16 0
BBX 21 16 -2 -2
BITMAP
001800
001800
01ffc0
033180
033180
03ff80
066300
066300
07ff80
0cc600
00cc00
007800
01c300
0f6300
783b00
000e00
ENDCHAR
STARTCHAR 3149
ENCODING 12617
SWIDTH 960 0
DWIDTH 16 0
BBX 21 16 -2 -2
BITMAP
0330c0
0198c0
018d80
019b00
07ffe0
0c00c0
186000
006000
1fffc0
01e000
035000
0ed800
198c00
718700
018000
030000
ENDCHAR
STARTCHAR 314a
ENCODING 12618
SWIDTH 960 0
DWIDTH 16 0
BBX 21 16 -2 -2
BITMAP
003800
000c00
000e00
00f800
0018c0
001980
0fdb00
00da00
01bc00
01a800
036c00
0e6600
18c600
70c380
03c000
018000
ENDCHAR
STARTCHAR 314b
ENCODING 12619
SWIDTH 960 0
DWIDTH 16 0
BBX 21 16 -2 -2
BITMAP
018e00
00c300
00c180
000000
0c3e60
0c06c0
0c0cc0
01f680
006f00
006c00
0cda00
199a00
1b3600
363300
6cf180
c06000
ENDCHAR
STARTCHAR 314c
ENCODING 12620
SWIDTH 960 0
DWIDTH 16 0
BBX 21 16 -2 -2
BITMAP
018600
00c600
00dfe0
01acc0
0c6cc0
0c7fc0
0cd980
0cd980
06ffc0
063300
0c3600
183c00
183000
30e980
6f8d80
c00700
ENDCHAR
STARTCHAR 314d
ENCODING 12621
SWIDTH 960 0
DWIDTH 16 0
BBX 21 16 -2 -2
BITMAP
000cc0
000cc0
07fff8
031980
031a80
030600
067f80
1fad80
066d80
0cdb00
0dffc0
0c3c00
1e6c00
78c600
038300
1e0300
ENDCHAR
STARTCHAR 314e
ENCODING 12622
SWIDTH 960 0
DWIDTH 16 0
BBX 21 16 -2 -2
BITMAP
000000
03ffc0
0060c0
00c180
00fee0
01ac60
0368c0
0630c0
1ceb80
379c00
0fff00
0d9b00
1b3600
1b3600
7fff80
000000
ENDCHAR
STARTCHAR 314f
ENCODING 12623
SWIDTH 960 0
DWIDTH 16 0
BBX 21 16 -2 -2
BITMAP
030000
0337f8
03e380
060600
0637e0
03f460
0018c0
00efc0
0f98c0
033f80
3ff180
0fb180
1abf00
36d600
66e300
0d8300
ENDCHAR
STARTCHAR 3150
ENCODING 12624
SWIDTH 960 0
DWIDTH 16 0
BBX 21 16 -2 -2
BITMAP
030000
0337f8
03e380
060600
0637e0
03f460
0018c0
07dfc0
0018c0
3fff80
033180
0db180
1abf00
36b600
66e300
1d8300
ENDCHAR
STARTCHAR 3151
ENCODING 12625
SWIDTH 960 0
DWIDTH 16 0
BBX 21 16 -2 -2
BITMAP
006180
006180
07fff8
00c300
00db00
001800
07ff80
063180
063180
0c6300
3fffc0
01d000
033000
061800
1c0e00
f00300
ENDCHAR
STARTCHAR 3152
ENCODING 12626
SWIDTH 960 0
DWIDTH 16 0
BBX 21 16 -2 -2
BITMAP
00d800
00df70
019b00
033600
06ff00
0cc000
01ffe0
034d80
06fd80
1c3300
35fd00
0cd300
19a600
1bfa00
186e00
30cc00
ENDCHAR
STARTCHAR 3153
ENCODING 12627
SWIDTH 960 0
DWIDTH 16 0
BBX 21 16 -2 -2
BITMAP
000600
03e300
000180
0fe060
001e60
07c6c0
000ec0
00fe80
0f9d00
003b00
1f6b00
1b5b00
36b300
373180
3e7000
6c6000
ENDCHAR
STARTCHAR 3154
ENCODING 12628
SWIDTH 960 0
DWIDTH 16 0
BBX 21 16 -2 -2
BITMAP
00c660
00c360
01a3c0
036760
063460
0fec60
0318c0
0318c0
1fefc0
061a00
369a00
373600
363400
0dad80
3ecd80
e30700
ENDCHAR
STARTCHAR 3155
ENCODING 12629
SWIDTH 960 0
DWIDTH 16 0
BBX 21 16 -2 -2
BITMAP
018300
00c300
00fff8
001b00
0c1b00
0c37c0
0c6d80
00ee80
06af80
06d500
0ce600
18ce00
199a00
31b600
61e300
c38300
ENDCHAR
STARTCHAR 3156
ENCODING 12630
SWIDTH 960 0
DWIDTH 16 0
BBX 21 16 -2 -2
BITMAP
000600
000600
00fff8
0d8000
06bf00
06b360
036340
0361c0
0fc000
1b7e00
366c00
0c6800
187000
306800
61cc00
1f0600
ENDCHAR
STARTCHAR 3157
ENCODING 12631
SWIDTH 960 0
DWIDTH 16 0
BBX 21 16 -2 -2
BITMAP
00c180
006180
006300
006e00
0ffff0
00c300
018300
030300
0e0180
1bfe80
36d600
06d600
0dac00
0dac00
7fff00
000000
ENDCHAR
STARTCHAR 3158
ENCODING 12632
SWIDTH 960 0
DWIDTH 16 0
BBX 21 16 -2 -2
BITMAP
000000
03fdf0
036330
06c660
07f660
06c660
0fefc0
0d8ec0
0d8e00
1fea00
0d6a00
1f7600
355600
34e600
63c300
0e8300
ENDCHAR
STARTCHAR 3159
ENCODING 12633
SWIDTH 960 0
DWIDTH 16 0
BBX 21 16 -2 -2
BITMAP
00cc60
00c660
00c6c0
018f40
06d8c0
06d8c0
0d5180
0d3180
1b3f80
063400
063400
066c00
0c6800
0cdb00
0d9b00
1a0e00
ENDCHAR
STARTCHAR 315a
ENCODING 12634
SWIDTH 960 0
DWIDTH 16 0
BBX 21 16 -2 -2
BITMAP
000000
03efe0
000c60
0fffc0
0018c0
07e8c0
003f80
001800
0fdfc0
007680
1fb580
19d980
336d00
333d00
3f0600
661c00
ENDCHAR
STARTCHAR 315b
ENCODING 12635
SWIDTH 960 0
DWIDTH 16 0
BBX 21 16 -2 -2
BITMAP
0061a0
0061b0
006180
03f7f0
00cd00
00cd60
0ffac0
019ac0
069a80
0dd700
0d3ac0
1b6d40
1e3380
36e180
638000
c0ff00
ENDCHAR
STARTCHAR 315c
ENCODING 12636
SWIDTH 960 0
DWIDTH 16 0
BBX 21 16 -2 -2
BITMAP
000000
07f7f0
063630
0fefe0
0c6c60
0fefe0
1998c0
18d0c0
1bfcc0
361980
361980
37f980
634300
635b00
667b00
dc0e00
ENDCHAR
STARTCHAR 315d
ENCODING 12637
SWIDTH 960 0
DWIDTH 16 0
BBX 21 16 -2 -2
BITMAP
00c000
00dff8
00c300
0fefc0
0198c0
019fc0
07b180
075f80
075180
0eff00
1a1800
363f00
0dec00
0c3800
0dee00
1b0300
ENDCHAR
STARTCHAR 315e
ENCODING 12638
SWIDTH 960 0
DWIDTH 16 0
BBX 21 16 -2 -2
BITMAP
000000
03fff8
030000
06f9a0
0699b0
06f980
0d3fe0
0df300
0c0300
1be700
1a6d00
1bed00
34db00
37d300
6ce300
db8300
ENDCHAR
STARTCHAR 315f
ENCODING 12639
SWIDTH 960 0
DWIDTH 16 0
BBX 21 16 -2 -2
BITMAP
000000
03ffe0
031860
0630c0
0630c0
0630c0
0c6180
0fff80
0c0180
180300
180300
180300
300600
300600
300e00
600c00
ENDCHAR
STARTCHAR 3160
ENCODING 12640
SWIDTH 960 0
DWIDTH 16 0
BBX 21 16 -2 -2
BITMAP
000000
03fff0
030c30
06ff60
061860
07ffe0
0c00c0
0dfec0
0d86c0
1bfd80
19d680
1b5d80
3d9f00
318300
3fff00
600600
ENDCHAR
STARTCHAR 3161
ENCODING 12641
SWIDTH 960 0
DWIDTH 16 0
BBX 21 16 -2 -2
BITMAP
018000
01bff8
01b000
036fc0
0368c0
0fefc0
06d180
06df80
06cc00
0dffc0
0db600
1ebc00
733400
036600
03ff80
060000
ENDCHAR
STARTCHAR 3162
ENCODING 12642
SWIDTH 960 0
DWIDTH 16 0
BBX 21 16 -2 -2
BITMAP
000c00
000c00
07fff8
003400
006600
00db00
07ff80
1d36e0
033600
07fc00
066c00
066c00
0ff800
0cdb00
00c300
007e00
ENDCHAR
STARTCHAR 3163
ENCODING 12643
SWIDTH 960 0
DWIDTH 16 0
BBX 21 16 -2 -2
BITMAP
001800
001800
03fff0
0600c0
06ff00
0d8300
03fe00
030600
03fe00
00c000
3fff80
039800
063000
0fe000
07b000
7c1800
ENDCHAR
STARTCHAR 3164
ENCODING 12644
SWIDTH 960 0
DWIDTH 16 0
BBX 21 16 -2 -2
BITMAP
000060
07e1c0
006f80
00c300
018300
071b00
0db7c0
01b600
0db600
0d6c00
0d6c00
0e6c00
0fff80
1b0000
71c000
c07f00
ENDCHAR
STARTCHAR 3165
ENCODING 12645
SWIDTH 960 0
DWIDTH 16 0
BBX 21 16 -2 -2
BITMAP
00c000
00fbf0
01b630
01b460
076dc0
0dcc00
018c60
030c60
0e07e0
38c000
036000
0d6300
1a6300
360d80
630d80
01f800
ENDCHAR
STARTCHAR 3166
ENCODING 12646
SWIDTH 960 0
DWIDTH 16 0
BBX 21 16 -2 -2
BITMAP
018300
018300
01bff8
030d00
0fda80
0336c0
06ffc0
06ada0
066d80
0f7f00
3cdb00
0cdb00
19fe00
183180
183180
701f00
ENDCHAR
STARTCHAR 3167
ENCODING 12647
SWIDTH 960 0
DWIDTH 16 0
BBX 21 16 -2 -2
BITMAP
0180e0
01bf80
019e60
0fdac0
031a80
037fe0
061800
06ffe0
079800
3c7f00
0ce600
0db400
183800
186800
19ce00
770300
ENDCHAR
STARTCHAR 3168
ENCODING 12648
SWIDTH 960 0
DWIDTH 16 0
BBX 21 16 -2 -2
BITMAP
0187c0
00c0c0
00ccc0
0018c0
0c18c0
0c30c0
0c60c0
0cc060
06ff80
06c300
0cc300
18c300
198600
318600
61fe00
c30c00
ENDCHAR
STARTCHAR 3169
ENCODING 12649
SWIDTH 960 0
DWIDTH 16 0
BBX 21 16 -2 -2
BITMAP
018300
00c300
00dff8
006060
0cffe0
0c0600
0cffc0
00ccc0
00ccc0
0dff80
0d9980
199980
33ff00
30ce00
638300
ce0300
ENDCHAR
STARTCHAR 316a
ENCODING 12650
SWIDTH 960 0
DWIDTH 16 0
BBX 21 16 -2 -2
BITMAP
001800
00d980
019b80
033600
066800
01cc00
070600
1c6380
006600
06cc00
06d800
0da000
3b6000
063000
1c1c00
f00600
ENDCHAR
STARTCHAR 316b
ENCODING 12651
SWIDTH 960 0
DWIDTH 16 0
BBX 21 16 -2 -2
BITMAP
00c300
00c300
00c3e0
01a6c0
06ad80
06db80
0d8600
0d6fc0
1b6cc0
075980
0d5980
1bdf80
1bb300
31b300
61bf00
c36600
ENDCHAR
STARTCHAR 316c
ENCODING 12652
SWIDTH 960 0
DWIDTH 16 0
BBX 21 16 -2 -2
BITMAP
00c000
00dff0
00c680
01ad00
06bfc0
06f540
0daa80
0d6a80
1b7f80
061800
071800
0d7f00
1b3000
1b3000
33ff80
e00000
ENDCHAR
STARTCHAR 316d
ENCODING 12653
SWIDTH 960 0
DWIDTH 16 0
BBX 21 16 -2 -2
BITMAP
003300
003300
07fff8
006600
01be80
0181a0
1f7d40
034d80
034d00
0e9ac0
3afac0
069bc0
000000
1b3600
731b00
c33300
ENDCHAR
STARTCHAR 316e
ENCODING 12654
SWIDTH 960 0
DWIDTH 16 0
BBX 21 16 -2 -2
BITMAP
00c300
06c300
039fe0
018600
037ff0
0f8000
1b7f80
036180
076700
0efd80
1a6980
36eb00
0f5a00
0ccc00
79f600
370300
ENDCHAR
STARTCHAR 316f
ENCODING 12655
SWIDTH 960 0
DWIDTH 16 0
BBX 21 16 -2 -2
BITMAP
00c000
00cfc0
01b0c0
0eaf80
034180
03bff0
036c00
06dac0
1ff780
06de00
1b3600
1b7d00
356b00
35d980
6c3000
18e000
ENDCHAR
STARTCHAR 3170
ENCODING 12656
SWIDTH 960 0
DWIDTH 16 0
BBX 21 16 -2 -2
BITMAP
00d180
03fdf0
035560
07fac0
06ad80
07ffe0
001b40
1ffb40
001b40
1fdf80
18d180
1fd000
1b6000
0e6180
7fd180
001f00
ENDCHAR
STARTCHAR 3171
ENCODING 12657
SWIDTH 960 0
DWIDTH 16 0
BBX 21 16 -2 -2
BITMAP
003180
003180
07fff8
006300
006300
018000
03f7c0
0334c0
066cc0
0e6980
1b5980
339b00
033000
063180
1c1980
700f00
ENDCHAR
STARTCHAR 3172
ENCODING 12658
SWIDTH 960 0
DWIDTH 16 0
BBX 21 16 -2 -2
BITMAP
006180
07fff8
006180
07ffe0
061860
06ff60
0c30c0
0fffc0
0d8cc0
1bf980
19ed80
1b5980
3dbb00
318f00
3fff00
600600
ENDCHAR
STARTCHAR 3173
ENCODING 12659
SWIDTH 960 0
DWIDTH 16 0
BBX 21 16 -2 -2
BITMAP
000600
030600
033fe0
030c00
00ffe0
000000
00ff80
1f4180
037f80
067300
06da00
07b400
0e6600
1a6380
738000
c0ff00
ENDCHAR
STARTCHAR 3174
ENCODING 12660
SWIDTH 960 0
DWIDTH 16 0
BBX 21 16 -2 -2
BITMAP
00c3e0
00c060
01a660
0366c0
066cc0
0ff8c0
0330c0
036060
1fdf80
063300
36b300
373300
35a600
0f6600
3c7e00
e0cc00
ENDCHAR
STARTCHAR 3175
ENCODING 12661
SWIDTH 960 0
DWIDTH 16 0
BBX 21 16 -2 -2
BITMAP
00c000
00ffe0
033ac0
01ad80
01d460
0e67e0
03fe00
030600
03fe00
060c00
07ffc0
060000
0fff00
35b300
66db00
c00c00
ENDCHAR
STARTCHAR 3176
ENCODING 12662
SWIDTH 960 0
DWIDTH 16 0
BBX 21 16 -2 -2
BITMAP
001800
019800
01bff0
036000
037f80
0fe180
06a300
067f00
060000
0dff00
0dad00
1ead00
735a00
035a00
0fff80
000000
ENDCHAR
STARTCHAR 3177
ENCODING 12663
SWIDTH 960 0
DWIDTH 16 0
BBX 21 16 -2 -2
BITMAP
018180
018180
018180
0ff380
030680
030d80
07dd80
06d4c0
06ec60
0d8c00
0db000
199800
1b1800
331800
661800
1c1800
ENDCHAR
STARTCHAR 3178
ENCODING 12664
SWIDTH 960 0
DWIDTH 16 0
BBX 21 16 -2 -2
BITMAP
018000
00dfe0
00c600
000c00
000c00
0dfff0
0c3000
0c3000
063000
067f00
0cc300
180300
180600
300600
601c00
c07000
ENDCHAR
STARTCHAR 3179
ENCODING 12665
SWIDTH 960 0
DWIDTH 16 0
BBX 21 16 -2 -2
BITMAP
00c000
00dfe0
035b60
06b6c0
07ffc0
0db6c0
1b6d80
037f80
0fcc00
06ff80
061980
063180
0f6300
78c300
038600
0e1c00
ENDCHAR
STARTCHAR 317a
ENCODING 12666
SWIDTH 960 0
DWIDTH 16 0
BBX 21 16 -2 -2
BITMAP
000000
03f3f0
033330
066660
066660
066660
0cccc0
0cccc0
0cfcc0
180180
180180
180180
300300
3fff00
300300
000000
ENDCHAR
STARTCHAR 317b
ENCODING 12667
SWIDTH 960 0
DWIDTH 16 0
BBX 21 16 -2 -2
BITMAP
000c00
000c00
000c00
03ffc0
0318c0
0318c0
063180
063180
1fffe0
006000
00d000
01b000
033000
061800
1c0e00
f00300
ENDCHAR
STARTCHAR 317c
ENCODING 12668
SWIDTH 960 0
DWIDTH 16 0
BBX 21 16 -2 -2
BITMAP
001800
003000
01ffe0
0318c0
035b40
036ac0
07ff80
067980
06d580
0d6700
0e6300
0cc300
7fff80
01a000
073800
fc0e00
ENDCHAR
STARTCHAR 317d
ENCODING 12669
SWIDTH 960 0
DWIDTH 16 0
BBX 21 16 -2 -2
BITMAP
00c600
00c300
018300
037fe0
06c600
0d8600
018c00
030c00
067f80
1c1800
341800
0c1800
183000
183000
1bff80
300000
ENDCHAR
STARTCHAR 317e
ENCODING 12670
SWIDTH 960 0
DWIDTH 16 0
BBX 21 16 -2 -2
BITMAP
000600
000600
01fff8
031800
030c00
030600
063600
063600
06b180
0d6180
0d60c0
1a60c0
36c180
34c600
686600
003c00
ENDCHAR
STARTCHAR 3221
ENCODING 12833
SWIDTH 960 0
DWIDTH 16 0
BBX 21 16 -2 -2
BITMAP
018000
019ff0
019b30
033660
0fd660
033fe0
066cc0
066cc0
066cc0
0f7f80
3c1800
0c1800
183000
183000
383000
306000
ENDCHAR
STARTCHAR 3222
ENCODING 12834
SWIDTH 960 0
DWIDTH 16 0
BBX 21 16 -2 -2
BITMAP
000000
07eff0
066300
0cc600
0cc600
0cc600
1f8c00
19bfc0
198c00
331800
331800
331800
7e3000
663000
07ff80
000000
ENDCHAR
STARTCHAR 3223
ENCODING 12835
SWIDTH 960 0
DWIDTH 16 0
BBX 21 16 -2 -2
BITMAP
00ccc0
00ccc0
00dff0
0fe980
019980
01fff0
078c00
077f80
076d80
0eff00
1adb00
36db00
0dfe00
0cd800
0d8c00
1e0600
ENDCHAR
STARTCHAR 3224
ENCODING 12836
SWIDTH 960 0
DWIDTH 16 0
BBX 21 16 -2 -2
BITMAP
000300
03fd00
031b00
0637f0
073560
06ab40
0dd680
0cc600
0dc600
1b4c00
1ada00
1cd600
383600
3fe600
31c300
630300
ENDCHAR
STARTCHAR 3225
ENCODING 12837
SWIDTH 960 0
DWIDTH 16 0
BBX 21 16 -2 -2
BITMAP
000000
03fde0
033360
0636c0
0766d0
06acd0
0dd8e0
0cdf80
0ddb00
1b5b00
1ada00
1cde00
381800
3fd400
31e600
670300
ENDCHAR
STARTCHAR 3226
ENCODING 12838
SWIDTH 960 0
DWIDTH 16 0
BBX 21 16 -2 -2
BITMAP
000000
03fff0
000c00
001800
001800
001800
003000
07ff80
003000
006000
006000
006000
00c000
00c000
7fff80
000000
ENDCHAR
STARTCHAR 3227
ENCODING 12839
SWIDTH 960 0
DWIDTH 16 0
BBX 21 16 -2 -2
BITMAP
006f80
006180
00ccc0
038cc0
0e3670
00e700
0fbd80
000000
0fff80
0cdb00
06cd00
03c700
0eba00
39e600
018600
071c00
ENDCHAR
STARTCHAR 3228
ENCODING 12840
SWIDTH 960 0
DWIDTH 16 0
BBX 21 16 -2 -2
BITMAP
018300
018600
019fe0
0fd6c0
00dac0
01b740
037f80
06ad80
077e80
1eeb00
355b00
0dffc0
183000
186800
19cc00
370600
ENDCHAR
STARTCHAR 3229
ENCODING 12841
SWIDTH 960 0
DWIDTH 16 0
BBX 21 16 -2 -2
BITMAP
0198c0
00cd80
03fff0
0660c0
0dff00
018300
03fe00
030600
03fe00
060000
07ff80
060000
0ffe00
35b600
66d600
c03800
ENDCHAR
STARTCHAR 322a
ENCODING 12842
SWIDTH 960 0
DWIDTH 16 0
BBX 21 16 -2 -2
BITMAP
000300
07fa00
063fe0
0c68c0
0e6fc0
0d58c0
1bbf80
19b000
1bbfe0
36a000
35bf80
399e80
71db00
7fab00
636600
c61c00
ENDCHAR
STARTCHAR 322b
ENCODING 12843
SWIDTH 960 0
DWIDTH 16 0
BBX 21 16 -2 -2
BITMAP
003300
003300
01ffe0
006600
006600
0ffff0
003000
03ff00
033300
066600
07fe00
066600
0ccc00
0ffc00
0e1c00
780600
ENDCHAR
STARTCHAR 322c
ENCODING 12844
SWIDTH 960 0
DWIDTH 16 0
BBX 21 16 -2 -2
BITMAP
000000
03fff0
030330
06c660
066660
066c60
0fffc0
0c30c0
0db6c0
1b6d80
1b6d80
1b6d80
37fb00
361b00
300300
600e00
ENDCHAR
STARTCHAR 322d
ENCODING 12845
SWIDTH 960 0
DWIDTH 16 0
BBX 21 16 -2 -2
BITMAP
018300
00c300
00c300
007fe0
0c6660
0c6660
0cccc0
00ccc0
06ffc0
069980
0c1800
181800
183000
303000
603000
c06000
ENDCHAR
STARTCHAR 322e
ENCODING 12846
SWIDTH 960 0
DWIDTH 16 0
BBX 21 16 -2 -2
BITMAP
003180
003180
07fff8
006300
00c000
068300
0686c0
0336c0
0f3680
1b6c00
074c00
1d1c00
363400
066600
07c300
3e0300
ENDCHAR
STARTCHAR 322f
ENCODING 12847
SWIDTH 960 0
DWIDTH 16 0
BBX 21 16 -2 -2
BITMAP
006300
006300
007ff0
00d0c0
019980
037ff0
060000
0e7f80
1a6180
0cff00
0cc300
0cff00
19d300
1b5980
1ac680
307c00
ENDCHAR
STARTCHAR 3230
ENCODING 12848
SWIDTH 960 0
DWIDTH 16 0
BBX 21 16 -2 -2
BITMAP
000000
01ffe0
018060
0300c0
03ffc0
030000
07ffc0
063600
06e380
0ffe80
0c3000
1bff00
186000
306000
6fff80
000000
ENDCHAR
STARTCHAR 3231
ENCODING 12849
SWIDTH 960 0
DWIDTH 16 0
BBX 21 16 -2 -2
BITMAP
018600
018600
01bfe0
033180
071b00
07fff0
0f0000
1abf80
1a6180
0cff00
0cc300
0cff00
19d000
1b5b00
1acd80
307800
ENDCHAR
STARTCHAR 3232
ENCODING 12850
SWIDTH 960 0
DWIDTH 16 0
BBX 21 16 -2 -2
BITMAP
000300
03e300
037ff0
06d8c0
06cd80
07fff0
0d8000
0dbf80
0db180
1f7f00
1b6300
1b7f00
36d000
36ab00
6f6680
cc3c00
ENDCHAR
STARTCHAR 3233
ENCODING 12851
SWIDTH 960 0
DWIDTH 16 0
BBX 21 16 -2 -2
BITMAP
00c000
00dfe0
00c1c0
0fed00
018600
01bfe0
07acc0
076cc0
0d7fc0
1ad980
36d980
06ff80
0db300
0db300
0db300
1b0e00
ENDCHAR
STARTCHAR 3234
ENCODING 12852
SWIDTH 960 0
DWIDTH 16 0
BBX 21 16 -2 -2
BITMAP
006180
01a180
01a180
034300
03f300
06dfe0
0d8600
198600
018600
03cc00
1f0c00
030c00
061800
061800
06ff80
0c0000
ENDCHAR
STARTCHAR 3235
ENCODING 12853
SWIDTH 960 0
DWIDTH 16 0
BBX 21 16 -2 -2
BITMAP
000000
01ffc0
000380
000e00
001800
007000
00c000
018000
030000
060000
0c0000
180300
300600
300600
1ffe00
000000
ENDCHAR
STARTCHAR 3236
ENCODING 12854
SWIDTH 960 0
DWIDTH 16 0
BBX 21 16 -2 -2
BITMAP
006600
006600
007ff8
00da00
019d00
033580
06ff80
0edb40
1b5b60
0dfe00
0db600
0db600
1bfc00
1b6d00
186300
303e00
ENDCHAR
STARTCHAR 3237
ENCODING 12855
SWIDTH 960 0
DWIDTH 16 0
BBX 21 16 -2 -2
BITMAP
018000
0183f0
01fd30
034660
06c660
0cc660
1ffcc0
018cc0
0d8cc0
1be980
1b1980
1b1b00
37de00
3e3000
703000
006000
ENDCHAR
STARTCHAR 3238
ENCODING 12856
SWIDTH 960 0
DWIDTH 16 0
BBX 21 16 -2 -2
BITMAP
000000
01ffe0
018c60
0318c0
03ffc0
0374c0
06c680
078380
07ff80
006000
0db000
0db300
1b3300
330d80
618d80
00f800
ENDCHAR
STARTCHAR 3239
ENCODING 12857
SWIDTH 960 0
DWIDTH 16 0
BBX 21 16 -2 -2
BITMAP
018000
00dfe0
00d860
003fc0
0c30c0
0c30c0
0c7f80
000000
060000
06ff80
0db580
19b580
1b6b00
336b00
6fff80
c00000
ENDCHAR
STARTCHAR 323a
ENCODING 12858
SWIDTH 960 0
DWIDTH 16 0
BBX 21 16 -2 -2
BITMAP
006060
00c3c0
07dc60
01b660
019ac0
01bfc0
1fc180
033f80
078180
0ebf00
0e9800
1ab500
35ab00
6daa80
0d6680
183c00
ENDCHAR
STARTCHAR 323b
ENCODING 12859
SWIDTH 960 0
DWIDTH 16 0
BBX 21 16 -2 -2
BITMAP
000c00
000c00
03fff0
00c300
006300
006e00
1ffbe0
000000
01fe00
030c00
030c00
03fc00
061800
061800
07f800
0c3000
ENDCHAR
STARTCHAR 323c
ENCODING 12860
SWIDTH 960 0
DWIDTH 16 0
BBX 21 16 -2 -2
BITMAP
000000
07fff8
000c00
001800
001800
001c00
003400
003600
003600
006600
006000
006000
00c000
00c000
00c000
018000
ENDCHAR
STARTCHAR 323d
ENCODING 12861
SWIDTH 960 0
DWIDTH 16 0
BBX 21 16 -2 -2
BITMAP
003600
003600
006660
006c60
00ccc0
018d80
031b00
071a00
1d1c00
363000
063000
063000
0c6180
0c6180
0c3180
181f00
ENDCHAR
STARTCHAR 323e
ENCODING 12862
SWIDTH 960 0
DWIDTH 16 0
BBX 21 16 -2 -2
BITMAP
006000
006ff8
00d800
00d000
01b000
033fc0
067180
0e6980
1adb00
0cda00
0d9c00
0d1c00
1b3400
1a6600
1dc300
360300
ENDCHAR
STARTCHAR 323f
ENCODING 12863
SWIDTH 960 0
DWIDTH 16 0
BBX 21 16 -2 -2
BITMAP
006000
006000
007ff8
00c0c0
0180c0
037ec0
06cd80
0ecd80
1acd80
0d9b00
0dfb00
0d9b00
180600
180600
181e00
300c00
ENDCHAR
STARTCHAR 3240
ENCODING 12864
SWIDTH 960 0
DWIDTH 16 0
BBX 21 16 -2 -2
BITMAP
00d000
00d000
01b1f0
036360
03fd60
036d60
0edac0
0edac0
1adac0
0db580
0db580
0d3580
1b6f00
1a6b00
1dc000
300000
ENDCHAR
STARTCHAR 3241
ENCODING 12865
SWIDTH 960 0
DWIDTH 16 0
BBX 21 16 -2 -2
BITMAP
006000
006000
007ff8
00cd00
018d00
030d00
06ffc0
0edac0
1adac0
0db580
0db580
0db580
1b6b00
1bff00
1b0300
300000
ENDCHAR
STARTCHAR 3242
ENCODING 12866
SWIDTH 960 0
DWIDTH 16 0
BBX 21 16 -2 -2
BITMAP
006300
006300
00dfe0
00c600
018600
038600
077fc0
0d0c00
1b0c00
061800
06ff00
061800
0c3000
0c3000
0dff00
180000
ENDCHAR
STARTCHAR 3243
ENCODING 12867
SWIDTH 960 0
DWIDTH 16 0
BBX 21 16 -2 -2
BITMAP
00c000
00c000
00c3f0
018660
0ffa60
019a60
0334c0
0334c0
0334c0
066980
066980
0c6980
0cd300
18df00
71b300
c70000
ENDCHAR
STARTCHAR 3244
ENCODING 12868
SWIDTH 960 0
DWIDTH 16 0
BBX 21 16 -2 -2
BITMAP
000000
000000
07fff8
000180
000180
01fd80
031b00
031b00
031b00
063600
07f600
063600
000c00
000c00
003c00
001800
ENDCHAR
STARTCHAR 3245
ENCODING 12869
SWIDTH 960 0
DWIDTH 16 0
BBX 21 16 -2 -2
BITMAP
000c00
000c00
07fff8
001800
03ffc0
000000
03ff00
030300
03ff00
019800
3fffc0
060000
3fbe00
0da600
3b7e00
eecc00
ENDCHAR
STARTCHAR 3246
ENCODING 12870
SWIDTH 960 0
DWIDTH 16 0
BBX 21 16 -2 -2
BITMAP
000000
03fff0
000c00
01ff80
018180
01ff80
030300
03ff00
030300
07fe00
018000
07fe00
0d3000
39e000
0f7800
f80e00
ENDCHAR
STARTCHAR 3247
ENCODING 12871
SWIDTH 960 0
DWIDTH 16 0
BBX 21 16 -2 -2
BITMAP
00c300
00c300
00dff0
01b0c0
0fe000
037fc0
06d800
06d4c0
0dad80
1b3680
3e6d00
06dd00
1a6b00
30d980
63b000
00e000
ENDCHAR
STARTCHAR 3248
ENCODING 12872
SWIDTH 960 0
DWIDTH 16 0
BBX 21 16 -2 -2
BITMAP
001800
001800
03fff0
0600c0
0c0000
03ff00
00c180
03a980
0efb00
01ac00
076800
1dec00
034c00
0ec600
798300
070000
ENDCHAR
STARTCHAR 3249
ENCODING 12873
SWIDTH 960 0
DWIDTH 16 0
BBX 21 16 -2 -2
BITMAP
001800
001800
03fff0
0600c0
0dff80
003000
03fe00
030600
03fe00
060c00
3fff80
030c00
1ffe00
719b80
073000
3ce000
ENDCHAR
STARTCHAR 324a
ENCODING 12874
SWIDTH 960 0
DWIDTH 16 0
BBX 21 16 -2 -2
BITMAP
001860
007660
03e360
00c340
00c340
00d8c0
1fe980
018d80
03cd80
0743c0
0d6f00
1b7300
360600
660600
060600
0c0c00
ENDCHAR
STARTCHAR 324b
ENCODING 12875
SWIDTH 960 0
DWIDTH 16 0
BBX 21 16 -2 -2
BITMAP
000000
003ef0
07d630
0dac60
0dac60
0dbde0
1b4000
1f4fc0
1b7cc0
368d80
368d00
368e00
7dec00
6d1a00
037300
06c300
ENDCHAR
STARTCHAR 324c
ENCODING 12876
SWIDTH 960 0
DWIDTH 16 0
BBX 21 16 -2 -2
BITMAP
000000
01ffc0
0198c0
033180
03ff80
033180
066300
07ff00
006000
3fff80
01e000
035000
0eb000
199c00
718700
030000
ENDCHAR
STARTCHAR 324d
ENCODING 12877
SWIDTH 960 0
DWIDTH 16 0
BBX 21 16 -2 -2
BITMAP
00c000
00c7e0
07fa60
01b4c0
01b4c0
0334c0
066f80
0d9980
18c000
00c000
3fff80
03d000
06b000
1d9c00
718700
030000
ENDCHAR
STARTCHAR 324e
ENCODING 12878
SWIDTH 960 0
DWIDTH 16 0
BBX 21 16 -2 -2
BITMAP
000600
07fe00
003600
07aff0
06ad60
07ab40
0dda00
01d600
1fe600
018c00
1e9a00
1ab600
3d3600
356600
03c300
0f0300
ENDCHAR
STARTCHAR 324f
ENCODING 12879
SWIDTH 960 0
DWIDTH 16 0
BBX 21 16 -2 -2
BITMAP
018000
00dff8
00c060
0000c0
0c7ec0
0c66c0
0ccd80
00cd80
06cd80
06fb00
0d9b00
180300
180600
300600
601e00
c00c00
ENDCHAR
STARTCHAR 3250
ENCODING 12880
SWIDTH 960 0
DWIDTH 16 0
BBX 21 16 -2 -2
BITMAP
000c00
000c00
000c60
0018c0
0198c0
019980
033300
033600
063000
1c7000
00d000
019800
031800
060c00
1c0600
f00300
ENDCHAR
STARTCHAR 3251
ENCODING 12881
SWIDTH 960 0
DWIDTH 16 0
BBX 21 16 -2 -2
BITMAP
000000
07fff8
018060
0300c0
033ec0
0336c0
1fad80
066d80
066d80
0cdb00
0cfb00
0cdb00
1e0600
780600
000e00
000c00
ENDCHAR
STARTCHAR 3252
ENCODING 12882
SWIDTH 960 0
DWIDTH 16 0
BBX 21 16 -2 -2
BITMAP
00c000
00cfe0
00cc60
0febc0
006ac0
00dac0
01b580
037fc0
0fa0c0
1ade80
36d680
06d680
0dbd00
0dad00
0d8700
1b0600
ENDCHAR
STARTCHAR 3253
ENCODING 12883
SWIDTH 960 0
DWIDTH 16 0
BBX 21 16 -2 -2
BITMAP
0000c0
000780
01fc00
001800
001800
001800
1fffe0
003000
007800
01e800
036c00
0e6700
78c180
00c000
00c000
018000
ENDCHAR
STARTCHAR 3254
ENCODING 12884
SWIDTH 960 0
DWIDTH 16 0
BBX 21 16 -2 -2
BITMAP
003300
00e300
07dff0
01b0c0
01a000
0fffe0
031980
031d80
07bd00
0ed600
1a6d00
36dd00
6c6b00
0dd980
0c3000
18e000
ENDCHAR
STARTCHAR 3255
ENCODING 12885
SWIDTH 960 0
DWIDTH 16 0
BBX 21 16 -2 -2
BITMAP
018300
018300
03fff8
06cd00
0c6980
0fff80
0c6180
0c6180
0fff80
18c300
1bfb00
1b1b00
37f600
300600
3ffe00
600c00
ENDCHAR
STARTCHAR 3256
ENCODING 12886
SWIDTH 960 0
DWIDTH 16 0
BBX 21 16 -2 -2
BITMAP
006300
006300
07fff0
00c600
00e600
006c00
00d980
019980
031b00
0e3600
1a3800
363000
0c6000
0c6180
0c6180
183f00
ENDCHAR
STARTCHAR 3257
ENCODING 12887
SWIDTH 960 0
DWIDTH 16 0
BBX 21 16 -2 -2
BITMAP
003180
003180
07fff8
006300
006300
000000
1fffc0
000300
03fb00
063600
063600
063600
0fec00
0c6c00
001c00
001800
ENDCHAR
STARTCHAR 3258
ENCODING 12888
SWIDTH 960 0
DWIDTH 16 0
BBX 21 16 -2 -2
BITMAP
006300
006300
07fff0
00c600
00c600
018000
031f80
1fe980
036980
06d300
06d300
0cd300
0da600
19be00
736600
ce0000
ENDCHAR
STARTCHAR 3259
ENCODING 12889
SWIDTH 960 0
DWIDTH 16 0
BBX 21 16 -2 -2
BITMAP
003180
003180
07fff8
006300
006300
00c000
01ffe0
030180
037d80
0edb00
1adb00
36db00
0df600
0c0600
0c0600
181c00
ENDCHAR
STARTCHAR 325a
ENCODING 12890
SWIDTH 960 0
DWIDTH 16 0
BBX 21 16 -2 -2
BITMAP
006180
006180
07fff8
00c300
03ffc0
019b00
033300
1fffe0
033300
066600
0fff00
006000
00c000
3fff00
00c000
018000
ENDCHAR
STARTCHAR 325b
ENCODING 12891
SWIDTH 960 0
DWIDTH 16 0
BBX 21 16 -2 -2
BITMAP
003300
003300
07fff8
006600
01ff80
019980
03ff00
033300
03ff00
006000
3fffc0
03a800
06d800
1cce00
70c380
018000
ENDCHAR
STARTCHAR 325c
ENCODING 12892
SWIDTH 960 0
DWIDTH 16 0
BBX 21 16 -2 -2
BITMAP
00c000
00cf70
00cd30
019a60
07ea60
06aee0
0d5000
0d57c0
0fdd40
066680
066680
077b00
0d4600
0f4d00
7b5b00
03a300
ENDCHAR
STARTCHAR 325d
ENCODING 12893
SWIDTH 960 0
DWIDTH 16 0
BBX 21 16 -2 -2
BITMAP
000000
03f7f0
000db0
0ffb60
001fe0
07eb60
0036c0
003fc0
0f8600
00ffc0
1f9e00
19b600
336a00
335b00
3f9980
663000
ENDCHAR
STARTCHAR 325e
ENCODING 12894
SWIDTH 960 0
DWIDTH 16 0
BBX 21 16 -2 -2
BITMAP
000cc0
000cc0
07fff8
0d9980
0dbfe0
0db680
1b6d80
1bffe0
1b6d80
36db00
36ff80
3e1800
663000
03ff80
003000
006000
ENDCHAR
STARTCHAR 325f
ENCODING 12895
SWIDTH 960 0
DWIDTH 16 0
BBX 21 16 -2 -2
BITMAP
003600
006660
01e7c0
034c00
0ecc60
00c7e0
01ff00
030300
03ff00
060600
07fe00
060600
0c0c00
0ffc00
1e1c00
700c00
ENDCHAR
STARTCHAR 3260
ENCODING 12896
SWIDTH 960 0
DWIDTH 16 0
BBX 21 16 -2 -2
BITMAP
001800
031800
0319f0
037d60
003560
003560
006ac0
1f6ac0
035ac0
06d580
06b580
076f80
0edb00
1b0000
71c000
c07f00
ENDCHAR
STARTCHAR 3261
ENCODING 12897
SWIDTH 960 0
DWIDTH 16 0
BBX 21 16 -2 -2
BITMAP
000000
031fe0
031860
0337c0
0036c0
0036c0
007fc0
1f40c0
035f40
06a680
06a680
06be80
0f4700
1b0300
71c000
c07f00
ENDCHAR
STARTCHAR 3262
ENCODING 12898
SWIDTH 960 0
DWIDTH 16 0
BBX 21 16 -2 -2
BITMAP
000000
03ffe0
000c00
07ffe0
061860
0fef40
1bf780
003000
0fdf80
198300
1fbf00
180000
3f7c00
306c00
3f7000
61de00
ENDCHAR
STARTCHAR 3263
ENCODING 12899
SWIDTH 960 0
DWIDTH 16 0
BBX 21 16 -2 -2
BITMAP
00c180
00c180
00c180
07fff0
06b4c0
06b4c0
0d6980
0d6980
0feb00
061a00
070c00
071c00
0d3400
0eac00
79c600
030600
ENDCHAR
STARTCHAR 3264
ENCODING 12900
SWIDTH 960 0
DWIDTH 16 0
BBX 21 16 -2 -2
BITMAP
006680
006da0
0079a0
00d360
01b300
03fff0
066600
0e66c0
1a7a80
0ce700
0dc600
0cde80
19b700
19a700
19c700
370600
ENDCHAR
STARTCHAR 3265
ENCODING 12901
SWIDTH 960 0
DWIDTH 16 0
BBX 21 16 -2 -2
BITMAP
018680
018da0
01bda0
0d6b60
0d5b00
0d7ff0
1ab600
1ab6c0
1aba80
356700
35a600
3f6e80
66d700
60e700
018700
070600
ENDCHAR
STARTCHAR 3266
ENCODING 12902
SWIDTH 960 0
DWIDTH 16 0
BBX 21 16 -2 -2
BITMAP
001a00
003680
01e6c0
074cc0
00cc00
00cc00
1fffe0
018d80
018d00
03cd00
070e00
3d1c00
063580
066680
06c380
1c0300
ENDCHAR
STARTCHAR 3267
ENCODING 12903
SWIDTH 960 0
DWIDTH 16 0
BBX 21 16 -2 -2
BITMAP
000000
007fe0
006180
00c300
00c300
00c300
018600
1fffe0
003a00
006c00
00cc00
038c00
061800
1c1800
707800
003000
ENDCHAR
STARTCHAR 3268
ENCODING 12904
SWIDTH 960 0
DWIDTH 16 0
BBX 21 16 -2 -2
BITMAP
000000
07fff8
000c00
001800
06ff60
06db60
0db6c0
0db6c0
0dfec0
1b6d80
1b6d80
1b6d80
37fb00
300300
3fff00
600600
ENDCHAR
STARTCHAR 3269
ENCODING 12905
SWIDTH 960 0
DWIDTH 16 0
BBX 21 16 -2 -2
BITMAP
000180
03fd80
036180
06c300
06c300
07f300
0c6600
0c6d00
0c6d00
1fda00
1b1a00
1b3600
366600
3fc600
338300
060300
ENDCHAR
STARTCHAR 326a
ENCODING 12906
SWIDTH 960 0
DWIDTH 16 0
BBX 21 16 -2 -2
BITMAP
003300
003300
07fff8
006600
000000
03ffc0
018c00
018c00
018c00
3fffc0
003800
00e800
03b000
0e3000
78f000
006000
ENDCHAR
STARTCHAR 326b
ENCODING 12907
SWIDTH 960 0
DWIDTH 16 0
BBX 21 16 -2 -2
BITMAP
00c340
00c6c0
00dee0
07eda0
06ada0
06bff0
0d5b00
0d5b40
0fdb80
063980
077300
07b700
0d6d80
1fab80
71b380
01c300
ENDCHAR
STARTCHAR 326c
ENCODING 12908
SWIDTH 960 0
DWIDTH 16 0
BBX 21 16 -2 -2
BITMAP
00c000
00c7f0
07fa30
01b460
01b460
036fe0
0ed8c0
1bff00
030300
07fe00
060600
07fe00
0c0c00
0ffc00
0f1c00
780600
ENDCHAR
STARTCHAR 326d
ENCODING 12909
SWIDTH 960 0
DWIDTH 16 0
BBX 21 16 -2 -2
BITMAP
000360
03fb60
01b6c0
036ff0
036d80
036d80
1ffb00
035fc0
035b00
06b600
06bf80
0db600
1b6c00
336c00
637f80
0ec000
ENDCHAR
STARTCHAR 326e
ENCODING 12910
SWIDTH 960 0
DWIDTH 16 0
BBX 21 16 -2 -2
BITMAP
00c340
00c6e0
01eee0
03b5a0
068d80
0ffff0
0cdb00
0fdb40
0cdd80
19b680
1fb300
1ad300
366680
366d80
3a7b80
e6e300
ENDCHAR
STARTCHAR 326f
ENCODING 12911
SWIDTH 960 0
DWIDTH 16 0
BBX 21 16 -2 -2
BITMAP
00c000
07fbf0
00da30
01b460
0337e0
0eec60
19ff00
033000
03fe00
066000
07fc00
066000
0fff00
35b300
66db00
c00c00
ENDCHAR
STARTCHAR 3270
ENCODING 12912
SWIDTH 960 0
DWIDTH 16 0
BBX 21 16 -2 -2
BITMAP
000c00
000c00
001a00
007600
00c300
0701c0
1d8360
018600
018600
030c00
030c00
060c00
061800
0c1800
381800
603000
ENDCHAR
STARTCHAR 3271
ENCODING 12913
SWIDTH 960 0
DWIDTH 16 0
BBX 21 16 -2 -2
BITMAP
000c00
000c00
001a00
007600
00c300
078180
1cfee0
000000
000000
1fff80
00c000
019800
031800
067400
3fcc00
000c00
ENDCHAR
STARTCHAR 3272
ENCODING 12914
SWIDTH 960 0
DWIDTH 16 0
BBX 21 16 -2 -2
BITMAP
00c000
00f7f0
01a1b0
074360
0ff660
06bdc0
0d7300
0fea00
0d7fc0
1aec00
1fcc00
18ffc0
319800
319800
639800
c33000
ENDCHAR
STARTCHAR 3273
ENCODING 12915
SWIDTH 960 0
DWIDTH 16 0
BBX 21 16 -2 -2
BITMAP
000000
03fff0
030030
060060
060060
067e60
0cccc0
0cccc0
0cccc0
199980
19f980
180180
300300
300300
3fff00
600600
ENDCHAR
STARTCHAR 3274
ENCODING 12916
SWIDTH 960 0
DWIDTH 16 0
BBX 21 16 -2 -2
BITMAP
000300
018600
019fe0
0336c0
0336c0
0fffc0
066d80
066d80
067f80
0c3500
0db500
1e6e80
70df80
019800
071980
3c0f00
ENDCHAR
STARTCHAR 3275
ENCODING 12917
SWIDTH 960 0
DWIDTH 16 0
BBX 21 16 -2 -2
BITMAP
000300
018300
01bff0
030600
033fc0
0ff6c0
066a80
067f80
060c00
0dffc0
0d3300
1e6e00
71d800
074c00
00f600
078300
ENDCHAR
STARTCHAR 3276
ENCODING 12918
SWIDTH 960 0
DWIDTH 16 0
BBX 21 16 -2 -2
BITMAP
000000
03eff0
006830
00d060
01b7a0
0735a0
0dab40
01ab40
01af40
1b5680
0d4180
0eff80
0e8300
1b8000
70f000
c01f00
ENDCHAR
STARTCHAR 3277
ENCODING 12919
SWIDTH 960 0
DWIDTH 16 0
BBX 21 16 -2 -2
BITMAP
00c300
00c300
00c300
01bfc0
06c6c0
06c6c0
0d4d80
0d0d80
1b7fe0
061800
063400
066c00
0c6c00
0ccc00
0d8600
1a0600
ENDCHAR
STARTCHAR 3278
ENCODING 12920
SWIDTH 960 0
DWIDTH 16 0
BBX 21 16 -2 -2
BITMAP
00c000
00dfe0
00ccc0
018d80
018d00
06ce00
0d5a00
0d5380
1b6ce0
361800
06ff00
061800
0c3000
0c3000
0dff00
180000
ENDCHAR
STARTCHAR 3279
ENCODING 12921
SWIDTH 960 0
DWIDTH 16 0
BBX 21 16 -2 -2
BITMAP
00d800
00d800
00d7f0
01b000
06a000
06dfc0
0d5580
0db580
1b7fe0
06db00
06db00
06db00
0dff80
0d0600
0c1c00
187000
ENDCHAR
STARTCHAR 327a
ENCODING 12922
SWIDTH 960 0
DWIDTH 16 0
BBX 21 16 -2 -2
BITMAP
00c000
00dff8
00d800
01b300
06d360
06b540
0d6ac0
0d6a80
1b7600
06ec00
06ce00
069a00
0db600
0d6600
0fc300
1e0300
ENDCHAR
STARTCHAR 327b
ENCODING 12923
SWIDTH 960 0
DWIDTH 16 0
BBX 21 16 -2 -2
BITMAP
00c300
00c300
00dff8
018600
06bfc0
06d6c0
0d6a80
0d7f80
1b0c00
06ffc0
063300
066a00
0dda00
0d4c00
0cf600
1b8300
ENDCHAR
STARTCHAR 327c
ENCODING 12924
SWIDTH 960 0
DWIDTH 16 0
BBX 21 16 -2 -2
BITMAP
0006c0
000660
000660
0ffff0
000c00
01b580
036d80
036d00
1ffe00
06da00
06cc00
0cdc00
19b500
31ad00
61c700
030600
ENDCHAR
STARTCHAR 327d
ENCODING 12925
SWIDTH 960 0
DWIDTH 16 0
BBX 21 16 -2 -2
BITMAP
00c000
00cfe0
00cc60
0198c0
0fe8c0
019fc0
033180
030000
037fc0
079980
3e1980
063180
0c3300
0c6300
1dc600
1b1c00
ENDCHAR
STARTCHAR 327e
ENCODING 12926
SWIDTH 960 0
DWIDTH 16 0
BBX 21 16 -2 -2
BITMAP
000600
000600
07f600
006ff0
006cc0
006cc0
1fdd80
18d580
186d00
300e00
300c00
319c00
333400
1f6600
01c300
070300
ENDCHAR
STARTCHAR 3321
ENCODING 13089
SWIDTH 960 0
DWIDTH 16 0
BBX 21 16 -2 -2
BITMAP
00c060
018660
03fb60
06d340
06db40
07f4c0
0dad80
0dad80
0fe1e0
077f00
076300
07d300
0f6600
1a0700
730300
c1fe00
ENDCHAR
STARTCHAR 3322
ENCODING 13090
SWIDTH 960 0
DWIDTH 16 0
BBX 21 16 -2 -2
BITMAP
000c00
000c00
07cff8
0d9800
0db000
0df7c0
1bb580
1f3580
1bffe0
36db00
36db00
36db00
7dff80
6d0600
001c00
007000
ENDCHAR
STARTCHAR 3323
ENCODING 13091
SWIDTH 960 0
DWIDTH 16 0
BBX 21 16 -2 -2
BITMAP
00c180
00c1a0
00c1b0
0ffff0
018300
01b560
076ac0
07aac0
077e80
0ed700
1ad700
36b600
0dbb00
0d3700
0ee700
198600
ENDCHAR
STARTCHAR 3324
ENCODING 13092
SWIDTH 960 0
DWIDTH 16 0
BBX 21 16 -2 -2
BITMAP
018c00
00cc00
00cff0
001800
0c3000
0cffc0
0db580
003580
06ffe0
06db00
0cdb00
18db00
19ff80
330600
601c00
c07000
ENDCHAR
STARTCHAR 3325
ENCODING 13093
SWIDTH 960 0
DWIDTH 16 0
BBX 21 16 -2 -2
BITMAP
000000
01fff0
018000
030c00
030cc0
036cc0
06d980
06db00
069a00
0d3000
0c6800
18d800
199800
330c00
6e0600
300700
ENDCHAR
STARTCHAR 3326
ENCODING 13094
SWIDTH 960 0
DWIDTH 16 0
BBX 21 16 -2 -2
BITMAP
000000
01ffe0
018c60
0318c0
03ffc0
0318c0
063180
07ff80
00e800
038c00
0e8f00
3b0dc0
031800
061800
1c1800
303000
ENDCHAR
STARTCHAR 3327
ENCODING 13095
SWIDTH 960 0
DWIDTH 16 0
BBX 21 16 -2 -2
BITMAP
018300
018370
01fdc0
030600
030630
036630
07b3e0
1c6000
03ff00
060600
060600
07fe00
0c0c00
0c0c00
0ffc00
181800
ENDCHAR
STARTCHAR 3328
ENCODING 13096
SWIDTH 960 0
DWIDTH 16 0
BBX 21 16 -2 -2
BITMAP
00c180
00c180
01b380
0ea680
034cc0
03b860
03afa0
06c000
1fc000
067f80
1b1800
1b3600
353600
356e00
6df600
180600
ENDCHAR
STARTCHAR 3329
ENCODING 13097
SWIDTH 960 0
DWIDTH 16 0
BBX 21 16 -2 -2
BITMAP
006180
006180
07fff8
00c300
00db00
003800
006800
00cc00
038c00
0e8f00
398dc0
030c00
031800
061800
0c1800
183000
ENDCHAR
STARTCHAR 332a
ENCODING 13098
SWIDTH 960 0
DWIDTH 16 0
BBX 21 16 -2 -2
BITMAP
018000
01f7f0
036730
0ff4e0
06ba80
07f7e0
0d6b00
0fffe0
186600
31c600
0ffc00
0ccc00
1ff800
018c00
03fe00
fe0600
ENDCHAR
STARTCHAR 332b
ENCODING 13099
SWIDTH 960 0
DWIDTH 16 0
BBX 21 16 -2 -2
BITMAP
000000
07f7f0
063630
0fefe0
0c6c60
0c6c60
1fdfc0
1800c0
1bfec0
31b180
31b180
3ffe80
636300
666300
6c6700
c00600
ENDCHAR
STARTCHAR 332c
ENCODING 13100
SWIDTH 960 0
DWIDTH 16 0
BBX 21 16 -2 -2
BITMAP
001980
03e9b0
036fe0
06d300
06b300
073330
0d79e0
0dec00
0dbfc0
1b6180
1b6180
1a7f80
3cc300
30c300
30ff00
618600
ENDCHAR
STARTCHAR 332d
ENCODING 13101
SWIDTH 960 0
DWIDTH 16 0
BBX 21 16 -2 -2
BITMAP
000000
00ffc0
00c0c0
018180
018180
01ff80
030300
030300
030300
07fe00
060600
060600
0ffc00
033800
0e0c00
780c00
ENDCHAR
STARTCHAR 332e
ENCODING 13102
SWIDTH 960 0
DWIDTH 16 0
BBX 21 16 -2 -2
BITMAP
00c000
035be0
035b60
07f6c0
0006c0
0ffac0
000d80
0fed80
0c6d80
18db00
1fdb00
19b300
19b600
1ae680
1f4680
f18700
ENDCHAR
STARTCHAR 332f
ENCODING 13103
SWIDTH 960 0
DWIDTH 16 0
BBX 21 16 -2 -2
BITMAP
006180
006180
006180
0fffe0
018360
03c360
1ec6c0
06b6c0
07acc0
066d80
0cd980
1b9980
06b300
0ce300
398300
e31c00
ENDCHAR
STARTCHAR 3330
ENCODING 13104
SWIDTH 960 0
DWIDTH 16 0
BBX 21 16 -2 -2
BITMAP
006300
006300
007d00
00da00
019a00
033600
073600
0dad80
19ecc0
0198c0
019800
031800
063000
0c3000
383000
606000
ENDCHAR
STARTCHAR 3331
ENCODING 13105
SWIDTH 960 0
DWIDTH 16 0
BBX 21 16 -2 -2
BITMAP
000300
000300
07e300
0cfff0
0ccc00
0cd980
199b00
19f600
19bd80
333300
336600
3fdc00
663400
006600
01c600
0f0600
ENDCHAR
STARTCHAR 3332
ENCODING 13106
SWIDTH 960 0
DWIDTH 16 0
BBX 21 16 -2 -2
BITMAP
001800
001800
03fff0
0630c0
0c3000
07ffc0
006000
07ff00
006000
3fff80
000000
0ffe00
180c00
180c00
1ffc00
301800
ENDCHAR
STARTCHAR 3333
ENCODING 13107
SWIDTH 960 0
DWIDTH 16 0
BBX 21 16 -2 -2
BITMAP
018c60
018c60
01ffe0
000000
03fff0
030c00
06ff80
061800
061800
0fff80
0c3000
1bff00
186000
306000
6fff80
000000
ENDCHAR
STARTCHAR 3334
ENCODING 13108
SWIDTH 960 0
DWIDTH 16 0
BBX 21 16 -2 -2
BITMAP
018000
01bff8
01b660
036d40
077d40
07ad40
0eda80
0effe0
1ae180
0da700
0da700
0db700
1b6e00
1baa80
1e7680
30c700
ENDCHAR
STARTCHAR 3335
ENCODING 13109
SWIDTH 960 0
DWIDTH 16 0
BBX 21 16 -2 -2
BITMAP
018000
01bff8
01b660
036d40
0ffd40
036d40
06da80
0f7fe0
0ee180
1da700
35a700
0db700
1b6e00
1baa80
1e7680
30c700
ENDCHAR
STARTCHAR 3336
ENCODING 13110
SWIDTH 960 0
DWIDTH 16 0
BBX 21 16 -2 -2
BITMAP
018000
00dff0
00d180
006300
0c6fe0
0c6300
0cc600
00ffe0
06c600
068c00
0dbf80
198c00
1b1800
361800
6dff80
c00000
ENDCHAR
STARTCHAR 3337
ENCODING 13111
SWIDTH 960 0
DWIDTH 16 0
BBX 21 16 -2 -2
BITMAP
000000
07fbe0
00c660
018fc0
018cc0
030cc0
07df80
0ec000
1effc0
358300
0dffc0
0da300
1f6600
1b6600
180e00
000c00
ENDCHAR
STARTCHAR 3338
ENCODING 13112
SWIDTH 960 0
DWIDTH 16 0
BBX 21 16 -2 -2
BITMAP
006180
006180
07fff8
00db00
03ffc0
001800
1fffe0
00cc00
038700
1efd00
000180
0ffe00
1b6c00
1b6c00
7fff80
000000
ENDCHAR
STARTCHAR 3339
ENCODING 13113
SWIDTH 960 0
DWIDTH 16 0
BBX 21 16 -2 -2
BITMAP
00d800
00d9f0
01bf00
033000
063000
0d3000
03ffe0
066180
066180
1dfb00
34c300
0cc300
19b600
1bc600
1e0e00
300c00
ENDCHAR
STARTCHAR 333a
ENCODING 13114
SWIDTH 960 0
DWIDTH 16 0
BBX 21 16 -2 -2
BITMAP
000180
03f180
000180
0ffff0
000300
07e780
003d80
000d00
0fcf80
000d80
1f9b00
19b600
334c00
331a00
3f7600
67c600
ENDCHAR
STARTCHAR 333b
ENCODING 13115
SWIDTH 960 0
DWIDTH 16 0
BBX 21 16 -2 -2
BITMAP
00c180
00cdb0
01adb0
036fe0
063000
0feff0
030000
031f80
1fe980
063300
36bf00
373300
343600
0f3400
3dff80
e00000
ENDCHAR
STARTCHAR 333c
ENCODING 13116
SWIDTH 960 0
DWIDTH 16 0
BBX 21 16 -2 -2
BITMAP
000180
03f180
033180
06eff0
06a300
06a6c0
0fea80
186d00
1fee80
398d80
1f9b00
19b600
3f0c00
331a00
337600
6ec600
ENDCHAR
STARTCHAR 333d
ENCODING 13117
SWIDTH 960 0
DWIDTH 16 0
BBX 21 16 -2 -2
BITMAP
018000
00dfe0
00d360
0066c0
0c7fc0
0c66c0
0ccd80
00cd80
06ff80
061800
0c1800
1bff80
183000
303000
6fff80
c00000
ENDCHAR
STARTCHAR 333e
ENCODING 13118
SWIDTH 960 0
DWIDTH 16 0
BBX 21 16 -2 -2
BITMAP
0063e0
03fb68
006e78
0ffbc0
06d6c0
07f700
0c1d80
1bf0e0
003000
3fffc0
01a800
03f800
1e1e00
77fb80
061800
0ff000
ENDCHAR
STARTCHAR 333f
ENCODING 13119
SWIDTH 960 0
DWIDTH 16 0
BBX 21 16 -2 -2
BITMAP
00c180
00c180
00c7f0
07f300
06b300
06b300
0d7fe0
0d6000
0fe600
060c00
077f80
068c00
0f1800
1d9800
71ff80
000000
ENDCHAR
STARTCHAR 3340
ENCODING 13120
SWIDTH 960 0
DWIDTH 16 0
BBX 21 16 -2 -2
BITMAP
00c000
00dff0
00c000
018000
0fefc0
0198c0
033180
033f80
033180
066300
07a300
1e7f00
70c600
000000
07ff80
000000
ENDCHAR
STARTCHAR 3341
ENCODING 13121
SWIDTH 960 0
DWIDTH 16 0
BBX 21 16 -2 -2
BITMAP
00c300
00c300
00c300
0ffff0
018600
018600
077fc0
07acc0
076cc0
0ed980
1ad980
36db00
0db600
0db000
0c3000
186000
ENDCHAR
STARTCHAR 3342
ENCODING 13122
SWIDTH 960 0
DWIDTH 16 0
BBX 21 16 -2 -2
BITMAP
00c000
00cff8
00cc00
07e800
06aff0
06ab00
0d5600
0d57c0
0fd6c0
066d80
076d80
06cd80
0f5b00
1db300
776600
0d9c00
ENDCHAR
STARTCHAR 3343
ENCODING 13123
SWIDTH 960 0
DWIDTH 16 0
BBX 21 16 -2 -2
BITMAP
00c300
00c300
01a300
0367e0
063460
0fec60
0334c0
036cc0
1feec0
063680
36be80
377680
340300
0d8300
3e0e00
e03800
ENDCHAR
STARTCHAR 3344
ENCODING 13124
SWIDTH 960 0
DWIDTH 16 0
BBX 21 16 -2 -2
BITMAP
006030
03fdb0
006db0
0fff60
00db60
07fb60
0186c0
07e6c0
1ffac0
1b6d80
1fed80
1b6d80
3fc300
000300
7fe300
000e00
ENDCHAR
STARTCHAR 3345
ENCODING 13125
SWIDTH 960 0
DWIDTH 16 0
BBX 21 16 -2 -2
BITMAP
0018c0
0018c0
07bff0
0d3180
0d3180
0d3180
1bffe0
1ad680
1ad680
36b580
3ead40
376d40
1b5a00
06d600
0cf600
1bdc00
ENDCHAR
STARTCHAR 3346
ENCODING 13126
SWIDTH 960 0
DWIDTH 16 0
BBX 21 16 -2 -2
BITMAP
003000
003000
007fc0
00c300
01a600
073400
0c3800
00ec00
038600
0e0700
3bfec0
060600
0c0c00
0c0c00
0ffc00
181800
ENDCHAR
STARTCHAR 3347
ENCODING 13127
SWIDTH 960 0
DWIDTH 16 0
BBX 21 16 -2 -2
BITMAP
000c00
000c00
01fff8
033000
03ffe0
030340
06f680
06b700
06f680
0c0d80
0ded80
18cd80
19eb00
379e00
619800
073000
ENDCHAR
STARTCHAR 3348
ENCODING 13128
SWIDTH 960 0
DWIDTH 16 0
BBX 21 16 -2 -2
BITMAP
018180
018180
018180
033ff0
0fd000
033300
066600
066600
066c00
0f4c00
3cdb00
0db300
1b3300
1b6f00
1af300
7c0300
ENDCHAR
STARTCHAR 3349
ENCODING 13129
SWIDTH 960 0
DWIDTH 16 0
BBX 21 16 -2 -2
BITMAP
01b660
019b60
019bc0
037f60
0fc060
035fa0
066300
067f00
07a300
3cfe00
0cc600
0cfe00
186800
18d980
1b9980
7e0f00
ENDCHAR
STARTCHAR 334a
ENCODING 13130
SWIDTH 960 0
DWIDTH 16 0
BBX 21 16 -2 -2
BITMAP
00c600
00c600
00cfe0
0ff8c0
019d80
01b580
07ae00
074d00
075980
0e7180
1aff40
36a300
0cc600
0cc600
0cfe00
198c00
ENDCHAR
STARTCHAR 334b
ENCODING 13131
SWIDTH 960 0
DWIDTH 16 0
BBX 21 16 -2 -2
BITMAP
00c300
00c300
00c300
0ffff0
018600
018d80
077500
079ac0
075d80
0e1b00
1a3600
36ec00
0c3400
0c6600
0dc600
1b0600
ENDCHAR
STARTCHAR 334c
ENCODING 13132
SWIDTH 960 0
DWIDTH 16 0
BBX 21 16 -2 -2
BITMAP
00c000
00c3e0
07fb60
0186c0
0186d0
07ecd0
0038e0
1fff80
183180
37ab00
0d9b00
0d8e00
1b4c00
1b9a00
337300
e18300
ENDCHAR
STARTCHAR 334d
ENCODING 13133
SWIDTH 960 0
DWIDTH 16 0
BBX 21 16 -2 -2
BITMAP
0066c0
067ff8
034ec0
039b00
033fe0
073300
1d7f80
076600
0d7f80
1b4c00
33ff80
066e00
066800
0c3000
38ec00
378600
ENDCHAR
STARTCHAR 334e
ENCODING 13134
SWIDTH 960 0
DWIDTH 16 0
BBX 21 16 -2 -2
BITMAP
000300
07fb00
00dff8
019a60
01b6c0
018d80
03dfe0
06db00
0eeb00
1dbf80
35b600
0dbf80
1f6c00
1b6c00
187f80
00c000
ENDCHAR
STARTCHAR 334f
ENCODING 13135
SWIDTH 960 0
DWIDTH 16 0
BBX 21 16 -2 -2
BITMAP
003660
006ff8
07c6c0
018fe0
019b00
01bfe0
1fd600
033fc0
07b600
0ebf80
1a8000
36ff80
6c6c00
0c3800
0cee00
1b8300
ENDCHAR
STARTCHAR 3350
ENCODING 13136
SWIDTH 960 0
DWIDTH 16 0
BBX 21 16 -2 -2
BITMAP
0198c0
00ccc0
00cd80
07fee0
0600c0
0dff00
030600
03fe00
030600
07fc00
060c00
07fc00
036000
066180
1c6180
f03f00
ENDCHAR
STARTCHAR 3351
ENCODING 13137
SWIDTH 960 0
DWIDTH 16 0
BBX 21 16 -2 -2
BITMAP
003000
003f80
00ee00
039800
0fffc0
0318c0
063180
07ff80
063180
0c6300
0fff00
180300
180600
300600
600e00
c00c00
ENDCHAR
STARTCHAR 3352
ENCODING 13138
SWIDTH 960 0
DWIDTH 16 0
BBX 21 16 -2 -2
BITMAP
006180
006180
03fbf0
00c300
00c300
00c300
1fffe0
034d00
036d80
1aab00
1aba80
3dba80
6d5500
1b6c00
336c00
6eb800
ENDCHAR
STARTCHAR 3353
ENCODING 13139
SWIDTH 960 0
DWIDTH 16 0
BBX 21 16 -2 -2
BITMAP
00c180
00c180
07f980
01bff0
07ecc0
06a8c0
0d50c0
0fe9a0
0d5b00
1a9b00
1f9a00
061c00
7fb400
0c6600
0dc300
1b0300
ENDCHAR
STARTCHAR 3354
ENCODING 13140
SWIDTH 960 0
DWIDTH 16 0
BBX 21 16 -2 -2
BITMAP
006000
0063f0
07ff60
000660
03fac0
031a80
07f500
000d80
0ff580
00d980
0198c0
01ecc0
7f3580
033700
033000
0e6000
ENDCHAR
STARTCHAR 3355
ENCODING 13141
SWIDTH 960 0
DWIDTH 16 0
BBX 21 16 -2 -2
BITMAP
000000
07f7f0
063630
0fefe0
0c6c60
0fefe0
1860c0
18fcc0
1bd8c0
30e180
33b980
341e80
67f300
663300
67f300
c00e00
ENDCHAR
STARTCHAR 3356
ENCODING 13142
SWIDTH 960 0
DWIDTH 16 0
BBX 21 16 -2 -2
BITMAP
000000
03eff0
036000
06dfc0
0698c0
071fc0
0d0000
0dbfc0
0dad40
1b5a80
1b5780
1ae180
3dff00
319b00
319b00
633600
ENDCHAR
STARTCHAR 3357
ENCODING 13143
SWIDTH 960 0
DWIDTH 16 0
BBX 21 16 -2 -2
BITMAP
003300
003300
03fff0
006600
006600
007e00
003000
03ff00
033300
066600
07fe00
006000
7fff80
00c000
00c000
018000
ENDCHAR
STARTCHAR 3358
ENCODING 13144
SWIDTH 960 0
DWIDTH 16 0
BBX 21 16 -2 -2
BITMAP
0198c0
00ccc0
00cd80
07fee0
0600c0
0e0000
1bfe00
000c00
007800
00c000
3fff80
00c000
018000
018000
078000
030000
ENDCHAR
STARTCHAR 3359
ENCODING 13145
SWIDTH 960 0
DWIDTH 16 0
BBX 21 16 -2 -2
BITMAP
000180
000700
007c00
00c000
00ffc0
00c300
018600
018600
1fffe0
006000
0c6300
0c6300
18c600
18c600
1ffe00
300c00
ENDCHAR
STARTCHAR 335a
ENCODING 13146
SWIDTH 960 0
DWIDTH 16 0
BBX 21 16 -2 -2
BITMAP
000600
030c30
01bf60
01a6c0
01a680
007e00
00cd00
03cdc0
0efc60
006000
3fffc0
01f000
035000
0edc00
78c780
018000
ENDCHAR
STARTCHAR 335b
ENCODING 13147
SWIDTH 960 0
DWIDTH 16 0
BBX 21 16 -2 -2
BITMAP
00c000
00cff8
03fb80
066600
0d8fe0
07ec60
0cd8c0
1a9fc0
0798c0
06bf80
0cd180
3fb180
6b7f00
1b3600
1fe300
370300
ENDCHAR
STARTCHAR 335c
ENCODING 13148
SWIDTH 960 0
DWIDTH 16 0
BBX 21 16 -2 -2
BITMAP
000000
07bff8
06ab80
0d5600
0f77e0
000c60
0fdfc0
0018c0
1fe8c0
0c3f80
0c3180
1fb180
337f00
033600
067300
1dc300
ENDCHAR
STARTCHAR 335d
ENCODING 13149
SWIDTH 960 0
DWIDTH 16 0
BBX 21 16 -2 -2
BITMAP
018c60
018c60
01bf60
0318c0
0fd8c0
0318c0
06fec0
0631a0
07b1a0
3cfb00
0c6300
0c6300
18da00
19e600
1b0600
700c00
ENDCHAR
STARTCHAR 335e
ENCODING 13150
SWIDTH 960 0
DWIDTH 16 0
BBX 21 16 -2 -2
BITMAP
00c180
00c180
03fdf8
06c680
0c6cc0
0068c0
003000
0fffc0
000600
060600
030c00
031800
033000
006000
7fff80
000000
ENDCHAR
STARTCHAR 335f
ENCODING 13151
SWIDTH 960 0
DWIDTH 16 0
BBX 21 16 -2 -2
BITMAP
018000
01be00
01b5f0
0feb60
037d60
036dc0
077b00
0ed680
0edcc0
1df0c0
341800
0cff00
183000
183000
1bff80
300000
ENDCHAR
STARTCHAR 3360
ENCODING 13152
SWIDTH 960 0
DWIDTH 16 0
BBX 21 16 -2 -2
BITMAP
00c000
00dff8
00c000
0fffc0
01b6c0
03bfc0
07ad80
077fe0
0d4000
1aff00
36db00
06ff00
0db600
0dfe00
0c0000
1bff00
ENDCHAR
STARTCHAR 3361
ENCODING 13153
SWIDTH 960 0
DWIDTH 16 0
BBX 21 16 -2 -2
BITMAP
00c000
00dff0
00d830
0ff060
01bfe0
01b1c0
07a700
077c00
076c00
0eff80
1ad800
36ffc0
0db000
0d3180
0e3180
181f00
ENDCHAR
STARTCHAR 3362
ENCODING 13154
SWIDTH 960 0
DWIDTH 16 0
BBX 21 16 -2 -2
BITMAP
00c340
00f6c0
01bcc0
0759a0
0feba0
06bfc0
0d5780
0fd500
0d5b00
1af600
1fab00
036d00
3adb00
355300
6d6300
c18300
ENDCHAR
STARTCHAR 3363
ENCODING 13155
SWIDTH 960 0
DWIDTH 16 0
BBX 21 16 -2 -2
BITMAP
018600
00cc00
00dbc0
006180
0c7b80
0c6180
0cc300
00ff00
063000
067f80
0cc180
1b8d80
1bad00
335300
66c600
dc1c00
ENDCHAR
STARTCHAR 3364
ENCODING 13156
SWIDTH 960 0
DWIDTH 16 0
BBX 21 16 -2 -2
BITMAP
006030
03feb0
060db0
0cc360
07fb60
00c360
0ff6c0
0186c0
1ffac0
000d80
0fed80
0c6d80
18c300
18c300
1fc300
318e00
ENDCHAR
STARTCHAR 3365
ENCODING 13157
SWIDTH 960 0
DWIDTH 16 0
BBX 21 16 -2 -2
BITMAP
000000
001fc0
07d8c0
0db180
0dbf80
0db180
1b6300
1b7f00
1b1800
367f80
3ecd80
36f980
078300
019b00
00fa00
001c00
ENDCHAR
STARTCHAR 3366
ENCODING 13158
SWIDTH 960 0
DWIDTH 16 0
BBX 21 16 -2 -2
BITMAP
00c300
00c300
00c700
018d00
01d980
06b0c0
0d60c0
0d5fa0
1b8000
060000
067f00
066300
0cc600
0cc600
0cfe00
198c00
ENDCHAR
STARTCHAR 3367
ENCODING 13159
SWIDTH 960 0
DWIDTH 16 0
BBX 21 16 -2 -2
BITMAP
018060
0181c0
019f00
030600
0fc600
030600
06ffe0
060c00
078c00
3c1800
0cff00
0cc300
198600
198600
19fe00
730c00
ENDCHAR
STARTCHAR 3368
ENCODING 13160
SWIDTH 960 0
DWIDTH 16 0
BBX 21 16 -2 -2
BITMAP
018060
00c1c0
00df00
000600
000600
0c0600
0dffe0
0c0c00
060c00
061800
0cff00
18c300
198600
318600
61fe00
c30c00
ENDCHAR
STARTCHAR 3369
ENCODING 13161
SWIDTH 960 0
DWIDTH 16 0
BBX 21 16 -2 -2
BITMAP
018000
00dfc0
00d8c0
003f80
0c3180
0c3180
0c7f00
001800
063fc0
066d80
0dd980
1b7180
198d00
30fd00
600e00
c03800
ENDCHAR
STARTCHAR 336a
ENCODING 13162
SWIDTH 960 0
DWIDTH 16 0
BBX 21 16 -2 -2
BITMAP
018000
00dfc0
00d8c0
003780
003680
0cfff0
0d80c0
0dbf00
036300
00fe00
0cc600
18fe00
198c00
318c00
619c00
c31800
ENDCHAR
STARTCHAR 336b
ENCODING 13163
SWIDTH 960 0
DWIDTH 16 0
BBX 21 16 -2 -2
BITMAP
006300
006300
07fff0
00c600
01ff00
018300
03fe00
030600
03fe00
018000
03ff80
1f3980
77c300
061b00
03fa00
001c00
ENDCHAR
STARTCHAR 336c
ENCODING 13164
SWIDTH 960 0
DWIDTH 16 0
BBX 21 16 -2 -2
BITMAP
00c000
00cfe0
00cc60
0fefc0
0068c0
00d8c0
01bf80
034c00
0f9fc0
1b3680
36b580
06d980
0c6d00
0c3d00
0c0600
181c00
ENDCHAR
STARTCHAR 336d
ENCODING 13165
SWIDTH 960 0
DWIDTH 16 0
BBX 21 16 -2 -2
BITMAP
00c180
00c180
07fff8
019860
07f300
06afe0
0d4600
0fdf80
0d4600
1abfc0
1f8000
063f00
7fa600
0c6600
0c7e00
18cc00
ENDCHAR
STARTCHAR 336e
ENCODING 13166
SWIDTH 960 0
DWIDTH 16 0
BBX 21 16 -2 -2
BITMAP
000000
00ff80
00c180
018300
018300
01ff00
030600
030600
030600
07fc00
060c00
060c00
0c1800
0c1800
7fff00
000000
ENDCHAR
STARTCHAR 336f
ENCODING 13167
SWIDTH 960 0
DWIDTH 16 0
BBX 21 16 -2 -2
BITMAP
00c000
00f780
01adf0
075aa0
0fefa0
06abc0
0d5e80
0fd5c0
0d5740
1abcc0
1f8c00
03df00
3b6800
351800
6dff80
c00000
ENDCHAR
STARTCHAR 3370
ENCODING 13168
SWIDTH 960 0
DWIDTH 16 0
BBX 21 16 -2 -2
BITMAP
000180
000180
03f180
066300
066300
066300
0cffe0
0cc600
0cc600
198c00
198c00
1f8c00
331800
301800
001800
003000
ENDCHAR
STARTCHAR 3371
ENCODING 13169
SWIDTH 960 0
DWIDTH 16 0
BBX 21 16 -2 -2
BITMAP
00ccc0
00ccc0
00dff8
0fe980
019980
019b00
079a00
0756c0
073780
0eee00
1aac00
366c00
0cd800
0cd980
0cd980
198f00
ENDCHAR
STARTCHAR 3372
ENCODING 13170
SWIDTH 960 0
DWIDTH 16 0
BBX 21 16 -2 -2
BITMAP
00c6c0
00c6c0
00fff8
0fcd80
01bfe0
019cc0
07b580
077fe0
073580
0e6b00
1aff80
361800
0dff80
0c3000
0c3000
186000
ENDCHAR
STARTCHAR 3373
ENCODING 13171
SWIDTH 960 0
DWIDTH 16 0
BBX 21 16 -2 -2
BITMAP
01b300
01b300
07fb00
0367e0
036c60
03efa0
033340
0fe340
0d6f40
1ad180
1fd180
063700
7fe000
0c6180
0c6180
183f00
ENDCHAR
STARTCHAR 3374
ENCODING 13172
SWIDTH 960 0
DWIDTH 16 0
BBX 21 16 -2 -2
BITMAP
00c180
00cd80
00cd80
0feb00
01bfe0
01b300
07a600
074600
077fe0
0e1c00
1a3600
366e00
0cda00
0d9b00
0d1980
183000
ENDCHAR
STARTCHAR 3375
ENCODING 13173
SWIDTH 960 0
DWIDTH 16 0
BBX 21 16 -2 -2
BITMAP
006c00
00d800
03bee0
066cc0
066cc0
067cc0
0cd980
0cd980
0f7b80
180300
01b000
01b000
036300
066300
1c6300
f03e00
ENDCHAR
STARTCHAR 3376
ENCODING 13174
SWIDTH 960 0
DWIDTH 16 0
BBX 21 16 -2 -2
BITMAP
001800
03fff0
06eb60
0dbde0
033000
0fffe0
036600
03fe00
036600
07fe00
0cc600
0ffe00
198c00
1ffd00
018300
00fe00
ENDCHAR
STARTCHAR 3377
ENCODING 13175
SWIDTH 960 0
DWIDTH 16 0
BBX 21 16 -2 -2
BITMAP
003300
003300
07fff8
006680
0386c0
00ffe0
000c00
1c7f80
066d80
00ff00
06db00
0cff00
0db600
19b600
71b600
c36c00
ENDCHAR
STARTCHAR 3378
ENCODING 13176
SWIDTH 960 0
DWIDTH 16 0
BBX 21 16 -2 -2
BITMAP
003300
0061c0
01d360
073460
001800
007400
03c700
1efee0
003000
006000
3fffc0
066600
06cc00
06d800
3fff00
000000
ENDCHAR
STARTCHAR 3379
ENCODING 13177
SWIDTH 960 0
DWIDTH 16 0
BBX 21 16 -2 -2
BITMAP
00ccc0
00c680
01bff8
036d00
063fc0
0fed40
031a80
037fe0
1fda80
067f00
363600
377500
34eb00
0fa980
3d6800
e0d000
ENDCHAR
STARTCHAR 337a
ENCODING 13178
SWIDTH 960 0
DWIDTH 16 0
BBX 21 16 -2 -2
BITMAP
000300
001b00
07dbf0
0db600
0db600
0dfff0
1b4cc0
1b5540
1b5ec0
36ff80
369980
3ebd80
6d5500
03b300
03ff00
060600
ENDCHAR
STARTCHAR 337b
ENCODING 13179
SWIDTH 960 0
DWIDTH 16 0
BBX 21 16 -2 -2
BITMAP
000300
07f600
06d7e0
0da8c0
0dafc0
0fe8c0
1b5f80
1b5000
1b5fe0
3fa000
067f80
061e80
0ddb00
0dab00
0d6600
1e1c00
ENDCHAR
STARTCHAR 337c
ENCODING 13180
SWIDTH 960 0
DWIDTH 16 0
BBX 21 16 -2 -2
BITMAP
00c000
00dff8
00c300
0fe600
018c00
019fc0
07b180
075180
075180
0e7f00
1a6300
366300
0cc600
0cc600
0cfe00
198c00
ENDCHAR
STARTCHAR 337d
ENCODING 13181
SWIDTH 960 0
DWIDTH 16 0
BBX 21 16 -2 -2
BITMAP
003180
003180
07fff8
006300
01ff80
000700
00ec00
003800
1fffc0
007300
00d600
03b000
066000
1c6000
71e000
00c000
ENDCHAR
STARTCHAR 337e
ENCODING 13182
SWIDTH 960 0
DWIDTH 16 0
BBX 21 16 -2 -2
BITMAP
00c300
00c300
07fff0
018600
003000
07ffe0
0c0180
1bff00
000000
07fc00
060c00
07fc00
0c1800
0ff800
000000
fffe00
ENDCHAR
STARTCHAR 3421
ENCODING 13345
SWIDTH 960 0
DWIDTH 16 0
BBX 21 16 -2 -2
BITMAP
000000
07cdf0
00ed30
01aa60
01ac60
0799e0
0cff00
0c3300
0f7bc0
06f180
06a980
076980
0edb00
0cc300
38c600
e03c00
ENDCHAR
STARTCHAR 3422
ENCODING 13346
SWIDTH 960 0
DWIDTH 16 0
BBX 21 16 -2 -2
BITMAP
001830
001b30
001b30
003660
063660
036660
036cc0
01ccc0
00ccc0
01d980
035980
06c180
0cc300
18c300
700f00
c00600
ENDCHAR
STARTCHAR 3423
ENCODING 13347
SWIDTH 960 0
DWIDTH 16 0
BBX 21 16 -2 -2
BITMAP
003180
003180
07fff8
006300
006360
006060
0e6cc0
036cc0
01ccc0
019980
035980
06d980
0cc300
18c300
70cf00
c00600
ENDCHAR
STARTCHAR 3424
ENCODING 13348
SWIDTH 960 0
DWIDTH 16 0
BBX 21 16 -2 -2
BITMAP
000000
03fff0
003000
006000
006000
007f00
00c600
00c600
01a600
01ac00
036c00
030c00
061800
06eb00
1f1b00
f00e00
ENDCHAR
STARTCHAR 3425
ENCODING 13349
SWIDTH 960 0
DWIDTH 16 0
BBX 21 16 -2 -2
BITMAP
00c600
00c600
07fa00
018ff0
07ec00
066800
0cdf80
0fe300
0cc600
198c00
1f9800
063000
7fd300
0c6300
0c6300
183e00
ENDCHAR
STARTCHAR 3426
ENCODING 13350
SWIDTH 960 0
DWIDTH 16 0
BBX 21 16 -2 -2
BITMAP
006000
006fe0
00d860
00d0c0
01b0c0
033fc0
060000
0e6d80
1a6d80
0cdb00
0cdb00
0d9b00
19b600
1b3680
1a3680
340700
ENDCHAR
STARTCHAR 3427
ENCODING 13351
SWIDTH 960 0
DWIDTH 16 0
BBX 21 16 -2 -2
BITMAP
000000
03fff0
060060
0c0000
07f180
000180
003fc0
1fe300
06d300
0db600
0db600
198600
1b0c00
331d00
618300
c0fe00
ENDCHAR
STARTCHAR 3428
ENCODING 13352
SWIDTH 960 0
DWIDTH 16 0
BBX 21 16 -2 -2
BITMAP
001800
001800
07fff0
0c0060
0ccc60
03ff80
019800
07ff00
019800
3fff80
031800
0ece00
786300
0f8000
00e000
003000
ENDCHAR
STARTCHAR 3429
ENCODING 13353
SWIDTH 960 0
DWIDTH 16 0
BBX 21 16 -2 -2
BITMAP
000030
03fd30
006330
00c660
00c660
00c660
1ffcc0
018cc0
018cc0
031980
031980
030180
060300
060300
060f00
0c0600
ENDCHAR
STARTCHAR 342a
ENCODING 13354
SWIDTH 960 0
DWIDTH 16 0
BBX 21 16 -2 -2
BITMAP
019980
019980
07fd80
033300
03f7e0
033360
07e6c0
0666c0
1ff6c0
1a8d80
1a8d80
1da980
39d300
303300
3f6600
61dc00
ENDCHAR
STARTCHAR 342b
ENCODING 13355
SWIDTH 960 0
DWIDTH 16 0
BBX 21 16 -2 -2
BITMAP
018180
018180
01fd80
034300
06cfe0
0dfb60
0366c0
06c6c0
1ff4c0
358d80
0fd980
0db180
1fb300
1b6300
1fe600
319c00
ENDCHAR
STARTCHAR 342c
ENCODING 13356
SWIDTH 960 0
DWIDTH 16 0
BBX 21 16 -2 -2
BITMAP
00ccc0
006cc0
006d80
03fee0
001800
003400
1fffe0
00cc00
03fc00
0e0f00
380dc0
03fc00
060000
060c00
060c00
03f800
ENDCHAR
STARTCHAR 342d
ENCODING 13357
SWIDTH 960 0
DWIDTH 16 0
BBX 21 16 -2 -2
BITMAP
000c00
000fc0
07db80
0db600
0dffc0
0daac0
1b5580
1b5580
1b6780
36c300
3e9b00
37ffc0
003000
006800
01ce00
1f0300
ENDCHAR
STARTCHAR 342e
ENCODING 13358
SWIDTH 960 0
DWIDTH 16 0
BBX 21 16 -2 -2
BITMAP
000c60
018c60
01bff8
0318c0
031fc0
0fd8c0
063f80
063180
063180
0dffc0
0db400
0fad80
1d4700
738000
03ff80
060000
ENDCHAR
STARTCHAR 342f
ENCODING 13359
SWIDTH 960 0
DWIDTH 16 0
BBX 21 16 -2 -2
BITMAP
001800
001800
03ffe0
006600
00cc00
01f800
00ce00
0f8300
018600
3fffc0
06db00
06db00
3efa00
071c00
1db600
f0c600
ENDCHAR
STARTCHAR 3430
ENCODING 13360
SWIDTH 960 0
DWIDTH 16 0
BBX 21 16 -2 -2
BITMAP
001800
001800
03fff0
0600c0
0c0000
03ff80
000000
000000
1fffc0
01b000
01b000
033000
066300
0c6300
383300
e01e00
ENDCHAR
STARTCHAR 3431
ENCODING 13361
SWIDTH 960 0
DWIDTH 16 0
BBX 21 16 -2 -2
BITMAP
001800
001800
03fff0
0600c0
0dff00
018300
030600
03fe00
030600
060000
07fe00
060600
0c0c00
0c0c00
0ffc00
181800
ENDCHAR
STARTCHAR 3432
ENCODING 13362
SWIDTH 960 0
DWIDTH 16 0
BBX 21 16 -2 -2
BITMAP
001800
001800
03fff0
06c6c0
07ff80
0cc600
01fe00
030600
03fe00
060c00
07fc00
060c00
0ffb00
036300
0e6300
f83e00
ENDCHAR
STARTCHAR 3433
ENCODING 13363
SWIDTH 960 0
DWIDTH 16 0
BBX 21 16 -2 -2
BITMAP
000000
01ffe0
000c00
001800
001800
001800
0030c0
1fffe0
003000
006000
006000
006000
00c000
00c000
00c000
018000
ENDCHAR
STARTCHAR 3434
ENCODING 13364
SWIDTH 960 0
DWIDTH 16 0
BBX 21 16 -2 -2
BITMAP
00c180
00c180
07fb80
018680
07ecc0
067860
0cefa0
0fc600
0cc600
198c00
1fffc0
060c00
7f9800
0c1800
0c1800
183000
ENDCHAR
STARTCHAR 3435
ENCODING 13365
SWIDTH 960 0
DWIDTH 16 0
BBX 21 16 -2 -2
BITMAP
001800
001800
03ffc0
063180
07ff80
003000
0fff00
0c6300
0fff00
18c600
00c000
0d4600
1ac600
361b00
631b00
01f000
ENDCHAR
STARTCHAR 3436
ENCODING 13366
SWIDTH 960 0
DWIDTH 16 0
BBX 21 16 -2 -2
BITMAP
0006c0
000660
01fff8
030c00
03fac0
030680
06f700
06b600
0df540
183b80
306180
0da300
1b6300
330d80
618d80
00f800
ENDCHAR
STARTCHAR 3437
ENCODING 13367
SWIDTH 960 0
DWIDTH 16 0
BBX 21 16 -2 -2
BITMAP
00c000
00cff0
00cdb0
01bff0
01b6c0
06ffc0
0d4000
0d7f80
1b4180
06ff00
06c300
06ff00
0d8600
0dfe00
0cee00
1b8300
ENDCHAR
STARTCHAR 3438
ENCODING 13368
SWIDTH 960 0
DWIDTH 16 0
BBX 21 16 -2 -2
BITMAP
00c1a0
00c1b0
00dff8
01b300
06bf60
06d340
0d7d40
0d7580
1b5fa0
06adc0
0718c0
06d800
0dab00
0d6680
0e6680
183c00
ENDCHAR
STARTCHAR 3439
ENCODING 13369
SWIDTH 960 0
DWIDTH 16 0
BBX 21 16 -2 -2
BITMAP
018600
0187e0
018dc0
0fdb00
037fe0
036d60
06dac0
06dac0
07d3c0
3de980
0d9980
0dffc0
187000
18d800
1b8e00
760300
ENDCHAR
STARTCHAR 343a
ENCODING 13370
SWIDTH 960 0
DWIDTH 16 0
BBX 21 16 -2 -2
BITMAP
000300
03fd00
006300
00c7f0
0ffac0
033cc0
066d80
07f580
066d00
0fcd00
0cce00
0cee00
1f9a00
79b600
01e300
038300
ENDCHAR
STARTCHAR 343b
ENCODING 13371
SWIDTH 960 0
DWIDTH 16 0
BBX 21 16 -2 -2
BITMAP
00c660
00c660
00c660
0ff4c0
01bff0
018cc0
079980
075980
075980
0edf00
1a3300
363300
0c6600
0c6600
0c7e00
18cc00
ENDCHAR
STARTCHAR 343c
ENCODING 13372
SWIDTH 960 0
DWIDTH 16 0
BBX 21 16 -2 -2
BITMAP
00c000
00dff0
00c000
0fe000
019fc0
0198c0
07b180
075f80
075180
0e6300
1a6300
367f00
0cc600
0c0000
0dff80
180000
ENDCHAR
STARTCHAR 343d
ENCODING 13373
SWIDTH 960 0
DWIDTH 16 0
BBX 21 16 -2 -2
BITMAP
00c300
00c300
00dff8
0fd060
01b000
01f780
07b300
075300
075f00
0e6000
1a6000
367f00
0cc600
0cc600
0cfe00
198c00
ENDCHAR
STARTCHAR 343e
ENCODING 13374
SWIDTH 960 0
DWIDTH 16 0
BBX 21 16 -2 -2
BITMAP
00c300
00c300
07fa00
0187f0
018c60
07fb40
003600
0fe600
000600
3fec00
061a00
1a9a00
35b600
6da600
0dc300
3b0300
ENDCHAR
STARTCHAR 343f
ENCODING 13375
SWIDTH 960 0
DWIDTH 16 0
BBX 21 16 -2 -2
BITMAP
018300
018300
03fd00
06c7f0
0cc660
0ffec0
036b00
06d600
07f600
1d8c00
37da00
0d9a00
1fb600
1b6600
1fc300
330300
ENDCHAR
STARTCHAR 3440
ENCODING 13376
SWIDTH 960 0
DWIDTH 16 0
BBX 21 16 -2 -2
BITMAP
018000
00dff0
00c300
000600
0c0600
0c0600
0c0c00
01ffe0
030c00
061800
0c1800
181800
183000
303000
603000
c06000
ENDCHAR
STARTCHAR 3441
ENCODING 13377
SWIDTH 960 0
DWIDTH 16 0
BBX 21 16 -2 -2
BITMAP
018cc0
00ccc0
00fff8
001980
0c0000
0c7fe0
0cccc0
00ccc0
06ffc0
061800
0dff00
181800
1bff80
306800
61ce00
cf0300
ENDCHAR
STARTCHAR 3442
ENCODING 13378
SWIDTH 960 0
DWIDTH 16 0
BBX 21 16 -2 -2
BITMAP
018000
00def0
00d6b0
007de0
0c6d60
0c6d60
0cfbc0
00c0c0
06df40
06a680
0dbe80
19a680
1b4d00
337d00
634d00
c60e00
ENDCHAR
STARTCHAR 3443
ENCODING 13379
SWIDTH 960 0
DWIDTH 16 0
BBX 21 16 -2 -2
BITMAP
031800
019800
019ff0
003400
0c6c00
0cfff0
0db300
006600
01ffc0
074c00
0cff00
18cc00
19fe00
319800
61ff80
c30000
ENDCHAR
STARTCHAR 3444
ENCODING 13380
SWIDTH 960 0
DWIDTH 16 0
BBX 21 16 -2 -2
BITMAP
000000
001fe0
07faa0
033540
033fc0
030000
06ffe0
1f8000
067f80
0cc300
0cff00
0f7980
1dab00
7b6e00
006380
00c000
ENDCHAR
STARTCHAR 3445
ENCODING 13381
SWIDTH 960 0
DWIDTH 16 0
BBX 21 16 -2 -2
BITMAP
006180
006180
006180
00c300
0ffff0
00c300
018600
018600
018600
03fc00
030c00
030c00
061800
061800
07f800
0c3000
ENDCHAR
STARTCHAR 3446
ENCODING 13382
SWIDTH 960 0
DWIDTH 16 0
BBX 21 16 -2 -2
BITMAP
000300
03fb00
036600
06c7f0
07f400
063c00
0ff7c0
0d8000
0fe000
000000
0fff00
0d9b00
1b3600
1b3600
7fff80
000000
ENDCHAR
STARTCHAR 3447
ENCODING 13383
SWIDTH 960 0
DWIDTH 16 0
BBX 21 16 -2 -2
BITMAP
0000c0
000780
00fc00
001800
03ffc0
003000
1fffe0
00c000
03ff00
068600
0dfe00
198600
03fc00
030c00
03fc00
061800
ENDCHAR
STARTCHAR 3448
ENCODING 13384
SWIDTH 960 0
DWIDTH 16 0
BBX 21 16 -2 -2
BITMAP
00c300
00c300
03fff8
06cd80
0c68c0
000000
07ff80
003000
003000
006000
3fffc0
006000
00c000
00c000
00c000
018000
ENDCHAR
STARTCHAR 3449
ENCODING 13385
SWIDTH 960 0
DWIDTH 16 0
BBX 21 16 -2 -2
BITMAP
018300
018300
03fbf8
06cd00
0c6980
0fffe0
0c0180
1bfe00
030600
07fc00
060000
07fe00
0c0c00
0c0c00
0ffc00
181800
ENDCHAR
STARTCHAR 344a
ENCODING 13386
SWIDTH 960 0
DWIDTH 16 0
BBX 21 16 -2 -2
BITMAP
018300
01fdf8
036e80
0e6980
07f7e0
063460
0fefc0
0c68c0
0fefc0
180180
1bf980
1b1980
37f300
363300
37f300
600e00
ENDCHAR
STARTCHAR 344b
ENCODING 13387
SWIDTH 960 0
DWIDTH 16 0
BBX 21 16 -2 -2
BITMAP
00c060
00c1d0
01bf30
0ea660
035b40
038d80
03bfc0
06d800
1fbfe0
063000
1b3f00
1b6a00
355c00
359800
6cf600
1b8300
ENDCHAR
STARTCHAR 344c
ENCODING 13388
SWIDTH 960 0
DWIDTH 16 0
BBX 21 16 -2 -2
BITMAP
00c000
00c000
018000
01ffc0
031800
061800
0c3000
183000
1fffe0
006000
0c6300
0c6300
18c600
18c600
1ffe00
300c00
ENDCHAR
STARTCHAR 344d
ENCODING 13389
SWIDTH 960 0
DWIDTH 16 0
BBX 21 16 -2 -2
BITMAP
00c180
00c180
07fb40
018ec0
07e860
067ff0
0cccc0
0feec0
0ced40
19aa80
1f9980
067b80
7fd500
0dbb00
0c3300
18ee00
ENDCHAR
STARTCHAR 344e
ENCODING 13390
SWIDTH 960 0
DWIDTH 16 0
BBX 21 16 -2 -2
BITMAP
000000
03f7f0
033180
066300
066300
07e300
0cc600
0cffe0
0cc600
1f8c00
198c00
198c00
331800
331800
671800
c63000
ENDCHAR
STARTCHAR 344f
ENCODING 13391
SWIDTH 960 0
DWIDTH 16 0
BBX 21 16 -2 -2
BITMAP
006060
00cfa0
03f560
066af0
076f80
076b00
0d5d00
1ff5e0
0cde00
1d8000
1abf80
1aaa80
355500
335500
67ff80
c60000
ENDCHAR
STARTCHAR 3450
ENCODING 13392
SWIDTH 960 0
DWIDTH 16 0
BBX 21 16 -2 -2
BITMAP
006180
006180
07fff8
00c300
001800
07ffe0
0c0180
0dfe00
180000
000000
3fff80
01b000
036000
066300
1c6300
f03e00
ENDCHAR
STARTCHAR 3451
ENCODING 13393
SWIDTH 960 0
DWIDTH 16 0
BBX 21 16 -2 -2
BITMAP
018000
0187f0
03fa30
068c60
0d8fe0
0ffc60
06d8c0
069fc0
0fe8c0
3b3180
1fdf80
1b3600
3fb400
366d80
3fcd80
630700
ENDCHAR
STARTCHAR 3452
ENCODING 13394
SWIDTH 960 0
DWIDTH 16 0
BBX 21 16 -2 -2
BITMAP
000180
03e180
001ff8
0ff300
001fc0
07eb40
003680
003f80
0fd680
006d00
1fbf00
19be00
336a00
335b00
3f9980
663000
ENDCHAR
STARTCHAR 3453
ENCODING 13395
SWIDTH 960 0
DWIDTH 16 0
BBX 21 16 -2 -2
BITMAP
000000
00ffc0
00ccc0
0ffff0
033300
03ff00
000000
03ff00
030300
07fe00
060600
07fe00
0c0c00
0ffc00
0e1c00
780600
ENDCHAR
STARTCHAR 3454
ENCODING 13396
SWIDTH 960 0
DWIDTH 16 0
BBX 21 16 -2 -2
BITMAP
000000
033fe0
0335a0
037fc0
000000
01fff0
000000
1f7f00
036300
06fe00
067180
06db00
0f6c00
1b6780
71e000
c0ff00
ENDCHAR
STARTCHAR 3455
ENCODING 13397
SWIDTH 960 0
DWIDTH 16 0
BBX 21 16 -2 -2
BITMAP
00c060
00cfa0
01ad60
036af0
061f80
0feb00
033d00
0335e0
1ffe00
060000
36bf80
376a80
35d500
0f5500
3dff80
e00000
ENDCHAR
STARTCHAR 3456
ENCODING 13398
SWIDTH 960 0
DWIDTH 16 0
BBX 21 16 -2 -2
BITMAP
000000
07f7f0
063630
0fefe0
0c6c60
0c6c60
1fdfc0
1800c0
19fcc0
331980
33f980
331980
67f300
663300
600700
c00600
ENDCHAR
STARTCHAR 3457
ENCODING 13399
SWIDTH 960 0
DWIDTH 16 0
BBX 21 16 -2 -2
BITMAP
000000
07f7f0
063630
0fefe0
0c6c60
0fefe0
1860c0
1860c0
1bfec0
30c180
31e180
375180
6db300
699b00
618700
c00600
ENDCHAR
STARTCHAR 3458
ENCODING 13400
SWIDTH 960 0
DWIDTH 16 0
BBX 21 16 -2 -2
BITMAP
000000
07f7f0
063630
0fefe0
0c6c60
0fefe0
198cc0
18d8c0
1bfec0
30c180
30c180
37fe80
61a300
633300
6e1b00
d80600
ENDCHAR
STARTCHAR 3459
ENCODING 13401
SWIDTH 960 0
DWIDTH 16 0
BBX 21 16 -2 -2
BITMAP
000300
03e300
0363e0
06c6c0
068d80
071b00
0d0600
0d6fc0
0d6cc0
1b5980
1b5f80
1ad980
3db300
31b300
31bf00
636600
ENDCHAR
STARTCHAR 345a
ENCODING 13402
SWIDTH 960 0
DWIDTH 16 0
BBX 21 16 -2 -2
BITMAP
00c180
00cfe0
07fb60
0186c0
07fff0
066000
0cdf80
0fd180
0cdfc0
198600
1fbf80
063600
7fac00
0dff80
0c0c00
181800
ENDCHAR
STARTCHAR 345b
ENCODING 13403
SWIDTH 960 0
DWIDTH 16 0
BBX 21 16 -2 -2
BITMAP
00c180
00c180
01aff8
036860
06b000
0fefc0
0cd980
0fd980
0cdf80
19b000
1fb000
1b3f80
336300
376300
3dbf00
e0c600
ENDCHAR
STARTCHAR 345c
ENCODING 13404
SWIDTH 960 0
DWIDTH 16 0
BBX 21 16 -2 -2
BITMAP
00c180
00c180
01aff8
036860
063000
0defc0
031980
031980
1fef80
063000
1fb000
19bf80
336300
336300
3f7f00
66c600
ENDCHAR
STARTCHAR 345d
ENCODING 13405
SWIDTH 960 0
DWIDTH 16 0
BBX 21 16 -2 -2
BITMAP
003000
003000
003000
006000
0fff00
006300
00c600
034600
01c600
018c00
034c00
06cc00
0cdb00
181b00
701b00
c00e00
ENDCHAR
STARTCHAR 345e
ENCODING 13406
SWIDTH 960 0
DWIDTH 16 0
BBX 21 16 -2 -2
BITMAP
000c00
000c00
001a00
007600
00ff00
0781c0
1c0060
03fe00
000c00
001800
003000
07fe00
0c0c00
0c0c00
0ffc00
181800
ENDCHAR
STARTCHAR 345f
ENCODING 13407
SWIDTH 960 0
DWIDTH 16 0
BBX 21 16 -2 -2
BITMAP
000c00
018c60
018c60
03ffc0
000000
03fff0
060000
06ff80
061800
0c3000
0fffc0
183000
186000
306000
606000
00c000
ENDCHAR
STARTCHAR 3460
ENCODING 13408
SWIDTH 960 0
DWIDTH 16 0
BBX 21 16 -2 -2
BITMAP
018630
018630
01fff0
00d180
03fff0
037b00
06c600
07fbe0
06bd80
0deb00
0d7500
1bee00
1acc00
37da00
6ef300
c1c300
ENDCHAR
STARTCHAR 3461
ENCODING 13409
SWIDTH 960 0
DWIDTH 16 0
BBX 21 16 -2 -2
BITMAP
000000
000fe0
07f000
030000
030000
030000
06ffe0
1f9b00
061b00
0c3600
0c3600
0fa600
1c6c00
70cd80
038780
060000
ENDCHAR
STARTCHAR 3462
ENCODING 13410
SWIDTH 960 0
DWIDTH 16 0
BBX 21 16 -2 -2
BITMAP
000600
000600
00fff0
018000
0dbf80
0db180
0d7f00
030000
0ff7c0
1b6d80
37f780
0c3300
1a6600
366600
67fe00
0c0c00
ENDCHAR
STARTCHAR 3463
ENCODING 13411
SWIDTH 960 0
DWIDTH 16 0
BBX 21 16 -2 -2
BITMAP
000000
03efe0
036c60
06d8c0
06dfc0
07d8c0
0db180
0dbfc0
0fb6c0
1b6d80
1b6d00
1b6e00
3ecc00
36da00
00e300
078300
ENDCHAR
STARTCHAR 3464
ENCODING 13412
SWIDTH 960 0
DWIDTH 16 0
BBX 21 16 -2 -2
BITMAP
000c00
018c60
018c60
0318c0
03ffc0
000000
000000
1fffe0
01c000
030000
07fe00
1d0600
760c00
060c00
07fc00
0c1800
ENDCHAR
STARTCHAR 3465
ENCODING 13413
SWIDTH 960 0
DWIDTH 16 0
BBX 21 16 -2 -2
BITMAP
000000
07fdf0
00cc00
0dd800
06a800
07b800
1ddfe0
077680
030680
1fcd00
18cd00
1fdb00
319a00
31b680
3fa680
634700
ENDCHAR
STARTCHAR 3466
ENCODING 13414
SWIDTH 960 0
DWIDTH 16 0
BBX 21 16 -2 -2
BITMAP
000000
01fff0
01b6c0
033fe0
035b00
03efc0
06b600
06ffe0
068300
0dfe00
0d8600
19fe00
1b0c00
33fc00
679c00
3c0600
ENDCHAR
STARTCHAR 3467
ENCODING 13415
SWIDTH 960 0
DWIDTH 16 0
BBX 21 16 -2 -2
BITMAP
000000
01fff8
019b00
0336c0
033580
036fe0
06db00
06eb00
075fc0
0db600
0db600
19bf80
1b6c00
336c00
637f80
06c000
ENDCHAR
STARTCHAR 3468
ENCODING 13416
SWIDTH 960 0
DWIDTH 16 0
BBX 21 16 -2 -2
BITMAP
000000
001ff8
03f380
000600
001fe0
001860
1ff0c0
06bfc0
06b0c0
0d7f80
0d6180
1be180
1b7f00
363600
60e300
078300
ENDCHAR
STARTCHAR 3469
ENCODING 13417
SWIDTH 960 0
DWIDTH 16 0
BBX 21 16 -2 -2
BITMAP
00c000
00cff8
07fb80
066600
034fe0
07f460
0cd8c0
0d9fc0
0d68c0
19bf80
1b3180
1af180
31bf00
633600
0ee300
798300
ENDCHAR
STARTCHAR 346a
ENCODING 13418
SWIDTH 960 0
DWIDTH 16 0
BBX 21 16 -2 -2
BITMAP
000000
03fff8
0370c0
06c300
06fbe0
069a60
0df4c0
0d37c0
0d34c0
1bef80
199980
36d980
355f00
6d6a00
6b7300
0ec300
ENDCHAR
STARTCHAR 346b
ENCODING 13419
SWIDTH 960 0
DWIDTH 16 0
BBX 21 16 -2 -2
BITMAP
000c00
000c00
001a00
007600
00c300
0399c0
1e3060
003000
033f80
066000
066000
066000
0cc000
0cc000
7fff80
000000
ENDCHAR
STARTCHAR 346c
ENCODING 13420
SWIDTH 960 0
DWIDTH 16 0
BBX 21 16 -2 -2
BITMAP
006300
006300
006300
00fff0
018600
038600
070c00
0d7f80
1b3180
063300
063600
063400
0c3800
0c6c00
0dc600
1b0300
ENDCHAR
STARTCHAR 346d
ENCODING 13421
SWIDTH 960 0
DWIDTH 16 0
BBX 21 16 -2 -2
BITMAP
006000
007f80
00c700
038c00
07ffe0
0d0000
060000
06ff00
06c300
0d8600
0d8600
199c00
1b0300
330300
618300
00fe00
ENDCHAR
STARTCHAR 346e
ENCODING 13422
SWIDTH 960 0
DWIDTH 16 0
BBX 21 16 -2 -2
BITMAP
001800
07fff0
001800
07ffc0
000000
03ff80
060300
07ff00
030e00
031800
7fffc0
000000
1ffc00
180c00
1ffc00
301800
ENDCHAR
STARTCHAR 346f
ENCODING 13423
SWIDTH 960 0
DWIDTH 16 0
BBX 21 16 -2 -2
BITMAP
000000
01fbe0
019a60
0334c0
03f7c0
0338c0
003000
1fffe0
00e800
038c00
0e0700
3fdfc0
19a600
19a600
1fbe00
334c00
ENDCHAR
STARTCHAR 3470
ENCODING 13424
SWIDTH 960 0
DWIDTH 16 0
BBX 21 16 -2 -2
BITMAP
006180
006180
03fff0
00c300
00ff00
00c300
01fe00
018600
1fffe0
036c00
066600
1dfd00
70c180
00c000
3fff00
000000
ENDCHAR
STARTCHAR 3471
ENCODING 13425
SWIDTH 960 0
DWIDTH 16 0
BBX 21 16 -2 -2
BITMAP
000c00
000c00
03fff0
003400
006600
01c380
000000
1fffe0
000300
07f600
063600
063600
0fec00
0c6c00
000c00
003800
ENDCHAR
STARTCHAR 3472
ENCODING 13426
SWIDTH 960 0
DWIDTH 16 0
BBX 21 16 -2 -2
BITMAP
00c180
00dff8
00c180
019fe0
0fe000
036fe0
06d0c0
06dfc0
0d9b80
199a00
3f7fc0
078000
0d7f00
18c300
70ff00
018600
ENDCHAR
STARTCHAR 3473
ENCODING 13427
SWIDTH 960 0
DWIDTH 16 0
BBX 21 16 -2 -2
BITMAP
001800
001800
03fff0
0630c0
0dff80
007800
00d800
038e00
1fffc0
000c00
0fec00
0c6c00
18d800
1fd800
18d800
007000
ENDCHAR
STARTCHAR 3474
ENCODING 13428
SWIDTH 960 0
DWIDTH 16 0
BBX 21 16 -2 -2
BITMAP
018300
018300
01bff8
0d6600
0d4600
0d4600
1aff80
1ab180
1ab300
353600
353400
3f3c00
663800
606c00
01c600
0f0300
ENDCHAR
STARTCHAR 3475
ENCODING 13429
SWIDTH 960 0
DWIDTH 16 0
BBX 21 16 -2 -2
BITMAP
007060
001dc0
000f00
007b00
07d980
003000
1fffe0
00d800
019800
07ff80
0d3180
3b3180
666300
066300
066e00
00c000
ENDCHAR
STARTCHAR 3476
ENCODING 13430
SWIDTH 960 0
DWIDTH 16 0
BBX 21 16 -2 -2
BITMAP
00cd80
00cd80
033760
01ab40
00d980
01ab40
03b780
0e3ec0
003300
3fffc0
033000
03b700
06b400
0c3b00
38ed00
670e00
ENDCHAR
STARTCHAR 3477
ENCODING 13431
SWIDTH 960 0
DWIDTH 16 0
BBX 21 16 -2 -2
BITMAP
000000
01ff80
000180
000300
03ff00
030000
060300
060300
03ff00
006000
0db300
0db180
1b3180
330d80
618c00
00f800
ENDCHAR
STARTCHAR 3478
ENCODING 13432
SWIDTH 960 0
DWIDTH 16 0
BBX 21 16 -2 -2
BITMAP
018000
019ff0
01b360
036600
0fdfe0
030600
067f80
066d80
07bf80
3cdb00
0cdb00
0cff00
183000
1bff80
183000
706000
ENDCHAR
STARTCHAR 3479
ENCODING 13433
SWIDTH 960 0
DWIDTH 16 0
BBX 21 16 -2 -2
BITMAP
00c000
00c7c0
00c6c0
0ff580
018d80
018d80
079b00
075b00
075300
0e3600
1a6600
36c600
0ccc00
0d8d80
0f0d80
1c0700
ENDCHAR
STARTCHAR 347a
ENCODING 13434
SWIDTH 960 0
DWIDTH 16 0
BBX 21 16 -2 -2
BITMAP
00c600
00c600
00cff8
0fe800
0334c0
037ff0
061980
07df80
06d980
0dbf00
0db300
19ffc0
1b0c00
333600
676600
1d8600
ENDCHAR
STARTCHAR 347b
ENCODING 13435
SWIDTH 960 0
DWIDTH 16 0
BBX 21 16 -2 -2
BITMAP
000000
03f7f0
0336c0
066d80
07ed80
066d80
0cdb00
0fffe0
0c0700
1b0e00
198e00
1b9a00
36b400
39ad80
71cd80
070700
ENDCHAR
STARTCHAR 347c
ENCODING 13436
SWIDTH 960 0
DWIDTH 16 0
BBX 21 16 -2 -2
BITMAP
019800
019bf0
07ff30
033660
033660
03f7e0
066cc0
066cc0
07ecc0
0cdf80
0cd980
3ff980
1b3300
19a300
31c700
e18600
ENDCHAR
STARTCHAR 347d
ENCODING 13437
SWIDTH 960 0
DWIDTH 16 0
BBX 21 16 -2 -2
BITMAP
00c660
00c660
00dff8
0ff4c0
018cc0
018fc0
079980
075980
076f80
0e3300
1a3300
36ffc0
0c0c00
0c6600
0dc600
1b0600
ENDCHAR
STARTCHAR 347e
ENCODING 13438
SWIDTH 960 0
DWIDTH 16 0
BBX 21 16 -2 -2
BITMAP
000c00
07fff8
003b80
0061c0
03ffa0
019980
1fffe0
033300
03ff00
006000
3fffc0
03a800
06d800
1cce00
70c380
018000
ENDCHAR
STARTCHAR 3521
ENCODING 13601
SWIDTH 960 0
DWIDTH 16 0
BBX 21 16 -2 -2
BITMAP
00cd60
00cd60
00f7c0
0fdac0
019aa0
01b7d0
075d80
078cc0
077fe0
0e6d00
1a6d00
367600
0cd580
0d9a80
0f3380
1cc300
ENDCHAR
STARTCHAR 3522
ENCODING 13602
SWIDTH 960 0
DWIDTH 16 0
BBX 21 16 -2 -2
BITMAP
00c000
00dfe0
00c060
069fc0
0680c0
06bfc0
0d0000
0d7fe0
1b4c60
36d8c0
06ff00
0cdb00
0db600
19b600
31b600
606000
ENDCHAR
STARTCHAR 3523
ENCODING 13603
SWIDTH 960 0
DWIDTH 16 0
BBX 21 16 -2 -2
BITMAP
006000
0063e0
03fd60
0336c0
01a6d0
0ffcd0
0318e0
06b000
0daf80
06db00
0ddb00
1bae00
0d6c00
1b1a00
377300
1dc300
ENDCHAR
STARTCHAR 3524
ENCODING 13604
SWIDTH 960 0
DWIDTH 16 0
BBX 21 16 -2 -2
BITMAP
00c000
00c000
00fff0
018000
037f80
0e0000
180000
07ff00
003300
073600
01a600
01e600
036680
063680
1c0380
f00300
ENDCHAR
STARTCHAR 3525
ENCODING 13605
SWIDTH 960 0
DWIDTH 16 0
BBX 21 16 -2 -2
BITMAP
019800
00d800
00dff0
003000
006f80
0cc000
0c0000
0dff00
000300
060600
0c0600
180600
180680
300680
600380
c00300
ENDCHAR
STARTCHAR 3526
ENCODING 13606
SWIDTH 960 0
DWIDTH 16 0
BBX 21 16 -2 -2
BITMAP
00cd80
00d5a0
036f40
01ab80
00d980
03ab40
0ed7c0
006ac0
1fffe0
0fd600
0d5600
0fdc00
1a9b00
1ab500
1fe700
038600
ENDCHAR
STARTCHAR 3527
ENCODING 13607
SWIDTH 960 0
DWIDTH 16 0
BBX 21 16 -2 -2
BITMAP
00c060
00c1c0
00cf00
0fe800
006800
00dff0
01b300
033300
0fb300
1aa600
36e600
066600
0ccc00
0d8c00
0d0c00
181800
ENDCHAR
STARTCHAR 3528
ENCODING 13608
SWIDTH 960 0
DWIDTH 16 0
BBX 21 16 -2 -2
BITMAP
0000c0
000380
01fe00
001800
0ffff0
007c00
00d400
03b700
1e31e0
03fc00
003000
006000
7fff80
00c000
00c000
038000
ENDCHAR
STARTCHAR 3529
ENCODING 13609
SWIDTH 960 0
DWIDTH 16 0
BBX 21 16 -2 -2
BITMAP
003060
00e760
07c380
01bec0
018600
0ffff0
031a00
079a00
075fc0
0e7580
1ad580
36b580
6c6b00
0c6e00
0c6800
183000
ENDCHAR
STARTCHAR 352a
ENCODING 13610
SWIDTH 960 0
DWIDTH 16 0
BBX 21 16 -2 -2
BITMAP
00c000
00c7f0
01b030
0ea060
034060
038060
039fc0
06d800
1fd800
06d000
1a3000
1ab000
35b180
35b180
6c1f80
180000
ENDCHAR
STARTCHAR 352b
ENCODING 13611
SWIDTH 960 0
DWIDTH 16 0
BBX 21 16 -2 -2
BITMAP
00d980
00ea80
01ab00
037df0
0636c0
0db6c0
01da80
06d680
066b00
1df500
34da00
0d6600
1aae00
1a9a00
1db300
334300
ENDCHAR
STARTCHAR 352c
ENCODING 13612
SWIDTH 960 0
DWIDTH 16 0
BBX 21 16 -2 -2
BITMAP
00c000
00cfe0
00cc60
07f8c0
019fc0
0198c0
033180
1fff80
033180
076300
0d7f00
1b6c00
1b6800
30d980
638d80
ce0700
ENDCHAR
STARTCHAR 352d
ENCODING 13613
SWIDTH 960 0
DWIDTH 16 0
BBX 21 16 -2 -2
BITMAP
000000
03f7f0
000030
0ff860
000060
07f060
001fc0
0fe800
001800
003000
1fd000
18d000
31b180
31b180
3f9f80
630000
ENDCHAR
ENDFONT
